<svg width="18" height="18" viewBox="0 0 18 18" fill="none" xmlns="http://www.w3.org/2000/svg">
<g clip-path="url(#clip0_4519_17695)">
<path d="M14.3066 14.013L12.7129 10.8255L11.1191 14.013" stroke="#191C1F" stroke-linecap="round" stroke-linejoin="round"/>
<path d="M11.4004 13.4508H14.0254" stroke="#191C1F" stroke-linecap="round" stroke-linejoin="round"/>
<path d="M12.7128 16.5003C10.621 16.5003 8.92529 14.8045 8.92529 12.7128C8.92529 10.621 10.621 8.92529 12.7128 8.92529C14.8045 8.92529 16.5003 10.621 16.5003 12.7128C16.5003 14.8045 14.8045 16.5003 12.7128 16.5003Z" stroke="#191C1F" stroke-linecap="round" stroke-linejoin="round"/>
<path d="M3.8252 1.57501H6.7502C7.99295 1.57501 9.0002 2.58226 9.0002 3.82501V6.75001C9.0002 7.99276 7.99295 9.00001 6.7502 9.00001H3.8252C2.58245 9.00001 1.5752 7.99276 1.5752 6.75001V3.82501C1.5752 2.58226 2.58245 1.57501 3.8252 1.57501Z" stroke="#191C1F" stroke-linecap="round" stroke-linejoin="round"/>
<path d="M6.80654 4.44376H3.76904" stroke="#191C1F" stroke-linecap="round" stroke-linejoin="round"/>
<path d="M5.2876 3.9375V4.44375" stroke="#191C1F" stroke-linecap="round" stroke-linejoin="round"/>
<path d="M6.04679 4.44376C6.04679 5.74876 5.02679 6.80626 3.76904 6.80626" stroke="#191C1F" stroke-linecap="round" stroke-linejoin="round"/>
<path d="M6.80653 6.80655C6.26053 6.80655 5.77228 6.51555 5.42578 6.05655" stroke="#191C1F" stroke-linecap="round" stroke-linejoin="round"/>
<path d="M10.9238 3.68701H12.0233C13.5413 3.68701 14.7713 4.91776 14.7713 6.43501" stroke="#191C1F" stroke-linecap="round" stroke-linejoin="round"/>
<path d="M10.9238 3.68701L11.7481 4.51126" stroke="#191C1F" stroke-linecap="round" stroke-linejoin="round"/>
<path d="M11.7481 2.86172L10.9238 3.68597" stroke="#191C1F" stroke-linecap="round" stroke-linejoin="round"/>
<path d="M7.0765 14.3127H5.977C4.459 14.3127 3.229 13.0819 3.229 11.5647" stroke="#191C1F" stroke-linecap="round" stroke-linejoin="round"/>
<path d="M7.0762 14.313L6.25195 13.4888" stroke="#191C1F" stroke-linecap="round" stroke-linejoin="round"/>
<path d="M6.25195 15.138L7.0762 14.3138" stroke="#191C1F" stroke-linecap="round" stroke-linejoin="round"/>
</g>
<defs>
<clipPath id="clip0_4519_17695">
<rect width="18" height="18" fill="white"/>
</clipPath>
</defs>
</svg>
