<svg width="18" height="18" viewBox="0 0 18 18" fill="none" xmlns="http://www.w3.org/2000/svg">
<g clip-path="url(#clip0_4519_17676)">
<path d="M0 4C0 1.79086 1.79086 0 4 0H14C16.2091 0 18 1.79086 18 4V6H0V4Z" fill="#F9F9F9"/>
<path d="M0 6H18V12H0V6Z" fill="#428BC1"/>
<path d="M0 12H18V14C18 16.2091 16.2091 18 14 18H4C1.79086 18 0 16.2091 0 14V12Z" fill="#FF4C5C"/>
<g clip-path="url(#clip1_4519_17676)">
<mask id="mask0_4519_17676" style="mask-type:luminance" maskUnits="userSpaceOnUse" x="-1" y="0" width="31" height="18">
<path d="M29.8519 0H-1V18H29.8519V0Z" fill="white"/>
</mask>
<g mask="url(#mask0_4519_17676)">
<path d="M29.8519 0H-1V11.9969H29.8519V0Z" fill="#BA0019"/>
<path d="M29.8519 11.997H-1V18H29.8519V11.997Z" fill="#3E9A13"/>
<path d="M2.96221 0H-1V18H2.96221V0Z" fill="white"/>
<path d="M-0.522461 17.6691H-0.347793V17.1727H-0.522461V17.6691ZM0.893269 17.6691H1.06794V17.1727H0.893269V17.6691ZM2.29981 17.6691H2.48367V17.1727H2.29981V17.6691ZM0.185404 16.3361H0.360072V15.9224H0.185404V16.3361ZM1.60113 16.3361H1.75742V15.9224H1.60113V16.3361ZM-0.522461 15.2605H-0.347793V14.7641H-0.522461V15.2605ZM0.893269 15.2605H1.06794V14.7641H0.893269V15.2605ZM2.29981 15.2605H2.48367V14.7641H2.29981V15.2605ZM-0.163932 15.9224H0.0107363V15.5087H0.185404V15.095H0.360072V15.5087H0.53474V15.9224H0.718601V16.3361H0.53474V16.759H0.360072V17.1727H0.185404V16.759H0.0107363V16.3361H-0.163932V15.9224ZM1.24261 15.9224H1.42647V15.5087H1.60113V15.095H1.75742V15.5087H1.93208V15.9224H2.12514V16.3361H1.95047V16.759H1.75742V17.1727H1.60113V16.759H1.42647V16.3361H1.24261V15.9224ZM1.60113 14.2676V14.7089H1.41727V15.1226H1.24261V15.5363H1.06794V15.95H0.893269V15.5363H0.718601V15.1226H0.53474V14.7089H0.360072V14.2952H0.185404V14.7089H0.0107363V15.1226H-0.163932V15.5363H-0.347793V15.95H-0.522461V16.3637H-0.347793V16.7865H-0.163932V17.2002H0.0107363V17.6139H0.185404V18.0276H0.360072V17.6139H0.53474V17.2002H0.718601V16.7865H0.893269V16.3637H1.06794V16.7865H1.24261V17.2002H1.42647V17.6139H1.60113V18.0276H1.75742V17.6139H1.93208V17.2002H2.12514V16.7865H2.29981V16.3637H2.48367V15.95H2.29981V15.5363H2.12514V15.1226H1.95047V14.7089H1.75742V14.2952L1.60113 14.2676ZM2.03321 13.854H2.12514V13.6885H2.21707V13.854H2.29981V14.0194H2.21707V14.1849H2.12514V14.0194H2.03321V13.854ZM2.03321 13.2748V13.523H1.95047V13.7896H1.85854V14.1206H1.95047V14.3688H2.03321V14.617H2.29981V14.3688H2.39174V14.1206H2.47447V13.7896H2.39174V13.5414H2.29981V13.2932L2.03321 13.2748ZM-0.347793 13.854H-0.255862V13.6885H-0.163932V13.854H-0.0811943V14.0194H-0.163932V14.1849H-0.255862V14.0194H-0.347793V13.854ZM-0.347793 13.2748V13.523H-0.43053V13.7896H-0.522461V14.1206H-0.43053V14.3688H-0.347793V14.617H-0.0811943V14.3688H0.0107363V14.1206H0.0934738V13.7896H0.0107363V13.5414H-0.0811943V13.2932L-0.347793 13.2748ZM0.626671 13.854H0.718601V13.6885H0.838111V13.854H0.930042V14.0194H0.838111V14.1849H0.718601V14.0194H0.626671V13.854ZM1.06794 13.854H1.15987V13.6885H1.24261V13.854H1.33454V14.0194H1.24261V14.1849H1.15987V14.0194H1.06794V13.854ZM1.06794 13.2748V13.523H0.893269V13.2748H0.626671V13.523H0.53474V13.7896H0.452003V14.1206H0.53474V14.3688H0.626671V14.617H0.893269V14.3688H1.06794V14.617H1.33454V14.3688H1.42647V14.1206H1.5092V13.7896H1.42647V13.5414H1.33454V13.2932L1.06794 13.2748ZM-0.522461 13.1001H-0.347793V12.6037H-0.522461V13.1001ZM0.893269 13.1001H1.06794V12.6037H0.893269V13.1001ZM2.29981 13.1001H2.48367V12.6037H2.29981V13.1001ZM-0.522461 11.0317H-0.347793V10.7007H-0.522461V11.0317ZM2.29981 11.0317H2.48367V10.7007H2.29981V11.0317ZM0.893269 9.87337H1.06794V9.45968H0.893269V9.87337ZM-0.522461 8.75182V9.00003V9.24824H-0.347793V9.00003V8.75182H-0.522461ZM0.452003 8.75182V9.00003V9.24824H0.626671V9.00003V8.75182H0.452003ZM1.37131 8.75182V9.00003V9.24824H1.54598V9.00003V8.75182H1.37131ZM2.29061 8.75182V9.00003V9.24824H2.47447V9.00003V8.75182H2.29061ZM1.15987 8.45764V8.62311H1.06794V8.75182H0.893269V8.62311H0.838111V8.45764H0.626671V8.70585H0.718601V8.83455H0.838111V9.00003V9.19308H0.718601V9.32179H0.626671V9.57H0.838111V9.37694H0.930042V9.24824H1.10471V9.37694H1.19664V9.54242H1.37131V9.29421H1.27938V9.19308H1.15987V9.00003V8.83455H1.24261V8.70585H1.33454V8.45764H1.15987ZM0.893269 8.54038H1.06794V8.12669H0.893269V8.54038ZM-0.522461 7.29931H-0.347793V6.96836H-0.522461V7.29931ZM2.29981 7.29931H2.48367V6.96836H2.29981V7.29931ZM-0.522461 5.39635H-0.347793V4.89074H-0.522461V5.39635ZM0.893269 5.39635H1.06794V4.89074H0.893269V5.39635ZM2.29981 5.39635H2.48367V4.89074H2.29981V5.39635ZM0.185404 9.00922V8.83455H0.360072V8.54957H0.53474V8.20943H0.838111V7.82332H0.930042V7.63026H1.10471V7.81413H1.19664V8.20943H1.46324V8.54957H1.63791V8.83455H1.75742V9.19308H1.60113V9.48726H1.42647V9.81821H1.15987V10.2043H1.06794V10.3974H0.893269V10.2043H0.838111V9.81821H0.53474V9.48726H0.360072V9.19308H0.185404V9.00922ZM1.60113 4.4127V4.82638H1.41727V5.24007H1.24261V5.66295H1.06794V6.07664H0.893269V5.64457H0.718601V5.22168H0.53474V4.808H0.360072V4.39431H0.185404V4.808H0.0107363V5.22168H-0.163932V5.64457H-0.347793V6.05825H-0.522461V6.43517H-0.347793V6.84886H-0.163932V7.26254H0.0107363V7.67623H0.185404V7.29931H0.360072V6.88563H0.53474V6.43517H0.360072V5.97552H0.53474V6.30647H0.718601V6.96836H0.838111V7.35447H0.53474V7.68542H0.360072V7.93364H0.185404V8.34732H0.0107363V7.96121H-0.163932V7.713H-0.347793V7.46479H-0.522461V8.20943H-0.347793V8.54957H-0.163932V8.83455H0.0107363V9.00003V9.19308H-0.163932V9.48726H-0.347793V9.81821H-0.522461V10.5628H-0.347793V10.3146H-0.163932V10.0664H0.0107363V9.65274H0.185404V10.0664H0.360072V10.3146H0.53474V10.6456H0.838111V11.0317H0.718601V11.6936H0.53474V12.0337H0.360072V11.5281H0.53474V11.1144H0.360072V10.7007H0.185404V10.2871H0.0107363V10.7007H-0.163932V11.1144H-0.347793V11.5281H-0.522461V11.951H-0.347793V12.3647H-0.163932V12.7784H0.0107363V13.2013H0.185404V13.6149H0.360072V13.2013H0.53474V12.7784H0.718601V12.3647H0.893269V11.951H1.06794V12.3647H1.24261V12.7784H1.42647V13.2013H1.60113V13.6149H1.75742V13.2013H1.93208V12.7784H2.12514V12.3647H2.29981V11.951H2.48367V11.5373H2.29981V11.1236H2.12514V10.7099H1.95047V10.2963H1.75742V10.7099H1.60113V11.1236H1.41727V11.5373H1.60113V12.0429H1.41727V11.7028H1.24261V11.0317H1.15987V10.618H1.42647V10.2871H1.60113V10.0388H1.75742V9.62516H1.93208V10.0388H2.12514V10.2871H2.29981V10.5353H2.48367V9.79063H2.29981V9.45968H2.12514V9.19308H1.95047V9.00003V8.83455H2.12514V8.54957H2.29981V8.20943H2.48367V7.46479H2.29981V7.713H2.12514V7.96121H1.95047V8.3749H1.75742V7.96121H1.60113V7.713H1.42647V7.35447H1.15987V6.96836H1.24261V6.30647H1.41727V5.97552H1.60113V6.43517H1.41727V6.84886H1.60113V7.26254H1.75742V7.67623H1.93208V7.29931H2.12514V6.88563H2.29981V6.43517H2.48367V6.05825H2.29981V5.64457H2.12514V5.22168H1.95047V4.808H1.75742V4.39431L1.60113 4.4127ZM-0.347793 3.98062H-0.255862V3.81515H-0.163932V3.98062H-0.0811943V4.1461H-0.163932V4.32077H-0.255862V4.1461H-0.347793V3.98062ZM-0.347793 3.67725H-0.43053V3.92546H-0.522461V4.22884H-0.43053V4.48624H-0.347793V4.72526H-0.0811943V4.48624H0.0107363V4.22884H0.0934738V3.89788H0.0107363V3.67725H-0.0811943V3.40146H-0.347793V3.67725ZM0.626671 4.0082H0.718601V3.81515H0.838111V3.98062H0.930042V4.1461H0.838111V4.32077H0.718601V4.1461H0.626671V4.0082ZM1.06794 4.0082H1.15987V3.81515H1.24261V3.98062H1.33454V4.1461H1.24261V4.32077H1.15987V4.1461H1.06794V4.0082ZM0.626671 3.67725H0.53474V3.92546H0.452003V4.22884H0.53474V4.48624H0.626671V4.72526H0.893269V4.48624H1.06794V4.72526H1.33454V4.48624H1.42647V4.22884H1.5092V3.89788H1.42647V3.67725H1.33454V3.40146H1.06794V3.67725H0.893269V3.40146H0.626671V3.67725ZM2.03321 4.0082H2.12514V3.81515H2.21707V3.98062H2.29981V4.1461H2.21707V4.31157H2.12514V4.1461H2.03321V4.0082ZM2.03321 3.42904V3.67725H1.95047V3.92546H1.85854V4.22884H1.95047V4.47705H2.03321V4.72526H2.29981V4.47705H2.39174V4.22884H2.47447V3.89788H2.39174V3.67725H2.29981V3.40146L2.03321 3.42904ZM-0.522461 3.23599H-0.347793V2.75795H-0.522461V3.23599ZM0.893269 3.23599H1.06794V2.75795H0.893269V3.23599ZM2.29981 3.23599H2.48367V2.75795H2.29981V3.23599ZM0.185404 2.07766H0.360072V1.65478H0.185404V2.07766ZM1.60113 2.07766H1.75742V1.65478H1.60113V2.07766ZM-0.522461 0.827405H-0.347793V0.33098H-0.522461V0.827405ZM0.893269 0.827405H1.06794V0.33098H0.893269V0.827405ZM2.29981 0.827405H2.48367V0.33098H2.29981V0.827405ZM-0.163932 1.65478H0.0107363V1.25029H0.185404V0.827405H0.360072V1.25029H0.53474V1.65478H0.718601V2.07766H0.53474V2.49135H0.360072V2.90504H0.185404V2.49135H0.0107363V2.07766H-0.163932V1.65478ZM1.24261 1.65478H1.42647V1.25029H1.60113V0.827405H1.75742V1.25029H1.93208V1.65478H2.12514V2.07766H1.95047V2.49135H1.75742V2.90504H1.60113V2.49135H1.42647V2.07766H1.24261V1.65478ZM1.60113 3.05176e-05V0.413718H1.42647V0.827405H1.24261V1.25029H1.06794V1.65478H0.893269V1.25029H0.718601V0.827405H0.53474V0.413718H0.360072V3.05176e-05H0.185404V0.413718H0.0107363V0.827405H-0.163932V1.25029H-0.347793V1.65478H-0.522461V2.07766H-0.347793V2.49135H-0.163932V2.90504H0.0107363V3.31872H0.185404V3.73241H0.360072V3.31872H0.53474V2.90504H0.718601V2.49135H0.893269V2.07766H1.06794V2.49135H1.24261V2.90504H1.41727V3.31872H1.60113V3.73241H1.75742V3.31872H1.93208V2.90504H2.12514V2.49135H2.29981V2.07766H2.48367V1.65478H2.29981V1.25029H2.12514V0.827405H1.95047V0.413718H1.75742V3.05176e-05H1.60113Z" fill="#BA0019"/>
</g>
</g>
</g>
<defs>
<clipPath id="clip0_4519_17676">
<rect width="18" height="18" rx="4" fill="white"/>
</clipPath>
<clipPath id="clip1_4519_17676">
<rect width="30.8519" height="18" fill="white" transform="translate(-1)"/>
</clipPath>
</defs>
</svg>
