<svg width="19" height="13" viewBox="0 0 19 13" fill="none" xmlns="http://www.w3.org/2000/svg">
<path fill-rule="evenodd" clip-rule="evenodd" d="M7.29934 3.22492C7.29934 4.40169 6.21253 5.40253 4.80772 5.40253C3.4029 5.40253 2.31609 4.40169 2.31609 3.22492C2.31609 2.04816 3.4029 1.04732 4.80772 1.04732C6.21253 1.04732 7.29934 2.04816 7.29934 3.22492ZM8.12988 3.22492C8.12988 4.84851 6.6425 6.16469 4.80772 6.16469C2.97293 6.16469 1.48555 4.84851 1.48555 3.22492C1.48555 1.60133 2.97293 0.285156 4.80772 0.285156C6.26333 0.285156 7.50031 1.11356 7.94939 2.26667C8.37443 2.15291 8.74895 2.08482 9.1347 2.08179C9.55315 2.0785 9.95917 2.15185 10.4354 2.29453C10.8753 1.12694 12.1204 0.285156 13.5877 0.285156C15.4225 0.285156 16.9099 1.60133 16.9099 3.22492C16.9099 4.84851 15.4225 6.16469 13.5877 6.16469C11.7529 6.16469 10.2656 4.84851 10.2656 3.22492C10.2656 3.16529 10.2676 3.10607 10.2715 3.04732C10.2647 3.04553 10.2578 3.04358 10.251 3.04147C9.79078 2.89845 9.45929 2.84143 9.1418 2.84392C8.84585 2.84624 8.53757 2.90034 8.12152 3.01475C8.12706 3.08417 8.12988 3.15426 8.12988 3.22492ZM12.3941 8.66079C13.7657 9.67306 15.4694 10.9305 18.1557 9.21336C17.6811 12.7519 12.7572 13.5141 9.19772 10.7921C5.51961 13.6774 0.595689 12.7519 0.121094 9.21336C3.14952 10.9648 4.81948 9.69444 6.13174 8.69621C7.21016 7.87587 8.04702 7.2393 9.19772 8.61452C10.2915 7.10892 11.2214 7.79525 12.3941 8.66079ZM13.5877 5.40253C14.9925 5.40253 16.0793 4.40169 16.0793 3.22492C16.0793 2.04816 14.9925 1.04732 13.5877 1.04732C12.1829 1.04732 11.0961 2.04816 11.0961 3.22492C11.0961 4.40169 12.1829 5.40253 13.5877 5.40253Z" fill="url(#paint0_linear_443_22871)"/>
<defs>
<linearGradient id="paint0_linear_443_22871" x1="9.13839" y1="0.285156" x2="9.13839" y2="12.5021" gradientUnits="userSpaceOnUse">
<stop stop-color="white"/>
<stop offset="1" stop-color="white" stop-opacity="0.6"/>
</linearGradient>
</defs>
</svg>
