<svg width="23" height="18" viewBox="0 0 23 18" fill="none" xmlns="http://www.w3.org/2000/svg">
<path fill-rule="evenodd" clip-rule="evenodd" d="M1.91837 3.38613C1.21149 3.48676 0.717497 4.14174 0.815013 4.84906L0.926637 5.65871L20.8965 2.81574L20.7849 2.00609C20.6874 1.29877 20.0353 0.806959 19.3284 0.907592L1.91837 3.38613ZM21.1756 4.84011L1.20573 7.68308L2.42509 16.5275C2.5226 17.2348 3.1747 17.7267 3.88158 17.626L21.2916 15.1475C21.9985 15.0469 22.4925 14.3919 22.395 13.6846L21.1756 4.84011ZM4.46012 13.9547L10.3336 13.1186L10.5459 14.6585L4.67243 15.4947L4.46012 13.9547ZM17.8088 13.0855L17.9042 13.7746L18.4015 13.7057L18.3061 13.0165C18.6931 12.9404 19.0224 12.8189 19.294 12.6518C19.6242 12.4474 19.8633 12.1948 20.0112 11.8941C20.1588 11.5914 20.2074 11.2581 20.157 10.8942C20.1198 10.6253 20.0367 10.3978 19.9079 10.2116C19.7791 10.0255 19.618 9.87369 19.4245 9.75626C19.2331 9.63854 19.0217 9.54831 18.7905 9.48556C18.5613 9.42253 18.3257 9.37996 18.0836 9.35786L17.795 9.32676L17.5557 7.59935C17.7883 7.59491 17.991 7.63755 18.1637 7.72724C18.3944 7.8457 18.5422 8.03539 18.6072 8.29631L19.6898 8.14634C19.6353 7.79743 19.4944 7.5017 19.2671 7.25914C19.0396 7.01456 18.7485 6.83957 18.3939 6.73415C18.1006 6.6446 17.7769 6.61337 17.4228 6.64046L17.3262 5.94249L16.8288 6.01138L16.9261 6.71384C16.6059 6.78499 16.3198 6.89916 16.068 7.05634C15.7453 7.25557 15.503 7.50653 15.3409 7.8092C15.1809 8.11159 15.1262 8.44574 15.1769 8.81167C15.2385 9.25643 15.4355 9.59281 15.7679 9.82081C16.1021 10.0465 16.534 10.1896 17.0637 10.2502L17.4217 10.2913L17.6748 12.1181C17.5296 12.1219 17.3919 12.1093 17.2615 12.0803C17.0637 12.0356 16.8962 11.9496 16.7591 11.8223C16.622 11.695 16.5303 11.5243 16.4842 11.3102L15.3773 11.4635C15.4506 11.8737 15.6062 12.2086 15.8441 12.4682C16.084 12.7276 16.3912 12.9076 16.7657 13.0082C17.077 13.0911 17.4247 13.1169 17.8088 13.0855ZM18.1718 12.0469C18.3087 12.0106 18.4317 11.9616 18.5408 11.9C18.7165 11.7994 18.8477 11.6761 18.9347 11.5302C19.0213 11.3822 19.0533 11.2191 19.0307 11.0409C19.0063 10.8794 18.9403 10.7526 18.8327 10.6604C18.7249 10.5661 18.5822 10.4952 18.4046 10.4477C18.2657 10.4083 18.1098 10.3765 17.937 10.3521L18.1718 12.0469ZM17.2799 9.26792L17.0588 7.67176C16.9359 7.70607 16.8268 7.75154 16.7316 7.80818C16.5736 7.90218 16.4585 8.016 16.3863 8.14962C16.3142 8.28324 16.2879 8.42802 16.3074 8.58397C16.3254 8.71336 16.3702 8.8215 16.442 8.9084C16.5158 8.99502 16.6089 9.06454 16.7212 9.11697C16.8333 9.16738 16.9551 9.20615 17.0866 9.23326C17.151 9.24655 17.2155 9.2581 17.2799 9.26792Z" fill="url(#paint0_linear_443_22844)"/>
<defs>
<linearGradient id="paint0_linear_443_22844" x1="12.5695" y1="0.349149" x2="11.1752" y2="18.2262" gradientUnits="userSpaceOnUse">
<stop stop-color="white"/>
<stop offset="1" stop-color="white" stop-opacity="0.7"/>
</linearGradient>
</defs>
</svg>
