<svg width="21" height="19" viewBox="0 0 21 19" fill="none" xmlns="http://www.w3.org/2000/svg">
<path d="M10.2621 0.771434C10.4714 0.657243 10.7244 0.657243 10.9338 0.771434L19.7561 5.58362C20.394 5.93158 20.1469 6.90076 19.4203 6.90076H1.77557C1.04893 6.90076 0.801789 5.93158 1.43971 5.58362L10.2621 0.771434Z" fill="url(#paint0_linear_50238_2519)"/>
<path d="M3.2333 8.30355C2.84593 8.30355 2.53191 8.61757 2.53191 9.00494V15.3175H1.83052C1.44315 15.3175 1.12913 15.6315 1.12913 16.0189V16.7202H20.0667V16.0189C20.0667 15.6315 19.7527 15.3175 19.3653 15.3175H18.6639V9.00494C18.6639 8.61757 18.3499 8.30355 17.9625 8.30355H15.8584C15.471 8.30355 15.157 8.61757 15.157 9.00494V15.3175H12.3514V9.00494C12.3514 8.61757 12.0374 8.30355 11.65 8.30355H9.54583C9.15846 8.30355 8.84444 8.61757 8.84444 9.00494V15.3175H6.03887V9.00494C6.03887 8.61757 5.72484 8.30355 5.33748 8.30355H3.2333Z" fill="url(#paint1_linear_50238_2519)"/>
<path d="M0.427734 18.123C0.427734 17.7357 0.741758 17.4216 1.12913 17.4216H20.0667C20.4541 17.4216 20.7681 17.7357 20.7681 18.123C20.7681 18.5104 20.4541 18.8244 20.0667 18.8244H1.12913C0.741759 18.8244 0.427734 18.5104 0.427734 18.123Z" fill="url(#paint2_linear_50238_2519)"/>
<defs>
<linearGradient id="paint0_linear_50238_2519" x1="10.5979" y1="0.685791" x2="10.5979" y2="18.8244" gradientUnits="userSpaceOnUse">
<stop stop-color="white"/>
<stop offset="1" stop-color="white" stop-opacity="0.7"/>
</linearGradient>
<linearGradient id="paint1_linear_50238_2519" x1="10.5979" y1="0.685791" x2="10.5979" y2="18.8244" gradientUnits="userSpaceOnUse">
<stop stop-color="white"/>
<stop offset="1" stop-color="white" stop-opacity="0.7"/>
</linearGradient>
<linearGradient id="paint2_linear_50238_2519" x1="10.5979" y1="0.685791" x2="10.5979" y2="18.8244" gradientUnits="userSpaceOnUse">
<stop stop-color="white"/>
<stop offset="1" stop-color="white" stop-opacity="0.7"/>
</linearGradient>
</defs>
</svg>
