<svg width="15" height="17" viewBox="0 0 15 17" fill="none" xmlns="http://www.w3.org/2000/svg">
<path fill-rule="evenodd" clip-rule="evenodd" d="M6.43941 4.57764H10.9957C13.442 4.57764 14.3629 5.80099 14.2206 7.59826C13.9854 10.5654 12.1694 12.207 9.76076 12.207H8.54465C8.21416 12.207 7.99188 12.4231 7.90249 13.0087L7.38618 16.4127C7.35207 16.6334 7.23446 16.7612 7.05804 16.7786H4.19538C3.92605 16.7786 3.83078 16.5753 3.90135 16.135L5.64671 5.22243C5.71492 4.7856 5.9572 4.57764 6.43941 4.57764Z" fill="url(#paint0_linear_50238_2551)"/>
<path fill-rule="evenodd" clip-rule="evenodd" d="M3.58941 0.820068H8.15039C9.4347 0.820068 10.9589 0.860731 11.9775 1.74949C12.6584 2.34316 13.016 3.28768 12.9336 4.3054C12.6537 7.74542 10.5708 9.67281 7.77638 9.67281H5.52765C5.14424 9.67281 4.89137 9.92375 4.78317 10.6022L4.15512 14.5523C4.11396 14.8079 4.00223 14.9589 3.80229 14.9775H0.987844C0.676174 14.9775 0.565618 14.7451 0.64677 14.2316L2.66969 1.57058C2.75084 1.06172 3.03428 0.820068 3.58941 0.820068Z" fill="url(#paint1_linear_50238_2551)"/>
<path fill-rule="evenodd" clip-rule="evenodd" d="M4.84863 10.201L5.64486 5.22041C5.71425 4.78359 5.95653 4.57446 6.43874 4.57446H10.995C11.7489 4.57446 12.3593 4.69064 12.8368 4.90557C12.3793 7.96802 10.374 9.66886 7.74893 9.66886H5.50373C5.20264 9.67002 4.98153 9.81873 4.84863 10.201Z" fill="#F2F2F2"/>
<defs>
<linearGradient id="paint0_linear_50238_2551" x1="9.05682" y1="4.57764" x2="9.05682" y2="16.7786" gradientUnits="userSpaceOnUse">
<stop stop-color="#E9E9E9"/>
<stop offset="1" stop-color="#E9E9E9" stop-opacity="0.6"/>
</linearGradient>
<linearGradient id="paint1_linear_50238_2551" x1="6.7832" y1="0.820068" x2="6.7832" y2="14.9775" gradientUnits="userSpaceOnUse">
<stop stop-color="white"/>
<stop offset="1" stop-color="white" stop-opacity="0.8"/>
</linearGradient>
</defs>
</svg>
