<svg width="265" height="321" viewBox="0 0 265 321" fill="none" xmlns="http://www.w3.org/2000/svg">
<rect width="265" height="321" rx="24" fill="#F5F6FA"/>
<g filter="url(#filter0_d_447_12468)">
<rect x="105.5" y="24" width="54" height="54" rx="16.2551" fill="url(#paint0_linear_447_12468)"/>
</g>
<g clip-path="url(#clip0_447_12468)">
<path fill-rule="evenodd" clip-rule="evenodd" d="M125.727 36.438C126.288 36.438 126.743 36.8928 126.743 37.4539V38.8085L126.743 38.8094C126.743 39.9767 127.207 41.0961 128.033 41.9215C128.858 42.7471 129.978 43.2109 131.146 43.2109C131.707 43.2109 132.162 43.6658 132.162 44.2269C132.162 44.788 131.707 45.2428 131.146 45.2428C129.978 45.2428 128.858 45.7066 128.033 46.5323C127.207 47.3579 126.743 48.4776 126.743 49.6452L126.743 50.9998C126.743 51.5609 126.288 52.0158 125.727 52.0158C125.166 52.0158 124.711 51.5609 124.711 50.9998L124.711 49.6452V49.6443C124.711 48.4771 124.247 47.3577 123.422 46.5323C122.596 45.7066 121.477 45.2428 120.309 45.2428C119.748 45.2428 119.293 44.788 119.293 44.2269C119.293 43.6658 119.748 43.2109 120.309 43.2109C121.477 43.2109 122.596 42.7471 123.422 41.9215C124.248 41.0959 124.711 39.9761 124.711 38.8085V37.4539C124.711 36.8928 125.166 36.438 125.727 36.438ZM125.727 42.2787C125.479 42.6658 125.189 43.0281 124.859 43.3583C124.529 43.6884 124.166 43.979 123.779 44.2269C124.166 44.4748 124.529 44.7654 124.859 45.0955C125.189 45.4256 125.479 45.788 125.727 46.1751C125.975 45.788 126.266 45.4256 126.596 45.0955C126.926 44.7654 127.288 44.4748 127.675 44.2269C127.288 43.979 126.926 43.6884 126.596 43.3583C126.266 43.0281 125.975 42.6658 125.727 42.2787ZM139.612 40.1631V41.5157L139.612 41.5177C139.612 43.0446 139.005 44.5089 137.926 45.5885C136.846 46.6682 135.382 47.2747 133.855 47.2747C133.294 47.2747 132.839 47.7296 132.839 48.2906C132.839 48.8517 133.294 49.3066 133.855 49.3066C135.382 49.3066 136.846 49.9131 137.926 50.9928C139.005 52.0724 139.612 53.5367 139.612 55.0636L139.612 55.0656V56.4182C139.612 56.9793 140.067 57.4341 140.628 57.4341C141.189 57.4341 141.644 56.9793 141.644 56.4182V55.0636C141.644 53.5367 142.25 52.0724 143.33 50.9928C144.41 49.9131 145.874 49.3066 147.401 49.3066C147.962 49.3066 148.417 48.8517 148.417 48.2906C148.417 47.7296 147.962 47.2747 147.401 47.2747C145.874 47.2747 144.41 46.6682 143.33 45.5885C142.25 44.5089 141.644 43.0446 141.644 41.5177V40.1631C141.644 39.602 141.189 39.1472 140.628 39.1472C140.067 39.1472 139.612 39.602 139.612 40.1631ZM140.628 45.364C140.285 45.9669 139.861 46.5264 139.362 47.0253C138.864 47.5241 138.304 47.9483 137.701 48.2906C138.304 48.633 138.864 49.0572 139.362 49.556C139.861 50.0549 140.285 50.6144 140.628 51.2173C140.97 50.6144 141.394 50.0549 141.893 49.556C142.392 49.0572 142.952 48.633 143.554 48.2906C142.952 47.9483 142.392 47.5241 141.893 47.0253C141.394 46.5264 140.97 45.9669 140.628 45.364ZM130.13 63.8684C130.13 62.7008 129.666 61.5811 128.84 60.7555C128.015 59.9298 126.895 59.466 125.727 59.466C125.166 59.466 124.711 59.0112 124.711 58.4501C124.711 57.889 125.166 57.4341 125.727 57.4341C126.895 57.4341 128.015 56.9703 128.84 56.1447C129.666 55.3191 130.13 54.1993 130.13 53.0317V52.3544C130.13 51.7933 130.585 51.3385 131.146 51.3385C131.707 51.3385 132.162 51.7933 132.162 52.3544L132.162 53.0317C132.162 53.0327 132.162 53.0336 132.162 53.0346C132.162 54.2012 132.626 55.3198 133.451 56.1447C134.277 56.9703 135.396 57.4341 136.564 57.4341C137.125 57.4341 137.58 57.889 137.58 58.4501C137.58 59.0112 137.125 59.466 136.564 59.466C135.396 59.466 134.277 59.9298 133.451 60.7555C132.626 61.5804 132.162 62.699 132.162 63.8655C132.162 63.8665 132.162 63.8675 132.162 63.8684L132.162 64.5457C132.162 65.1068 131.707 65.5617 131.146 65.5617C130.585 65.5617 130.13 65.1068 130.13 64.5457V63.8684ZM130.277 57.5815C130.607 57.2513 130.898 56.889 131.146 56.5019C131.394 56.889 131.684 57.2513 132.014 57.5815C132.344 57.9116 132.707 58.2021 133.094 58.4501C132.707 58.698 132.344 58.9886 132.014 59.3187C131.684 59.6488 131.394 60.0112 131.146 60.3983C130.898 60.0112 130.607 59.6488 130.277 59.3187C129.947 58.9886 129.585 58.698 129.197 58.4501C129.585 58.2021 129.947 57.9116 130.277 57.5815Z" fill="url(#paint1_linear_447_12468)"/>
</g>
<path d="M91.2988 113.244C87.1973 113.244 84.6289 110.5 84.6289 105.949C84.6289 101.408 87.2168 98.6641 91.2988 98.6641C94.6875 98.6641 97.2656 100.812 97.4902 103.967H94.6191C94.3457 102.238 93.0176 101.105 91.2988 101.105C89.0723 101.105 87.6367 102.971 87.6367 105.939C87.6367 108.947 89.0527 110.803 91.3086 110.803C93.0566 110.803 94.3164 109.777 94.6289 108.107H97.5C97.168 111.252 94.7559 113.244 91.2988 113.244ZM103.887 113.225C100.723 113.225 98.7012 111.193 98.7012 107.756C98.7012 104.367 100.752 102.307 103.887 102.307C107.021 102.307 109.072 104.357 109.072 107.756C109.072 111.203 107.051 113.225 103.887 113.225ZM103.887 111.047C105.283 111.047 106.172 109.865 106.172 107.766C106.172 105.686 105.273 104.484 103.887 104.484C102.5 104.484 101.592 105.686 101.592 107.766C101.592 109.865 102.48 111.047 103.887 111.047ZM110.547 113V102.531H113.301V104.396H113.359C113.916 103.098 115.02 102.336 116.631 102.336C118.955 102.336 120.264 103.801 120.264 106.252V113H117.412V106.848C117.412 105.48 116.768 104.699 115.488 104.699C114.209 104.699 113.398 105.637 113.398 106.994V113H110.547ZM122.832 100.119H125.684V102.531H127.617V104.68H125.684V109.689C125.684 110.49 126.074 110.871 126.914 110.871C127.168 110.871 127.432 110.852 127.607 110.822V112.922C127.314 112.99 126.826 113.039 126.25 113.039C123.789 113.039 122.832 112.219 122.832 110.178V104.68H121.357V102.531H122.832V100.119ZM133.721 104.416C132.471 104.416 131.572 105.363 131.475 106.672H135.918C135.859 105.334 134.99 104.416 133.721 104.416ZM135.957 109.797H138.574C138.262 111.848 136.387 113.225 133.799 113.225C130.576 113.225 128.643 111.164 128.643 107.814C128.643 104.475 130.596 102.307 133.691 102.307C136.738 102.307 138.662 104.367 138.662 107.551V108.42H131.445V108.596C131.445 110.09 132.393 111.115 133.848 111.115C134.893 111.115 135.693 110.598 135.957 109.797ZM140.137 113V102.531H142.891V104.396H142.949C143.506 103.098 144.609 102.336 146.221 102.336C148.545 102.336 149.854 103.801 149.854 106.252V113H147.002V106.848C147.002 105.48 146.357 104.699 145.078 104.699C143.799 104.699 142.988 105.637 142.988 106.994V113H140.137ZM152.422 100.119H155.273V102.531H157.207V104.68H155.273V109.689C155.273 110.49 155.664 110.871 156.504 110.871C156.758 110.871 157.021 110.852 157.197 110.822V112.922C156.904 112.99 156.416 113.039 155.84 113.039C153.379 113.039 152.422 112.219 152.422 110.178V104.68H150.947V102.531H152.422V100.119ZM165.928 113H162.979V98.9082H165.928V113ZM168.271 98.9082H173.652C177.881 98.9082 180.371 101.428 180.371 105.9C180.371 110.373 177.881 113 173.652 113H168.271V98.9082ZM171.221 101.34V110.559H173.301C175.938 110.559 177.363 108.957 177.363 105.91C177.363 102.961 175.898 101.34 173.301 101.34H171.221Z" fill="#202427"/>
<rect x="67" y="130" width="131" height="12" rx="2" fill="#E6E8F2"/>
<rect x="33.5" y="148" width="198" height="12" rx="2" fill="#E6E8F2"/>
<rect x="47.5" y="166" width="170" height="12" rx="2" fill="#E6E8F2"/>
<rect x="88" y="184" width="89" height="12" rx="2" fill="#E6E8F2"/>
<rect x="16" y="262" width="233" height="43" rx="12" fill="#4039FF"/>
<path d="M56.6797 289H54.6719V279.438H49.3281V289H47.3047V277.727H56.6797V289ZM62.2891 289.164C59.8594 289.164 58.2812 287.547 58.2812 284.859C58.2812 282.188 59.875 280.547 62.2891 280.547C64.7031 280.547 66.2969 282.18 66.2969 284.859C66.2969 287.547 64.7188 289.164 62.2891 289.164ZM62.2891 287.625C63.5234 287.625 64.3203 286.625 64.3203 284.859C64.3203 283.102 63.5234 282.094 62.2891 282.094C61.0625 282.094 60.2578 283.102 60.2578 284.859C60.2578 286.625 61.0547 287.625 62.2891 287.625ZM73.0781 287.5V282.211H70.375L70.1641 285.141C70.1016 286.078 69.9141 286.891 69.5312 287.438V287.5H73.0781ZM68.6172 291.164H66.8359V287.5H67.4922C68.1016 287.141 68.3516 286.156 68.4297 285.039L68.7188 280.719H75.0156V287.5H76.2734V291.164H74.4922V289H68.6172V291.164ZM81.1562 284.586L84.8281 289H82.4453L79.3672 285.297H79.3047V289H77.3672V280.719H79.3047V284.172H79.3672L82.3984 280.719H84.6641L81.1562 284.586ZM88.4922 285.141C88.3359 287.539 87.7109 289.086 85.7656 289.086C85.4609 289.086 85.2344 289.031 85.1328 288.992V287.32C85.2109 287.344 85.375 287.383 85.5938 287.383C86.3984 287.383 86.6641 286.414 86.7422 285.039L87.0078 280.719H92.9844V289H91.0469V282.219H88.6875L88.4922 285.141ZM101.883 289.164C99.6406 289.164 98.1875 287.805 97.9609 285.484H96.6641V289H94.7266V280.719H96.6641V283.984H97.9922C98.2969 281.828 99.7344 280.547 101.883 280.547C104.32 280.547 105.844 282.164 105.844 284.859C105.844 287.562 104.336 289.164 101.883 289.164ZM101.875 287.586C103.125 287.586 103.852 286.602 103.852 284.859C103.852 283.125 103.125 282.125 101.875 282.125C100.633 282.125 99.9062 283.125 99.9062 284.859C99.9062 286.602 100.625 287.586 101.875 287.586ZM114.156 289H112.219V285.508H112.125C111.672 285.961 110.969 286.266 110.039 286.266C108.117 286.266 107.008 285.078 107.008 283.242V280.719H108.938V283.023C108.938 284.023 109.492 284.641 110.477 284.641C111.328 284.641 111.906 284.312 112.219 283.922V280.719H114.156V289ZM117.805 289H115.898V280.719H117.805V286.25H117.867L121.469 280.719H123.375V289H121.469V283.43H121.406L117.805 289ZM131.602 280.719V282.219H129.055V289H127.125V282.219H124.578V280.719H131.602ZM136.094 284.68H134.742V287.508H136.094C137 287.508 137.586 286.938 137.586 286.094C137.586 285.242 136.992 284.68 136.094 284.68ZM132.805 289V280.719H134.742V283.203H136.344C138.273 283.203 139.516 284.328 139.516 286.102C139.516 287.875 138.273 289 136.344 289H132.805ZM149.055 289.188C145.836 289.188 143.812 286.977 143.812 283.359C143.812 279.766 145.852 277.539 149.055 277.539C151.672 277.539 153.664 279.172 153.914 281.594H151.93C151.664 280.18 150.516 279.25 149.055 279.25C147.117 279.25 145.875 280.844 145.875 283.359C145.875 285.891 147.109 287.477 149.062 287.477C150.555 287.477 151.625 286.672 151.938 285.312H153.914C153.562 287.727 151.719 289.188 149.055 289.188ZM158.914 289.164C156.484 289.164 154.906 287.547 154.906 284.859C154.906 282.188 156.5 280.547 158.914 280.547C161.328 280.547 162.922 282.18 162.922 284.859C162.922 287.547 161.344 289.164 158.914 289.164ZM158.914 287.625C160.148 287.625 160.945 286.625 160.945 284.859C160.945 283.102 160.148 282.094 158.914 282.094C157.688 282.094 156.883 283.102 156.883 284.859C156.883 286.625 157.68 287.625 158.914 287.625ZM164.172 289V280.719H166.039V282.141H166.078C166.523 281.156 167.406 280.562 168.68 280.562C170.508 280.562 171.547 281.734 171.547 283.648V289H169.602V284.039C169.602 282.867 169.055 282.211 167.945 282.211C166.828 282.211 166.117 283.016 166.117 284.203V289H164.172ZM173.648 278.781H175.594V280.719H177.156V282.219H175.594V286.523C175.594 287.203 175.906 287.516 176.594 287.516C176.773 287.516 177.023 287.5 177.148 287.477V288.961C176.938 289.008 176.555 289.039 176.141 289.039C174.352 289.039 173.648 288.406 173.648 286.797V282.219H172.461V280.719H173.648V278.781ZM181.898 282.055C180.805 282.055 180.016 282.891 179.938 284.047H183.805C183.766 282.875 183.016 282.055 181.898 282.055ZM183.812 286.523H185.633C185.383 288.086 183.93 289.164 181.969 289.164C179.484 289.164 177.984 287.531 177.984 284.891C177.984 282.273 179.5 280.547 181.891 280.547C184.242 280.547 185.711 282.18 185.711 284.695V285.328H179.922V285.445C179.922 286.773 180.734 287.664 182.008 287.664C182.914 287.664 183.602 287.211 183.812 286.523ZM186.969 289V280.719H188.836V282.141H188.875C189.32 281.156 190.203 280.562 191.477 280.562C193.305 280.562 194.344 281.734 194.344 283.648V289H192.398V284.039C192.398 282.867 191.852 282.211 190.742 282.211C189.625 282.211 188.914 283.016 188.914 284.203V289H186.969ZM196.445 278.781H198.391V280.719H199.953V282.219H198.391V286.523C198.391 287.203 198.703 287.516 199.391 287.516C199.57 287.516 199.82 287.5 199.945 287.477V288.961C199.734 289.008 199.352 289.039 198.938 289.039C197.148 289.039 196.445 288.406 196.445 286.797V282.219H195.258V280.719H196.445V278.781ZM206.695 289H204.68V277.727H206.695V289ZM208.68 277.727H212.797C216.164 277.727 218.156 279.766 218.156 283.336C218.156 286.906 216.172 289 212.797 289H208.68V277.727ZM210.695 279.43V287.297H212.586C214.852 287.297 216.102 285.914 216.102 283.344C216.102 280.82 214.836 279.43 212.586 279.43H210.695Z" fill="white"/>
<defs>
<filter id="filter0_d_447_12468" x="78.8702" y="13.3481" width="107.26" height="107.26" filterUnits="userSpaceOnUse" color-interpolation-filters="sRGB">
<feFlood flood-opacity="0" result="BackgroundImageFix"/>
<feColorMatrix in="SourceAlpha" type="matrix" values="0 0 0 0 0 0 0 0 0 0 0 0 0 0 0 0 0 0 127 0" result="hardAlpha"/>
<feOffset dy="15.9779"/>
<feGaussianBlur stdDeviation="13.3149"/>
<feColorMatrix type="matrix" values="0 0 0 0 0.945098 0 0 0 0 0.568627 0 0 0 0 0.884863 0 0 0 0.2 0"/>
<feBlend mode="normal" in2="BackgroundImageFix" result="effect1_dropShadow_447_12468"/>
<feBlend mode="normal" in="SourceGraphic" in2="effect1_dropShadow_447_12468" result="shape"/>
</filter>
<linearGradient id="paint0_linear_447_12468" x1="105.573" y1="24" x2="159.434" y2="78.0821" gradientUnits="userSpaceOnUse">
<stop stop-color="#FA7ABF"/>
<stop offset="1" stop-color="#D456D7"/>
</linearGradient>
<linearGradient id="paint1_linear_447_12468" x1="133.855" y1="36.438" x2="133.855" y2="65.5617" gradientUnits="userSpaceOnUse">
<stop stop-color="white"/>
<stop offset="1" stop-color="white" stop-opacity="0.6"/>
</linearGradient>
<clipPath id="clip0_447_12468">
<rect width="32.5102" height="32.5102" fill="white" transform="translate(117.6 34.7446)"/>
</clipPath>
</defs>
</svg>
