<svg width="265" height="321" viewBox="0 0 265 321" fill="none" xmlns="http://www.w3.org/2000/svg">
<rect width="265" height="321" rx="24" fill="#F5F6FA"/>
<g filter="url(#filter0_d_447_12508)">
<rect x="105.5" y="24" width="54" height="54" rx="16.2551" fill="url(#paint0_linear_447_12508)"/>
</g>
<path d="M138.581 39.6512L135.441 42.7912C134.762 43.4698 134.381 44.391 134.381 45.35C134.381 47.348 136.002 48.9681 138 48.9681H143.337C143.337 42.5948 138.196 37.4541 131.823 37.4541C125.449 37.4541 120.309 42.5948 120.309 48.9681C120.309 55.3415 125.449 60.4821 131.823 60.4821M123.774 57.204L126.047 53.7945C126.458 53.1768 127.151 52.8057 127.893 52.8057C128.734 52.8057 129.501 52.3316 129.877 51.5784L130.048 51.2384C130.36 50.6139 130.36 49.8784 130.048 49.2539L128.599 46.3565C128.222 45.6047 127.454 45.1306 126.613 45.1306H120.974M138.501 58.5261L138.047 56.8369C137.874 56.1935 138.257 55.5325 138.9 55.3618L144.946 53.7512C145.587 53.5805 146.246 53.9611 146.418 54.6019L147.358 58.0913C147.532 58.7334 147.15 59.3957 146.508 59.5678L145.233 59.9078M137.768 64.5459H144.029C144.694 64.5459 145.233 64.0068 145.233 63.3417V59.729C145.233 59.0639 144.694 58.5247 144.029 58.5247H137.768C137.103 58.5247 136.564 59.0639 136.564 59.729V63.3417C136.564 64.0068 137.103 64.5459 137.768 64.5459Z" stroke="url(#paint1_linear_447_12508)" stroke-width="2.03188" stroke-linecap="round" stroke-linejoin="round"/>
<path d="M81.3965 113H78.4473V101.34H74.3359L73.9941 107.434C73.7988 111.076 72.6367 113.127 69.8242 113.127C69.3457 113.127 68.9551 113.059 68.7598 112.99V110.412C68.8965 110.441 69.1602 110.49 69.4141 110.49C70.7227 110.49 71.1719 109.357 71.2793 107.238L71.6992 98.9082H81.3965V113ZM88.5059 113.225C85.3418 113.225 83.3203 111.193 83.3203 107.756C83.3203 104.367 85.3711 102.307 88.5059 102.307C91.6406 102.307 93.6914 104.357 93.6914 107.756C93.6914 111.203 91.6699 113.225 88.5059 113.225ZM88.5059 111.047C89.9023 111.047 90.791 109.865 90.791 107.766C90.791 105.686 89.8926 104.484 88.5059 104.484C87.1191 104.484 86.2109 105.686 86.2109 107.766C86.2109 109.865 87.0996 111.047 88.5059 111.047ZM100.82 107.375L105.244 113H101.797L98.2617 108.508H98.1836V113H95.3418V102.531H98.1836V106.74H98.2617L101.738 102.531H105L100.82 107.375ZM110.264 111.105C111.504 111.105 112.529 110.295 112.529 109.162V108.4L110.322 108.537C109.258 108.615 108.652 109.094 108.652 109.836C108.652 110.617 109.297 111.105 110.264 111.105ZM109.326 113.166C107.334 113.166 105.82 111.877 105.82 109.992C105.82 108.088 107.285 106.984 109.893 106.828L112.529 106.672V105.979C112.529 105.002 111.846 104.436 110.771 104.436C109.707 104.436 109.033 104.963 108.896 105.734H106.289C106.396 103.703 108.125 102.307 110.898 102.307C113.584 102.307 115.332 103.693 115.332 105.803V113H112.578V111.398H112.52C111.934 112.512 110.635 113.166 109.326 113.166ZM121.172 107.98C120.986 111.086 120.137 113.127 117.549 113.127C117.109 113.127 116.787 113.049 116.641 112.99V110.588C116.758 110.617 116.973 110.656 117.256 110.656C118.252 110.656 118.555 109.445 118.643 107.795L118.936 102.531H126.875V113H124.033V104.68H121.377L121.172 107.98ZM131.729 113H128.936V102.531H131.729V109.074H131.807L135.967 102.531H138.76V113H135.967V106.379H135.889L131.729 113ZM145.049 113.225C142.334 113.225 140.557 111.896 140.361 109.68H143.076C143.32 110.568 143.994 111.018 145.049 111.018C146.182 111.018 146.807 110.52 146.807 109.758C146.807 108.938 146.221 108.557 145.059 108.557H143.613V106.701H144.98C145.986 106.701 146.504 106.34 146.504 105.598C146.504 104.914 146.006 104.455 145 104.455C144.004 104.455 143.369 104.895 143.242 105.686H140.557C140.762 103.586 142.422 102.307 144.98 102.307C147.773 102.307 149.277 103.42 149.277 105.285C149.277 106.33 148.682 107.18 147.705 107.453V107.531C148.975 107.863 149.648 108.703 149.648 109.865C149.648 111.926 147.891 113.225 145.049 113.225ZM155.42 111.105C156.66 111.105 157.686 110.295 157.686 109.162V108.4L155.479 108.537C154.414 108.615 153.809 109.094 153.809 109.836C153.809 110.617 154.453 111.105 155.42 111.105ZM154.482 113.166C152.49 113.166 150.977 111.877 150.977 109.992C150.977 108.088 152.441 106.984 155.049 106.828L157.686 106.672V105.979C157.686 105.002 157.002 104.436 155.928 104.436C154.863 104.436 154.189 104.963 154.053 105.734H151.445C151.553 103.703 153.281 102.307 156.055 102.307C158.74 102.307 160.488 103.693 160.488 105.803V113H157.734V111.398H157.676C157.09 112.512 155.791 113.166 154.482 113.166ZM173.652 115.715H171.055V113H162.51V102.531H165.352V110.842H169.229V102.531H172.07V110.842H173.652V115.715ZM177.725 113H174.932V102.531H177.725V109.074H177.803L181.963 102.531H184.756V113H181.963V106.379H181.885L177.725 113ZM191.152 107.619H192.861V104.65H191.152C190.146 104.65 189.512 105.246 189.512 106.174C189.512 107.014 190.156 107.619 191.152 107.619ZM192.861 113V109.621H191.719L189.395 113H186.23L188.984 109.191C187.559 108.742 186.68 107.668 186.68 106.164C186.68 103.938 188.33 102.531 190.869 102.531H195.645V113H192.861Z" fill="#202427"/>
<rect x="51" y="130" width="163" height="12" rx="2" fill="#E6E8F2"/>
<rect x="23.5" y="148" width="218" height="12" rx="2" fill="#E6E8F2"/>
<rect x="72" y="166" width="121" height="12" rx="2" fill="#E6E8F2"/>
<rect x="16" y="262" width="233" height="43" rx="12" fill="#4039FF"/>
<path d="M49.7422 284.055V282.43H51.2422C52.4688 282.43 53.3047 281.727 53.3047 280.711C53.3047 279.695 52.5391 279.07 51.3047 279.07C50.0547 279.07 49.2344 279.727 49.1484 280.789H47.2656C47.3672 278.734 48.9375 277.445 51.3594 277.445C53.6641 277.445 55.2578 278.695 55.2578 280.484C55.2578 281.75 54.3984 282.797 53.1484 283.078V283.141C54.6641 283.32 55.6094 284.398 55.6094 285.914C55.6094 287.844 53.7812 289.281 51.3203 289.281C48.8125 289.281 47.0938 287.938 46.9922 285.891H48.9297C49.0156 286.945 49.9531 287.609 51.3281 287.609C52.6484 287.609 53.5391 286.875 53.5391 285.797C53.5391 284.703 52.6953 284.055 51.2812 284.055H49.7422ZM60.0859 287.664C61.1875 287.664 62.0703 286.93 62.0703 285.93V285.297L60.1562 285.414C59.2188 285.477 58.6797 285.898 58.6797 286.555C58.6797 287.234 59.2422 287.664 60.0859 287.664ZM59.5 289.133C57.8984 289.133 56.7344 288.125 56.7344 286.633C56.7344 285.164 57.8672 284.281 59.8828 284.156L62.0703 284.031V283.438C62.0703 282.57 61.4844 282.07 60.5234 282.07C59.6016 282.07 59.0156 282.516 58.8906 283.203H57.0859C57.1719 281.656 58.4922 280.547 60.6016 280.547C62.6562 280.547 63.9922 281.633 63.9922 283.297V289H62.1172V287.68H62.0781C61.6016 288.578 60.5625 289.133 59.5 289.133ZM69.4844 284.586L73.1562 289H70.7734L67.6953 285.297H67.6328V289H65.6953V280.719H67.6328V284.172H67.6953L70.7266 280.719H72.9922L69.4844 284.586ZM77.0234 287.664C78.125 287.664 79.0078 286.93 79.0078 285.93V285.297L77.0938 285.414C76.1562 285.477 75.6172 285.898 75.6172 286.555C75.6172 287.234 76.1797 287.664 77.0234 287.664ZM76.4375 289.133C74.8359 289.133 73.6719 288.125 73.6719 286.633C73.6719 285.164 74.8047 284.281 76.8203 284.156L79.0078 284.031V283.438C79.0078 282.57 78.4219 282.07 77.4609 282.07C76.5391 282.07 75.9531 282.516 75.8281 283.203H74.0234C74.1094 281.656 75.4297 280.547 77.5391 280.547C79.5938 280.547 80.9297 281.633 80.9297 283.297V289H79.0547V287.68H79.0156C78.5391 288.578 77.5 289.133 76.4375 289.133ZM85.7812 289.164C83.7422 289.164 82.375 288.172 82.2188 286.539H84.1094C84.2812 287.25 84.875 287.633 85.7812 287.633C86.7812 287.633 87.3438 287.172 87.3438 286.5C87.3438 285.75 86.8203 285.406 85.7812 285.406H84.6016V284.062H85.7422C86.625 284.062 87.0859 283.734 87.0859 283.062C87.0859 282.469 86.6562 282.055 85.7578 282.055C84.9062 282.055 84.3438 282.43 84.2344 283.07H82.3906C82.5547 281.508 83.8203 280.547 85.7578 280.547C87.8438 280.547 88.9844 281.445 88.9844 282.867C88.9844 283.703 88.4844 284.398 87.6875 284.609V284.672C88.7266 284.922 89.2734 285.602 89.2734 286.531C89.2734 288.133 87.9141 289.164 85.7812 289.164ZM93.7422 287.664C94.8438 287.664 95.7266 286.93 95.7266 285.93V285.297L93.8125 285.414C92.875 285.477 92.3359 285.898 92.3359 286.555C92.3359 287.234 92.8984 287.664 93.7422 287.664ZM93.1562 289.133C91.5547 289.133 90.3906 288.125 90.3906 286.633C90.3906 285.164 91.5234 284.281 93.5391 284.156L95.7266 284.031V283.438C95.7266 282.57 95.1406 282.07 94.1797 282.07C93.2578 282.07 92.6719 282.516 92.5469 283.203H90.7422C90.8281 281.656 92.1484 280.547 94.2578 280.547C96.3125 280.547 97.6484 281.633 97.6484 283.297V289H95.7734V287.68H95.7344C95.2578 288.578 94.2188 289.133 93.1562 289.133ZM105.727 280.719V282.219H103.18V289H101.25V282.219H98.7031V280.719H105.727ZM110.219 284.68H108.867V287.508H110.219C111.125 287.508 111.711 286.938 111.711 286.094C111.711 285.242 111.117 284.68 110.219 284.68ZM106.93 289V280.719H108.867V283.203H110.469C112.398 283.203 113.641 284.328 113.641 286.102C113.641 287.875 112.398 289 110.469 289H106.93ZM120.93 285.141C120.773 287.539 120.148 289.086 118.203 289.086C117.898 289.086 117.672 289.031 117.57 288.992V287.32C117.648 287.344 117.812 287.383 118.031 287.383C118.836 287.383 119.102 286.414 119.18 285.039L119.445 280.719H125.422V289H123.484V282.219H121.125L120.93 285.141ZM130.836 289.164C128.406 289.164 126.828 287.547 126.828 284.859C126.828 282.188 128.422 280.547 130.836 280.547C133.25 280.547 134.844 282.18 134.844 284.859C134.844 287.547 133.266 289.164 130.836 289.164ZM130.836 287.625C132.07 287.625 132.867 286.625 132.867 284.859C132.867 283.102 132.07 282.094 130.836 282.094C129.609 282.094 128.805 283.102 128.805 284.859C128.805 286.625 129.602 287.625 130.836 287.625ZM140.031 284.586L143.703 289H141.32L138.242 285.297H138.18V289H136.242V280.719H138.18V284.172H138.242L141.273 280.719H143.539L140.031 284.586ZM147.57 287.664C148.672 287.664 149.555 286.93 149.555 285.93V285.297L147.641 285.414C146.703 285.477 146.164 285.898 146.164 286.555C146.164 287.234 146.727 287.664 147.57 287.664ZM146.984 289.133C145.383 289.133 144.219 288.125 144.219 286.633C144.219 285.164 145.352 284.281 147.367 284.156L149.555 284.031V283.438C149.555 282.57 148.969 282.07 148.008 282.07C147.086 282.07 146.5 282.516 146.375 283.203H144.57C144.656 281.656 145.977 280.547 148.086 280.547C150.141 280.547 151.477 281.633 151.477 283.297V289H149.602V287.68H149.562C149.086 288.578 148.047 289.133 146.984 289.133ZM155.914 285.141C155.758 287.539 155.133 289.086 153.188 289.086C152.883 289.086 152.656 289.031 152.555 288.992V287.32C152.633 287.344 152.797 287.383 153.016 287.383C153.82 287.383 154.086 286.414 154.164 285.039L154.43 280.719H160.406V289H158.469V282.219H156.109L155.914 285.141ZM164.055 289H162.148V280.719H164.055V286.25H164.117L167.719 280.719H169.625V289H167.719V283.43H167.656L164.055 289ZM174.516 289.164C172.477 289.164 171.109 288.172 170.953 286.539H172.844C173.016 287.25 173.609 287.633 174.516 287.633C175.516 287.633 176.078 287.172 176.078 286.5C176.078 285.75 175.555 285.406 174.516 285.406H173.336V284.062H174.477C175.359 284.062 175.82 283.734 175.82 283.062C175.82 282.469 175.391 282.055 174.492 282.055C173.641 282.055 173.078 282.43 172.969 283.07H171.125C171.289 281.508 172.555 280.547 174.492 280.547C176.578 280.547 177.719 281.445 177.719 282.867C177.719 283.703 177.219 284.398 176.422 284.609V284.672C177.461 284.922 178.008 285.602 178.008 286.531C178.008 288.133 176.648 289.164 174.516 289.164ZM182.477 287.664C183.578 287.664 184.461 286.93 184.461 285.93V285.297L182.547 285.414C181.609 285.477 181.07 285.898 181.07 286.555C181.07 287.234 181.633 287.664 182.477 287.664ZM181.891 289.133C180.289 289.133 179.125 288.125 179.125 286.633C179.125 285.164 180.258 284.281 182.273 284.156L184.461 284.031V283.438C184.461 282.57 183.875 282.07 182.914 282.07C181.992 282.07 181.406 282.516 181.281 283.203H179.477C179.562 281.656 180.883 280.547 182.992 280.547C185.047 280.547 186.383 281.633 186.383 283.297V289H184.508V287.68H184.469C183.992 288.578 182.953 289.133 181.891 289.133ZM196.609 291.164H194.828V289H188.086V280.719H190.023V287.5H193.398V280.719H195.336V287.5H196.609V291.164ZM199.617 289H197.711V280.719H199.617V286.25H199.68L203.281 280.719H205.188V289H203.281V283.43H203.219L199.617 289ZM214.086 289.164C211.844 289.164 210.391 287.805 210.164 285.484H208.867V289H206.93V280.719H208.867V283.984H210.195C210.5 281.828 211.938 280.547 214.086 280.547C216.523 280.547 218.047 282.164 218.047 284.859C218.047 287.562 216.539 289.164 214.086 289.164ZM214.078 287.586C215.328 287.586 216.055 286.602 216.055 284.859C216.055 283.125 215.328 282.125 214.078 282.125C212.836 282.125 212.109 283.125 212.109 284.859C212.109 286.602 212.828 287.586 214.078 287.586Z" fill="white"/>
<defs>
<filter id="filter0_d_447_12508" x="64.8623" y="7.74492" width="135.275" height="135.275" filterUnits="userSpaceOnUse" color-interpolation-filters="sRGB">
<feFlood flood-opacity="0" result="BackgroundImageFix"/>
<feColorMatrix in="SourceAlpha" type="matrix" values="0 0 0 0 0 0 0 0 0 0 0 0 0 0 0 0 0 0 127 0" result="hardAlpha"/>
<feOffset dy="24.3826"/>
<feGaussianBlur stdDeviation="20.3188"/>
<feColorMatrix type="matrix" values="0 0 0 0 1 0 0 0 0 0.642667 0 0 0 0 0.441667 0 0 0 0.2 0"/>
<feBlend mode="normal" in2="BackgroundImageFix" result="effect1_dropShadow_447_12508"/>
<feBlend mode="normal" in="SourceGraphic" in2="effect1_dropShadow_447_12508" result="shape"/>
</filter>
<linearGradient id="paint0_linear_447_12508" x1="105.573" y1="24" x2="159.434" y2="78.0821" gradientUnits="userSpaceOnUse">
<stop stop-color="#FFE25E"/>
<stop offset="1" stop-color="#FEB23E"/>
</linearGradient>
<linearGradient id="paint1_linear_447_12508" x1="133.854" y1="37.4541" x2="133.854" y2="64.5459" gradientUnits="userSpaceOnUse">
<stop stop-color="white"/>
<stop offset="1" stop-color="white" stop-opacity="0.6"/>
</linearGradient>
</defs>
</svg>
