<svg width="265" height="321" viewBox="0 0 265 321" fill="none" xmlns="http://www.w3.org/2000/svg">
<rect width="265" height="321" rx="24" fill="#F5F6FA"/>
<g filter="url(#filter0_d_447_12495)">
<rect x="105.5" y="24" width="54" height="54" rx="16.2" fill="url(#paint0_linear_447_12495)"/>
</g>
<path d="M133.753 55.3267L140.503 61.7646C141.62 62.8308 143.435 62.8308 144.553 61.7646C145.67 60.6985 145.67 58.968 144.553 57.9019L137.803 51.464M127.009 45.0261L131.734 49.5326M146.012 43.5415C146.044 43.5711 146.069 43.6098 146.081 43.651C146.715 45.6686 146.224 47.9386 144.553 49.5326C142.864 51.1434 140.451 51.6043 138.32 50.9708L127.051 61.7183C125.954 62.7651 124.164 62.8436 123.028 61.8342C121.835 60.7745 121.81 58.9925 122.953 57.9019L134.27 47.1081C133.605 45.075 134.089 42.7741 135.778 41.1634C137.449 39.5693 139.829 39.1006 141.944 39.7058C141.988 39.7187 142.028 39.7406 142.059 39.7715L142.278 39.9801C142.383 40.0805 142.383 40.244 142.278 40.3445L138.721 43.7385L141.853 46.7257L145.411 43.3316C145.516 43.2312 145.688 43.2312 145.793 43.3316L146.012 43.5415ZM121.735 41.5406L122.645 44.1454C122.828 44.672 123.344 45.0261 123.926 45.0261H127.003V42.0917C127.003 41.538 126.631 41.0449 126.079 40.8698L123.348 40.002C123.105 39.9247 122.838 39.9852 122.657 40.1578L121.898 40.8814C121.717 41.0539 121.654 41.3088 121.735 41.5406Z" stroke="url(#paint1_linear_447_12495)" stroke-width="2.025" stroke-linecap="round" stroke-linejoin="round"/>
<path d="M48.4863 113H45.5371V107.062H39.1895V113H36.2402V98.9082H39.1895V104.631H45.5371V98.9082H48.4863V113ZM54.8242 111.105C56.0645 111.105 57.0898 110.295 57.0898 109.162V108.4L54.8828 108.537C53.8184 108.615 53.2129 109.094 53.2129 109.836C53.2129 110.617 53.8574 111.105 54.8242 111.105ZM53.8867 113.166C51.8945 113.166 50.3809 111.877 50.3809 109.992C50.3809 108.088 51.8457 106.984 54.4531 106.828L57.0898 106.672V105.979C57.0898 105.002 56.4062 104.436 55.332 104.436C54.2676 104.436 53.5938 104.963 53.457 105.734H50.8496C50.957 103.703 52.6855 102.307 55.459 102.307C58.1445 102.307 59.8926 103.693 59.8926 105.803V113H57.1387V111.398H57.0801C56.4941 112.512 55.1953 113.166 53.8867 113.166ZM71.3379 106.105H68.6719C68.4375 105.197 67.7539 104.543 66.6699 104.543C65.2637 104.543 64.3945 105.754 64.3945 107.756C64.3945 109.797 65.2637 110.988 66.6797 110.988C67.7441 110.988 68.4473 110.412 68.6914 109.426H71.3477C71.0938 111.74 69.3066 113.225 66.6504 113.225C63.5059 113.225 61.5234 111.154 61.5234 107.756C61.5234 104.416 63.5059 102.307 66.6309 102.307C69.3262 102.307 71.0645 103.908 71.3379 106.105ZM81.1621 102.531V104.68H78.0469V113H75.2051V104.68H72.0801V102.531H81.1621ZM88.7305 102.365C91.3867 102.365 93.0176 104.387 93.0176 107.766C93.0176 111.135 91.3965 113.166 88.7793 113.166C87.2559 113.166 86.084 112.424 85.5273 111.242H85.4688V116.418H82.6172V102.531H85.4297V104.357H85.4883C86.0547 103.127 87.2168 102.365 88.7305 102.365ZM87.7734 110.871C89.1992 110.871 90.0977 109.67 90.0977 107.766C90.0977 105.871 89.1992 104.65 87.7734 104.65C86.377 104.65 85.459 105.891 85.459 107.766C85.459 109.66 86.377 110.871 87.7734 110.871ZM99.5117 113.225C96.3477 113.225 94.3262 111.193 94.3262 107.756C94.3262 104.367 96.377 102.307 99.5117 102.307C102.646 102.307 104.697 104.357 104.697 107.756C104.697 111.203 102.676 113.225 99.5117 113.225ZM99.5117 111.047C100.908 111.047 101.797 109.865 101.797 107.766C101.797 105.686 100.898 104.484 99.5117 104.484C98.125 104.484 97.2168 105.686 97.2168 107.766C97.2168 109.865 98.1055 111.047 99.5117 111.047ZM109.141 113H106.348V102.531H109.141V109.074H109.219L113.379 102.531H116.172V113H113.379V106.379H113.301L109.141 113ZM107.91 97.7949H109.648C109.668 98.8398 110.322 99.5918 111.348 99.5918C112.363 99.5918 113.018 98.8398 113.037 97.7949H114.785C114.785 99.7188 113.398 101.008 111.348 101.008C109.287 101.008 107.91 99.7188 107.91 97.7949ZM123.701 107.375L128.125 113H124.678L121.143 108.508H121.064V113H118.223V102.531H121.064V106.74H121.143L124.619 102.531H127.881L123.701 107.375ZM133.145 111.105C134.385 111.105 135.41 110.295 135.41 109.162V108.4L133.203 108.537C132.139 108.615 131.533 109.094 131.533 109.836C131.533 110.617 132.178 111.105 133.145 111.105ZM132.207 113.166C130.215 113.166 128.701 111.877 128.701 109.992C128.701 108.088 130.166 106.984 132.773 106.828L135.41 106.672V105.979C135.41 105.002 134.727 104.436 133.652 104.436C132.588 104.436 131.914 104.963 131.777 105.734H129.17C129.277 103.703 131.006 102.307 133.779 102.307C136.465 102.307 138.213 103.693 138.213 105.803V113H135.459V111.398H135.4C134.814 112.512 133.516 113.166 132.207 113.166ZM150.312 102.365C152.969 102.365 154.6 104.387 154.6 107.766C154.6 111.135 152.979 113.166 150.361 113.166C148.838 113.166 147.666 112.424 147.109 111.242H147.051V116.418H144.199V102.531H147.012V104.357H147.07C147.637 103.127 148.799 102.365 150.312 102.365ZM149.355 110.871C150.781 110.871 151.68 109.67 151.68 107.766C151.68 105.871 150.781 104.65 149.355 104.65C147.959 104.65 147.041 105.891 147.041 107.766C147.041 109.66 147.959 110.871 149.355 110.871ZM160.986 104.416C159.736 104.416 158.838 105.363 158.74 106.672H163.184C163.125 105.334 162.256 104.416 160.986 104.416ZM163.223 109.797H165.84C165.527 111.848 163.652 113.225 161.064 113.225C157.842 113.225 155.908 111.164 155.908 107.814C155.908 104.475 157.861 102.307 160.957 102.307C164.004 102.307 165.928 104.367 165.928 107.551V108.42H158.711V108.596C158.711 110.09 159.658 111.115 161.113 111.115C162.158 111.115 162.959 110.598 163.223 109.797ZM173.057 107.375L177.48 113H174.033L170.498 108.508H170.42V113H167.578V102.531H170.42V106.74H170.498L173.975 102.531H177.236L173.057 107.375ZM182.373 107.98C182.188 111.086 181.338 113.127 178.75 113.127C178.311 113.127 177.988 113.049 177.842 112.99V110.588C177.959 110.617 178.174 110.656 178.457 110.656C179.453 110.656 179.756 109.445 179.844 107.795L180.137 102.531H188.076V113H185.234V104.68H182.578L182.373 107.98ZM194.18 111.105C195.42 111.105 196.445 110.295 196.445 109.162V108.4L194.238 108.537C193.174 108.615 192.568 109.094 192.568 109.836C192.568 110.617 193.213 111.105 194.18 111.105ZM193.242 113.166C191.25 113.166 189.736 111.877 189.736 109.992C189.736 108.088 191.201 106.984 193.809 106.828L196.445 106.672V105.979C196.445 105.002 195.762 104.436 194.688 104.436C193.623 104.436 192.949 104.963 192.812 105.734H190.205C190.312 103.703 192.041 102.307 194.814 102.307C197.5 102.307 199.248 103.693 199.248 105.803V113H196.494V111.398H196.436C195.85 112.512 194.551 113.166 193.242 113.166ZM203.945 113H201.27V102.531H204.961L207.695 109.367H207.764L210.498 102.531H214.15V113H211.475V105.998H211.406L208.691 112.414H206.719L204.014 105.998H203.945V113ZM226.172 113V102.531H229.014V113H226.172ZM220.625 107.658H219.053V110.871H220.625C221.66 110.871 222.324 110.217 222.324 109.26C222.324 108.303 221.65 107.658 220.625 107.658ZM216.211 113V102.531H219.053V105.559H221.094C223.564 105.559 225.146 107.004 225.146 109.279C225.146 111.555 223.564 113 221.094 113H216.211Z" fill="#202427"/>
<rect x="33.5" y="130" width="198" height="12" rx="2" fill="#E6E8F2"/>
<rect x="21" y="148" width="223" height="12" rx="2" fill="#E6E8F2"/>
<rect x="42" y="166" width="181" height="12" rx="2" fill="#E6E8F2"/>
<rect x="38" y="184" width="189" height="12" rx="2" fill="#E6E8F2"/>
<rect x="16" y="262" width="233" height="43" rx="12" fill="#4039FF"/>
<path d="M68.2109 284.055V282.43H69.7109C70.9375 282.43 71.7734 281.727 71.7734 280.711C71.7734 279.695 71.0078 279.07 69.7734 279.07C68.5234 279.07 67.7031 279.727 67.6172 280.789H65.7344C65.8359 278.734 67.4062 277.445 69.8281 277.445C72.1328 277.445 73.7266 278.695 73.7266 280.484C73.7266 281.75 72.8672 282.797 71.6172 283.078V283.141C73.1328 283.32 74.0781 284.398 74.0781 285.914C74.0781 287.844 72.25 289.281 69.7891 289.281C67.2812 289.281 65.5625 287.938 65.4609 285.891H67.3984C67.4844 286.945 68.4219 287.609 69.7969 287.609C71.1172 287.609 72.0078 286.875 72.0078 285.797C72.0078 284.703 71.1641 284.055 69.75 284.055H68.2109ZM78.5547 287.664C79.6562 287.664 80.5391 286.93 80.5391 285.93V285.297L78.625 285.414C77.6875 285.477 77.1484 285.898 77.1484 286.555C77.1484 287.234 77.7109 287.664 78.5547 287.664ZM77.9688 289.133C76.3672 289.133 75.2031 288.125 75.2031 286.633C75.2031 285.164 76.3359 284.281 78.3516 284.156L80.5391 284.031V283.438C80.5391 282.57 79.9531 282.07 78.9922 282.07C78.0703 282.07 77.4844 282.516 77.3594 283.203H75.5547C75.6406 281.656 76.9609 280.547 79.0703 280.547C81.125 280.547 82.4609 281.633 82.4609 283.297V289H80.5859V287.68H80.5469C80.0703 288.578 79.0312 289.133 77.9688 289.133ZM87.9531 284.586L91.625 289H89.2422L86.1641 285.297H86.1016V289H84.1641V280.719H86.1016V284.172H86.1641L89.1953 280.719H91.4609L87.9531 284.586ZM95.4922 287.664C96.5938 287.664 97.4766 286.93 97.4766 285.93V285.297L95.5625 285.414C94.625 285.477 94.0859 285.898 94.0859 286.555C94.0859 287.234 94.6484 287.664 95.4922 287.664ZM94.9062 289.133C93.3047 289.133 92.1406 288.125 92.1406 286.633C92.1406 285.164 93.2734 284.281 95.2891 284.156L97.4766 284.031V283.438C97.4766 282.57 96.8906 282.07 95.9297 282.07C95.0078 282.07 94.4219 282.516 94.2969 283.203H92.4922C92.5781 281.656 93.8984 280.547 96.0078 280.547C98.0625 280.547 99.3984 281.633 99.3984 283.297V289H97.5234V287.68H97.4844C97.0078 288.578 95.9688 289.133 94.9062 289.133ZM104.25 289.164C102.211 289.164 100.844 288.172 100.688 286.539H102.578C102.75 287.25 103.344 287.633 104.25 287.633C105.25 287.633 105.812 287.172 105.812 286.5C105.812 285.75 105.289 285.406 104.25 285.406H103.07V284.062H104.211C105.094 284.062 105.555 283.734 105.555 283.062C105.555 282.469 105.125 282.055 104.227 282.055C103.375 282.055 102.812 282.43 102.703 283.07H100.859C101.023 281.508 102.289 280.547 104.227 280.547C106.312 280.547 107.453 281.445 107.453 282.867C107.453 283.703 106.953 284.398 106.156 284.609V284.672C107.195 284.922 107.742 285.602 107.742 286.531C107.742 288.133 106.383 289.164 104.25 289.164ZM112.211 287.664C113.312 287.664 114.195 286.93 114.195 285.93V285.297L112.281 285.414C111.344 285.477 110.805 285.898 110.805 286.555C110.805 287.234 111.367 287.664 112.211 287.664ZM111.625 289.133C110.023 289.133 108.859 288.125 108.859 286.633C108.859 285.164 109.992 284.281 112.008 284.156L114.195 284.031V283.438C114.195 282.57 113.609 282.07 112.648 282.07C111.727 282.07 111.141 282.516 111.016 283.203H109.211C109.297 281.656 110.617 280.547 112.727 280.547C114.781 280.547 116.117 281.633 116.117 283.297V289H114.242V287.68H114.203C113.727 288.578 112.688 289.133 111.625 289.133ZM124.195 280.719V282.219H121.648V289H119.719V282.219H117.172V280.719H124.195ZM128.688 284.68H127.336V287.508H128.688C129.594 287.508 130.18 286.938 130.18 286.094C130.18 285.242 129.586 284.68 128.688 284.68ZM125.398 289V280.719H127.336V283.203H128.938C130.867 283.203 132.109 284.328 132.109 286.102C132.109 287.875 130.867 289 128.938 289H125.398ZM141.219 280.578C143.32 280.578 144.656 282.211 144.656 284.859C144.656 287.5 143.328 289.133 141.25 289.133C140.047 289.133 139.109 288.555 138.656 287.625H138.617V291.727H136.672V280.719H138.57V282.148H138.609C139.078 281.188 140.016 280.578 141.219 280.578ZM140.625 287.539C141.883 287.539 142.664 286.5 142.664 284.859C142.664 283.227 141.883 282.18 140.625 282.18C139.414 282.18 138.609 283.25 138.602 284.859C138.609 286.484 139.414 287.539 140.625 287.539ZM149.648 282.055C148.555 282.055 147.766 282.891 147.688 284.047H151.555C151.516 282.875 150.766 282.055 149.648 282.055ZM151.562 286.523H153.383C153.133 288.086 151.68 289.164 149.719 289.164C147.234 289.164 145.734 287.531 145.734 284.891C145.734 282.273 147.25 280.547 149.641 280.547C151.992 280.547 153.461 282.18 153.461 284.695V285.328H147.672V285.445C147.672 286.773 148.484 287.664 149.758 287.664C150.664 287.664 151.352 287.211 151.562 286.523ZM158.641 284.586L162.312 289H159.93L156.852 285.297H156.789V289H154.852V280.719H156.789V284.172H156.852L159.883 280.719H162.148L158.641 284.586ZM165.977 285.141C165.82 287.539 165.195 289.086 163.25 289.086C162.945 289.086 162.719 289.031 162.617 288.992V287.32C162.695 287.344 162.859 287.383 163.078 287.383C163.883 287.383 164.148 286.414 164.227 285.039L164.492 280.719H170.469V289H168.531V282.219H166.172L165.977 285.141ZM175.242 287.664C176.344 287.664 177.227 286.93 177.227 285.93V285.297L175.312 285.414C174.375 285.477 173.836 285.898 173.836 286.555C173.836 287.234 174.398 287.664 175.242 287.664ZM174.656 289.133C173.055 289.133 171.891 288.125 171.891 286.633C171.891 285.164 173.023 284.281 175.039 284.156L177.227 284.031V283.438C177.227 282.57 176.641 282.07 175.68 282.07C174.758 282.07 174.172 282.516 174.047 283.203H172.242C172.328 281.656 173.648 280.547 175.758 280.547C177.812 280.547 179.148 281.633 179.148 283.297V289H177.273V287.68H177.234C176.758 288.578 175.719 289.133 174.656 289.133ZM182.703 289H180.852V280.719H183.328L185.773 286.5H185.836L188.281 280.719H190.719V289H188.867V283.336H188.805L186.469 288.617H185.094L182.758 283.336H182.703V289ZM193.391 292.078C193.281 292.078 192.727 292.07 192.625 292.047V290.508C192.727 290.531 193.07 290.539 193.188 290.539C193.992 290.539 194.406 290.234 194.625 289.469C194.625 289.445 194.742 289.031 194.734 289.008L191.789 280.719H193.914L195.867 287.344H195.898L197.852 280.719H199.898L196.906 289.328C196.195 291.383 195.281 292.078 193.391 292.078Z" fill="white"/>
<defs>
<filter id="filter0_d_447_12495" x="78.9604" y="13.3842" width="107.079" height="107.079" filterUnits="userSpaceOnUse" color-interpolation-filters="sRGB">
<feFlood flood-opacity="0" result="BackgroundImageFix"/>
<feColorMatrix in="SourceAlpha" type="matrix" values="0 0 0 0 0 0 0 0 0 0 0 0 0 0 0 0 0 0 127 0" result="hardAlpha"/>
<feOffset dy="15.9238"/>
<feGaussianBlur stdDeviation="13.2698"/>
<feColorMatrix type="matrix" values="0 0 0 0 0.568627 0 0 0 0 0.606275 0 0 0 0 0.945098 0 0 0 0.2 0"/>
<feBlend mode="normal" in2="BackgroundImageFix" result="effect1_dropShadow_447_12495"/>
<feBlend mode="normal" in="SourceGraphic" in2="effect1_dropShadow_447_12495" result="shape"/>
</filter>
<linearGradient id="paint0_linear_447_12495" x1="105.573" y1="24" x2="159.434" y2="78.0821" gradientUnits="userSpaceOnUse">
<stop stop-color="#6B9CEE"/>
<stop offset="1" stop-color="#4F62C4"/>
</linearGradient>
<linearGradient id="paint1_linear_447_12495" x1="134.024" y1="39.4512" x2="134.024" y2="62.5642" gradientUnits="userSpaceOnUse">
<stop stop-color="white"/>
<stop offset="1" stop-color="white" stop-opacity="0.6"/>
</linearGradient>
</defs>
</svg>
