<svg width="265" height="321" viewBox="0 0 265 321" fill="none" xmlns="http://www.w3.org/2000/svg">
<rect width="265" height="321" rx="24" fill="#F5F6FA"/>
<g filter="url(#filter0_d_447_12480)">
<rect x="105.5" y="24" width="54" height="54" rx="16.2" fill="url(#paint0_linear_447_12480)"/>
</g>
<path fill-rule="evenodd" clip-rule="evenodd" d="M119.094 51.2002C119.094 43.7955 125.095 37.7939 132.5 37.7939C139.905 37.7939 145.906 43.7955 145.906 51.2002V58.0752C145.906 58.6447 145.445 59.1064 144.875 59.1064C144.305 59.1064 143.844 58.6447 143.844 58.0752V51.2002C143.844 44.9346 138.766 39.8564 132.5 39.8564C126.234 39.8564 121.156 44.9346 121.156 51.2002V58.0752C121.156 58.6447 120.695 59.1064 120.125 59.1064C119.555 59.1064 119.094 58.6447 119.094 58.0752V51.2002ZM125.625 53.6064C125.056 53.6064 124.594 54.0687 124.594 54.6377V60.1377C124.594 60.7066 125.056 61.1689 125.625 61.1689H126.312C126.502 61.1689 126.656 61.0147 126.656 60.8252V53.9502C126.656 53.7607 126.502 53.6064 126.312 53.6064H125.625ZM122.531 54.6377C122.531 52.9297 123.917 51.5439 125.625 51.5439H126.312C127.641 51.5439 128.719 52.6217 128.719 53.9502V60.8252C128.719 62.1537 127.641 63.2314 126.312 63.2314H125.625C123.917 63.2314 122.531 61.8457 122.531 60.1377V54.6377ZM138.344 53.9502C138.344 53.7607 138.498 53.6064 138.688 53.6064H139.375C139.944 53.6064 140.406 54.0687 140.406 54.6377V60.1377C140.406 60.7066 139.944 61.1689 139.375 61.1689H138.688C138.498 61.1689 138.344 61.0147 138.344 60.8252V53.9502ZM138.688 51.5439C137.359 51.5439 136.281 52.6217 136.281 53.9502V60.8252C136.281 62.1537 137.359 63.2314 138.688 63.2314H139.375C141.083 63.2314 142.469 61.8457 142.469 60.1377V54.6377C142.469 52.9297 141.083 51.5439 139.375 51.5439H138.688Z" fill="url(#paint1_linear_447_12480)"/>
<path d="M76.1328 113H73.1934V101.35H66.9922V113H64.0332V98.9082H76.1328V113ZM83.1348 104.416C81.8848 104.416 80.9863 105.363 80.8887 106.672H85.332C85.2734 105.334 84.4043 104.416 83.1348 104.416ZM85.3711 109.797H87.9883C87.6758 111.848 85.8008 113.225 83.2129 113.225C79.9902 113.225 78.0566 111.164 78.0566 107.814C78.0566 104.475 80.0098 102.307 83.1055 102.307C86.1523 102.307 88.0762 104.367 88.0762 107.551V108.42H80.8594V108.596C80.8594 110.09 81.8066 111.115 83.2617 111.115C84.3066 111.115 85.1074 110.598 85.3711 109.797ZM95.8398 102.365C98.4961 102.365 100.127 104.387 100.127 107.766C100.127 111.135 98.5059 113.166 95.8887 113.166C94.3652 113.166 93.1934 112.424 92.6367 111.242H92.5781V116.418H89.7266V102.531H92.5391V104.357H92.5977C93.1641 103.127 94.3262 102.365 95.8398 102.365ZM94.8828 110.871C96.3086 110.871 97.207 109.67 97.207 107.766C97.207 105.871 96.3086 104.65 94.8828 104.65C93.4863 104.65 92.5684 105.891 92.5684 107.766C92.5684 109.66 93.4863 110.871 94.8828 110.871ZM111.24 106.105H108.574C108.34 105.197 107.656 104.543 106.572 104.543C105.166 104.543 104.297 105.754 104.297 107.756C104.297 109.797 105.166 110.988 106.582 110.988C107.646 110.988 108.35 110.412 108.594 109.426H111.25C110.996 111.74 109.209 113.225 106.553 113.225C103.408 113.225 101.426 111.154 101.426 107.756C101.426 104.416 103.408 102.307 106.533 102.307C109.229 102.307 110.967 103.908 111.24 106.105ZM117.637 113.225C114.473 113.225 112.451 111.193 112.451 107.756C112.451 104.367 114.502 102.307 117.637 102.307C120.771 102.307 122.822 104.357 122.822 107.756C122.822 111.203 120.801 113.225 117.637 113.225ZM117.637 111.047C119.033 111.047 119.922 109.865 119.922 107.766C119.922 105.686 119.023 104.484 117.637 104.484C116.25 104.484 115.342 105.686 115.342 107.766C115.342 109.865 116.23 111.047 117.637 111.047ZM131.338 113V108.713H127.314V113H124.473V102.531H127.314V106.555H131.338V102.531H134.18V113H131.338ZM140.273 111.105C141.514 111.105 142.539 110.295 142.539 109.162V108.4L140.332 108.537C139.268 108.615 138.662 109.094 138.662 109.836C138.662 110.617 139.307 111.105 140.273 111.105ZM139.336 113.166C137.344 113.166 135.83 111.877 135.83 109.992C135.83 108.088 137.295 106.984 139.902 106.828L142.539 106.672V105.979C142.539 105.002 141.855 104.436 140.781 104.436C139.717 104.436 139.043 104.963 138.906 105.734H136.299C136.406 103.703 138.135 102.307 140.908 102.307C143.594 102.307 145.342 103.693 145.342 105.803V113H142.588V111.398H142.529C141.943 112.512 140.645 113.166 139.336 113.166ZM151.182 107.98C150.996 111.086 150.146 113.127 147.559 113.127C147.119 113.127 146.797 113.049 146.65 112.99V110.588C146.768 110.617 146.982 110.656 147.266 110.656C148.262 110.656 148.564 109.445 148.652 107.795L148.945 102.531H156.885V113H154.043V104.68H151.387L151.182 107.98ZM163.359 107.658H161.787V110.871H163.359C164.395 110.871 165.059 110.217 165.059 109.26C165.059 108.303 164.385 107.658 163.359 107.658ZM158.945 113V102.531H161.787V105.559H163.828C166.299 105.559 167.881 107.004 167.881 109.279C167.881 111.555 166.299 113 163.828 113H158.945ZM176.338 113V108.713H172.314V113H169.473V102.531H172.314V106.555H176.338V102.531H179.18V113H176.338ZM185.273 111.105C186.514 111.105 187.539 110.295 187.539 109.162V108.4L185.332 108.537C184.268 108.615 183.662 109.094 183.662 109.836C183.662 110.617 184.307 111.105 185.273 111.105ZM184.336 113.166C182.344 113.166 180.83 111.877 180.83 109.992C180.83 108.088 182.295 106.984 184.902 106.828L187.539 106.672V105.979C187.539 105.002 186.855 104.436 185.781 104.436C184.717 104.436 184.043 104.963 183.906 105.734H181.299C181.406 103.703 183.135 102.307 185.908 102.307C188.594 102.307 190.342 103.693 190.342 105.803V113H187.588V111.398H187.529C186.943 112.512 185.645 113.166 184.336 113.166ZM196.709 107.619H198.418V104.65H196.709C195.703 104.65 195.068 105.246 195.068 106.174C195.068 107.014 195.713 107.619 196.709 107.619ZM198.418 113V109.621H197.275L194.951 113H191.787L194.541 109.191C193.115 108.742 192.236 107.668 192.236 106.164C192.236 103.938 193.887 102.531 196.426 102.531H201.201V113H198.418ZM101.514 137V128.68H97.5879V137H94.7461V126.531H104.355V137H101.514ZM111.211 137.225C108.047 137.225 106.025 135.193 106.025 131.756C106.025 128.367 108.076 126.307 111.211 126.307C114.346 126.307 116.396 128.357 116.396 131.756C116.396 135.203 114.375 137.225 111.211 137.225ZM111.211 135.047C112.607 135.047 113.496 133.865 113.496 131.766C113.496 129.686 112.598 128.484 111.211 128.484C109.824 128.484 108.916 129.686 108.916 131.766C108.916 133.865 109.805 135.047 111.211 135.047ZM120.723 137H118.047V126.531H121.738L124.473 133.367H124.541L127.275 126.531H130.928V137H128.252V129.998H128.184L125.469 136.414H123.496L120.791 129.998H120.723V137ZM137.793 137.225C134.629 137.225 132.607 135.193 132.607 131.756C132.607 128.367 134.658 126.307 137.793 126.307C140.928 126.307 142.979 128.357 142.979 131.756C142.979 135.203 140.957 137.225 137.793 137.225ZM137.793 135.047C139.189 135.047 140.078 133.865 140.078 131.766C140.078 129.686 139.18 128.484 137.793 128.484C136.406 128.484 135.498 129.686 135.498 131.766C135.498 133.865 136.387 135.047 137.793 135.047ZM160.498 139.715H157.9V137H144.629V126.531H147.471V134.842H150.391V126.531H153.232V134.842H156.152V126.531H158.994V134.842H160.498V139.715ZM166.191 131.658H164.619V134.871H166.191C167.227 134.871 167.891 134.217 167.891 133.26C167.891 132.303 167.217 131.658 166.191 131.658ZM161.777 137V126.531H164.619V129.559H166.66C169.131 129.559 170.713 131.004 170.713 133.279C170.713 135.555 169.131 137 166.66 137H161.777Z" fill="#202427"/>
<rect x="51" y="154" width="163" height="12" rx="2" fill="#E6E8F2"/>
<rect x="23.5" y="172" width="218" height="12" rx="2" fill="#E6E8F2"/>
<rect x="72" y="190" width="121" height="12" rx="2" fill="#E6E8F2"/>
<rect x="16" y="262" width="233" height="43" rx="12" fill="#4039FF"/>
<path d="M96.0625 289H94.0547V279.438H88.7109V289H86.6875V277.727H96.0625V289ZM101.672 289.164C99.2422 289.164 97.6641 287.547 97.6641 284.859C97.6641 282.188 99.2578 280.547 101.672 280.547C104.086 280.547 105.68 282.18 105.68 284.859C105.68 287.547 104.102 289.164 101.672 289.164ZM101.672 287.625C102.906 287.625 103.703 286.625 103.703 284.859C103.703 283.102 102.906 282.094 101.672 282.094C100.445 282.094 99.6406 283.102 99.6406 284.859C99.6406 286.625 100.438 287.625 101.672 287.625ZM112.461 287.5V282.211H109.758L109.547 285.141C109.484 286.078 109.297 286.891 108.914 287.438V287.5H112.461ZM108 291.164H106.219V287.5H106.875C107.484 287.141 107.734 286.156 107.812 285.039L108.102 280.719H114.398V287.5H115.656V291.164H113.875V289H108V291.164ZM120.539 284.586L124.211 289H121.828L118.75 285.297H118.688V289H116.75V280.719H118.688V284.172H118.75L121.781 280.719H124.047L120.539 284.586ZM127.875 285.141C127.719 287.539 127.094 289.086 125.148 289.086C124.844 289.086 124.617 289.031 124.516 288.992V287.32C124.594 287.344 124.758 287.383 124.977 287.383C125.781 287.383 126.047 286.414 126.125 285.039L126.391 280.719H132.367V289H130.43V282.219H128.07L127.875 285.141ZM141.266 289.164C139.023 289.164 137.57 287.805 137.344 285.484H136.047V289H134.109V280.719H136.047V283.984H137.375C137.68 281.828 139.117 280.547 141.266 280.547C143.703 280.547 145.227 282.164 145.227 284.859C145.227 287.562 143.719 289.164 141.266 289.164ZM141.258 287.586C142.508 287.586 143.234 286.602 143.234 284.859C143.234 283.125 142.508 282.125 141.258 282.125C140.016 282.125 139.289 283.125 139.289 284.859C139.289 286.602 140.008 287.586 141.258 287.586ZM153.539 289H151.602V285.508H151.508C151.055 285.961 150.352 286.266 149.422 286.266C147.5 286.266 146.391 285.078 146.391 283.242V280.719H148.32V283.023C148.32 284.023 148.875 284.641 149.859 284.641C150.711 284.641 151.289 284.312 151.602 283.922V280.719H153.539V289ZM157.188 289H155.281V280.719H157.188V286.25H157.25L160.852 280.719H162.758V289H160.852V283.43H160.789L157.188 289ZM170.984 280.719V282.219H168.438V289H166.508V282.219H163.961V280.719H170.984ZM175.477 284.68H174.125V287.508H175.477C176.383 287.508 176.969 286.938 176.969 286.094C176.969 285.242 176.375 284.68 175.477 284.68ZM172.188 289V280.719H174.125V283.203H175.727C177.656 283.203 178.898 284.328 178.898 286.102C178.898 287.875 177.656 289 175.727 289H172.188Z" fill="white"/>
<defs>
<filter id="filter0_d_447_12480" x="78.9604" y="13.3842" width="107.079" height="107.079" filterUnits="userSpaceOnUse" color-interpolation-filters="sRGB">
<feFlood flood-opacity="0" result="BackgroundImageFix"/>
<feColorMatrix in="SourceAlpha" type="matrix" values="0 0 0 0 0 0 0 0 0 0 0 0 0 0 0 0 0 0 127 0" result="hardAlpha"/>
<feOffset dy="15.9238"/>
<feGaussianBlur stdDeviation="13.2698"/>
<feColorMatrix type="matrix" values="0 0 0 0 0.568627 0 0 0 0 0.945098 0 0 0 0 0.945098 0 0 0 0.2 0"/>
<feBlend mode="normal" in2="BackgroundImageFix" result="effect1_dropShadow_447_12480"/>
<feBlend mode="normal" in="SourceGraphic" in2="effect1_dropShadow_447_12480" result="shape"/>
</filter>
<linearGradient id="paint0_linear_447_12480" x1="105.573" y1="24" x2="159.434" y2="78.0821" gradientUnits="userSpaceOnUse">
<stop stop-color="#68E0D8"/>
<stop offset="0.9999" stop-color="#5FA9DA"/>
<stop offset="1" stop-color="#67DDE4"/>
</linearGradient>
<linearGradient id="paint1_linear_447_12480" x1="132.5" y1="37.7939" x2="132.5" y2="63.2314" gradientUnits="userSpaceOnUse">
<stop stop-color="white"/>
<stop offset="1" stop-color="white" stop-opacity="0.6"/>
</linearGradient>
</defs>
</svg>
