<svg width="265" height="321" viewBox="0 0 265 321" fill="none" xmlns="http://www.w3.org/2000/svg">
<rect width="265" height="321" rx="24" fill="#F5F6FA"/>
<g filter="url(#filter0_d_447_12566)">
<rect x="105.5" y="24" width="54.7521" height="54.7521" rx="16.2551" fill="url(#paint0_linear_447_12566)"/>
</g>
<path d="M129.554 53.7743V47.3156C129.554 47.1162 129.607 46.9204 129.707 46.7478C129.806 46.5752 129.95 46.4319 130.122 46.3323C130.295 46.2327 130.491 46.1803 130.69 46.1804C130.89 46.1805 131.085 46.2331 131.258 46.3328L136.846 49.5622C137.019 49.6618 137.162 49.8051 137.262 49.9776C137.361 50.1501 137.414 50.3458 137.414 50.5449C137.414 50.7441 137.361 50.9398 137.262 51.1123C137.162 51.2848 137.019 51.4281 136.846 51.5277L131.258 54.7571C131.085 54.8568 130.89 54.9094 130.69 54.9095C130.491 54.9096 130.295 54.8572 130.122 54.7576C129.95 54.658 129.806 54.5146 129.707 54.3421C129.607 54.1695 129.554 53.9736 129.554 53.7743Z" stroke="url(#paint1_linear_447_12566)" stroke-width="2.48873" stroke-linecap="round" stroke-linejoin="round"/>
<path d="M117.117 54.7043V46.3879C117.117 45.013 117.478 43.6621 118.163 42.4702C118.849 41.2783 119.835 40.2871 121.023 39.5955L128.881 35.0218C130.082 34.3231 131.446 33.9551 132.835 33.9551C134.223 33.9551 135.588 34.3231 136.788 35.0218L144.648 39.5965C145.836 40.2881 146.822 41.2793 147.508 42.4712C148.193 43.6631 148.554 45.014 148.554 46.3889V54.7054C148.554 56.0803 148.193 57.4311 147.508 58.623C146.822 59.8149 145.836 60.8062 144.648 61.4978L136.79 66.0715C135.589 66.7701 134.225 67.1382 132.836 67.1382C131.447 67.1382 130.083 66.7701 128.883 66.0715L121.023 61.4968C119.835 60.8052 118.849 59.8139 118.163 58.622C117.478 57.4301 117.117 56.0793 117.117 54.7043Z" stroke="url(#paint2_linear_447_12566)" stroke-width="2.48873" stroke-linecap="round" stroke-linejoin="round"/>
<path d="M78.6816 98.9082H84.4141C87.3047 98.9082 89.2969 100.832 89.2969 103.732C89.2969 106.623 87.2363 108.557 84.2676 108.557H81.6309V113H78.6816V98.9082ZM81.6309 101.242V106.252H83.623C85.3125 106.252 86.2988 105.354 86.2988 103.742C86.2988 102.141 85.3223 101.242 83.6328 101.242H81.6309ZM95.498 104.416C94.248 104.416 93.3496 105.363 93.252 106.672H97.6953C97.6367 105.334 96.7676 104.416 95.498 104.416ZM97.7344 109.797H100.352C100.039 111.848 98.1641 113.225 95.5762 113.225C92.3535 113.225 90.4199 111.164 90.4199 107.814C90.4199 104.475 92.373 102.307 95.4688 102.307C98.5156 102.307 100.439 104.367 100.439 107.551V108.42H93.2227V108.596C93.2227 110.09 94.1699 111.115 95.625 111.115C96.6699 111.115 97.4707 110.598 97.7344 109.797ZM107.568 107.375L111.992 113H108.545L105.01 108.508H104.932V113H102.09V102.531H104.932V106.74H105.01L108.486 102.531H111.748L107.568 107.375ZM116.885 107.98C116.699 111.086 115.85 113.127 113.262 113.127C112.822 113.127 112.5 113.049 112.354 112.99V110.588C112.471 110.617 112.686 110.656 112.969 110.656C113.965 110.656 114.268 109.445 114.355 107.795L114.648 102.531H122.588V113H119.746V104.68H117.09L116.885 107.98ZM128.691 111.105C129.932 111.105 130.957 110.295 130.957 109.162V108.4L128.75 108.537C127.686 108.615 127.08 109.094 127.08 109.836C127.08 110.617 127.725 111.105 128.691 111.105ZM127.754 113.166C125.762 113.166 124.248 111.877 124.248 109.992C124.248 108.088 125.713 106.984 128.32 106.828L130.957 106.672V105.979C130.957 105.002 130.273 104.436 129.199 104.436C128.135 104.436 127.461 104.963 127.324 105.734H124.717C124.824 103.703 126.553 102.307 129.326 102.307C132.012 102.307 133.76 103.693 133.76 105.803V113H131.006V111.398H130.947C130.361 112.512 129.062 113.166 127.754 113.166ZM138.457 113H135.781V102.531H139.473L142.207 109.367H142.275L145.01 102.531H148.662V113H145.986V105.998H145.918L143.203 112.414H141.23L138.525 105.998H138.457V113ZM157.588 113V108.713H153.564V113H150.723V102.531H153.564V106.555H157.588V102.531H160.43V113H157.588ZM172.441 113V102.531H175.283V113H172.441ZM166.895 107.658H165.322V110.871H166.895C167.93 110.871 168.594 110.217 168.594 109.26C168.594 108.303 167.92 107.658 166.895 107.658ZM162.48 113V102.531H165.322V105.559H167.363C169.834 105.559 171.416 107.004 171.416 109.279C171.416 111.555 169.834 113 167.363 113H162.48ZM182.021 104.416C180.771 104.416 179.873 105.363 179.775 106.672H184.219C184.16 105.334 183.291 104.416 182.021 104.416ZM184.258 109.797H186.875C186.562 111.848 184.688 113.225 182.1 113.225C178.877 113.225 176.943 111.164 176.943 107.814C176.943 104.475 178.896 102.307 181.992 102.307C185.039 102.307 186.963 104.367 186.963 107.551V108.42H179.746V108.596C179.746 110.09 180.693 111.115 182.148 111.115C183.193 111.115 183.994 110.598 184.258 109.797ZM79.8145 137H77.0215V126.531H79.8145V133.074H79.8926L84.0527 126.531H86.8457V137H84.0527V130.379H83.9746L79.8145 137ZM95.7617 137V132.713H91.7383V137H88.8965V126.531H91.7383V130.555H95.7617V126.531H98.6035V137H95.7617ZM109.141 126.531V128.68H106.025V137H103.184V128.68H100.059V126.531H109.141ZM115.098 128.416C113.848 128.416 112.949 129.363 112.852 130.672H117.295C117.236 129.334 116.367 128.416 115.098 128.416ZM117.334 133.797H119.951C119.639 135.848 117.764 137.225 115.176 137.225C111.953 137.225 110.02 135.164 110.02 131.814C110.02 128.475 111.973 126.307 115.068 126.307C118.115 126.307 120.039 128.367 120.039 131.551V132.42H112.822V132.596C112.822 134.09 113.77 135.115 115.225 135.115C116.27 135.115 117.07 134.598 117.334 133.797ZM128.984 128.68H124.531V137H121.689V126.531H128.984V128.68ZM136.748 126.365C139.404 126.365 141.035 128.387 141.035 131.766C141.035 135.135 139.414 137.166 136.797 137.166C135.273 137.166 134.102 136.424 133.545 135.242H133.486V140.418H130.635V126.531H133.447V128.357H133.506C134.072 127.127 135.234 126.365 136.748 126.365ZM135.791 134.871C137.217 134.871 138.115 133.67 138.115 131.766C138.115 129.871 137.217 128.65 135.791 128.65C134.395 128.65 133.477 129.891 133.477 131.766C133.477 133.66 134.395 134.871 135.791 134.871ZM146.768 135.105C148.008 135.105 149.033 134.295 149.033 133.162V132.4L146.826 132.537C145.762 132.615 145.156 133.094 145.156 133.836C145.156 134.617 145.801 135.105 146.768 135.105ZM145.83 137.166C143.838 137.166 142.324 135.877 142.324 133.992C142.324 132.088 143.789 130.984 146.396 130.828L149.033 130.672V129.979C149.033 129.002 148.35 128.436 147.275 128.436C146.211 128.436 145.537 128.963 145.4 129.734H142.793C142.9 127.703 144.629 126.307 147.402 126.307C150.088 126.307 151.836 127.693 151.836 129.803V137H149.082V135.398H149.023C148.438 136.512 147.139 137.166 145.83 137.166ZM165 139.715H162.402V137H153.857V126.531H156.699V134.842H160.576V126.531H163.418V134.842H165V139.715ZM169.072 137H166.279V126.531H169.072V133.074H169.15L173.311 126.531H176.104V137H173.311V130.379H173.232L169.072 137ZM180.947 137H178.154V126.531H180.947V133.074H181.025L185.186 126.531H187.979V137H185.186V130.379H185.107L180.947 137Z" fill="#202427"/>
<rect x="51" y="154" width="163" height="12" rx="2" fill="#E6E8F2"/>
<rect x="23.5" y="172" width="218" height="12" rx="2" fill="#E6E8F2"/>
<rect x="72" y="190" width="121" height="12" rx="2" fill="#E6E8F2"/>
<rect x="16" y="262" width="233" height="43" rx="12" fill="#4039FF"/>
<path d="M96.0625 289H94.0547V279.438H88.7109V289H86.6875V277.727H96.0625V289ZM101.672 289.164C99.2422 289.164 97.6641 287.547 97.6641 284.859C97.6641 282.188 99.2578 280.547 101.672 280.547C104.086 280.547 105.68 282.18 105.68 284.859C105.68 287.547 104.102 289.164 101.672 289.164ZM101.672 287.625C102.906 287.625 103.703 286.625 103.703 284.859C103.703 283.102 102.906 282.094 101.672 282.094C100.445 282.094 99.6406 283.102 99.6406 284.859C99.6406 286.625 100.438 287.625 101.672 287.625ZM112.461 287.5V282.211H109.758L109.547 285.141C109.484 286.078 109.297 286.891 108.914 287.438V287.5H112.461ZM108 291.164H106.219V287.5H106.875C107.484 287.141 107.734 286.156 107.812 285.039L108.102 280.719H114.398V287.5H115.656V291.164H113.875V289H108V291.164ZM120.539 284.586L124.211 289H121.828L118.75 285.297H118.688V289H116.75V280.719H118.688V284.172H118.75L121.781 280.719H124.047L120.539 284.586ZM127.875 285.141C127.719 287.539 127.094 289.086 125.148 289.086C124.844 289.086 124.617 289.031 124.516 288.992V287.32C124.594 287.344 124.758 287.383 124.977 287.383C125.781 287.383 126.047 286.414 126.125 285.039L126.391 280.719H132.367V289H130.43V282.219H128.07L127.875 285.141ZM141.266 289.164C139.023 289.164 137.57 287.805 137.344 285.484H136.047V289H134.109V280.719H136.047V283.984H137.375C137.68 281.828 139.117 280.547 141.266 280.547C143.703 280.547 145.227 282.164 145.227 284.859C145.227 287.562 143.719 289.164 141.266 289.164ZM141.258 287.586C142.508 287.586 143.234 286.602 143.234 284.859C143.234 283.125 142.508 282.125 141.258 282.125C140.016 282.125 139.289 283.125 139.289 284.859C139.289 286.602 140.008 287.586 141.258 287.586ZM153.539 289H151.602V285.508H151.508C151.055 285.961 150.352 286.266 149.422 286.266C147.5 286.266 146.391 285.078 146.391 283.242V280.719H148.32V283.023C148.32 284.023 148.875 284.641 149.859 284.641C150.711 284.641 151.289 284.312 151.602 283.922V280.719H153.539V289ZM157.188 289H155.281V280.719H157.188V286.25H157.25L160.852 280.719H162.758V289H160.852V283.43H160.789L157.188 289ZM170.984 280.719V282.219H168.438V289H166.508V282.219H163.961V280.719H170.984ZM175.477 284.68H174.125V287.508H175.477C176.383 287.508 176.969 286.938 176.969 286.094C176.969 285.242 176.375 284.68 175.477 284.68ZM172.188 289V280.719H174.125V283.203H175.727C177.656 283.203 178.898 284.328 178.898 286.102C178.898 287.875 177.656 289 175.727 289H172.188Z" fill="white"/>
<defs>
<filter id="filter0_d_447_12566" x="64.8623" y="7.74493" width="136.027" height="136.027" filterUnits="userSpaceOnUse" color-interpolation-filters="sRGB">
<feFlood flood-opacity="0" result="BackgroundImageFix"/>
<feColorMatrix in="SourceAlpha" type="matrix" values="0 0 0 0 0 0 0 0 0 0 0 0 0 0 0 0 0 0 127 0" result="hardAlpha"/>
<feOffset dy="24.3826"/>
<feGaussianBlur stdDeviation="20.3188"/>
<feColorMatrix type="matrix" values="0 0 0 0 1 0 0 0 0 0.642667 0 0 0 0 0.441667 0 0 0 0.2 0"/>
<feBlend mode="normal" in2="BackgroundImageFix" result="effect1_dropShadow_447_12566"/>
<feBlend mode="normal" in="SourceGraphic" in2="effect1_dropShadow_447_12566" result="shape"/>
</filter>
<linearGradient id="paint0_linear_447_12566" x1="105.574" y1="24" x2="160.185" y2="78.8354" gradientUnits="userSpaceOnUse">
<stop stop-color="#FFB55E"/>
<stop offset="1" stop-color="#FE833E"/>
</linearGradient>
<linearGradient id="paint1_linear_447_12566" x1="132.835" y1="33.9551" x2="132.835" y2="67.1382" gradientUnits="userSpaceOnUse">
<stop stop-color="white"/>
<stop offset="1" stop-color="white" stop-opacity="0.6"/>
</linearGradient>
<linearGradient id="paint2_linear_447_12566" x1="132.835" y1="33.9551" x2="132.835" y2="67.1382" gradientUnits="userSpaceOnUse">
<stop stop-color="white"/>
<stop offset="1" stop-color="white" stop-opacity="0.6"/>
</linearGradient>
</defs>
</svg>
