<svg width="265" height="321" viewBox="0 0 265 321" fill="none" xmlns="http://www.w3.org/2000/svg">
<rect width="265" height="321" rx="24" fill="#F5F6FA"/>
<g filter="url(#filter0_d_447_12520)">
<rect x="105.5" y="24" width="54" height="54" rx="16.2551" fill="url(#paint0_linear_447_12520)"/>
</g>
<path d="M128.436 38.8086V63.1912M146.046 50.9999V42.8724C146.046 41.7946 145.618 40.7609 144.855 39.9988C144.093 39.2367 143.06 38.8086 141.982 38.8086H125.727C124.649 38.8086 123.615 39.2367 122.853 39.9988C122.091 40.7609 121.663 41.7946 121.663 42.8724V59.1274C121.663 60.2052 122.091 61.2389 122.853 62.001C123.615 62.7631 124.649 63.1912 125.727 63.1912H136.564M133.711 50.3226L134.427 53.1903C134.666 54.1428 135.158 55.0128 135.852 55.7071L142.49 62.3446C143.029 62.8833 143.76 63.1858 144.522 63.1858C145.284 63.1858 146.015 62.8833 146.554 62.3446C147.092 61.8056 147.395 61.0747 147.395 60.3127C147.395 59.5507 147.092 58.8198 146.554 58.2808L139.916 51.6433C139.222 50.9491 138.352 50.4565 137.399 50.2183L134.532 49.5017C134.418 49.4735 134.3 49.4751 134.187 49.5063C134.074 49.5376 133.972 49.5974 133.889 49.68C133.806 49.7627 133.747 49.8653 133.715 49.9779C133.684 50.0905 133.683 50.2092 133.711 50.3226Z" stroke="url(#paint1_linear_447_12520)" stroke-width="2.03188" stroke-linecap="round" stroke-linejoin="round"/>
<path d="M101.553 107.092C101.445 108.664 101.24 109.748 100.615 110.48V110.559H106.367V101.33H101.924L101.553 107.092ZM99.1406 113V115.783H96.4648V110.559H97.4512C98.4375 109.885 98.7207 108.781 98.8379 106.867L99.3262 98.9082H109.316V110.559H111.074V115.783H108.408V113H99.1406ZM115.391 113H112.598V102.531H115.391V109.074H115.469L119.629 102.531H122.422V113H119.629V106.379H119.551L115.391 113ZM128.711 113.225C125.996 113.225 124.219 111.896 124.023 109.68H126.738C126.982 110.568 127.656 111.018 128.711 111.018C129.844 111.018 130.469 110.52 130.469 109.758C130.469 108.938 129.883 108.557 128.721 108.557H127.275V106.701H128.643C129.648 106.701 130.166 106.34 130.166 105.598C130.166 104.914 129.668 104.455 128.662 104.455C127.666 104.455 127.031 104.895 126.904 105.686H124.219C124.424 103.586 126.084 102.307 128.643 102.307C131.436 102.307 132.939 103.42 132.939 105.285C132.939 106.33 132.344 107.18 131.367 107.453V107.531C132.637 107.863 133.311 108.703 133.311 109.865C133.311 111.926 131.553 113.225 128.711 113.225ZM139.082 111.105C140.322 111.105 141.348 110.295 141.348 109.162V108.4L139.141 108.537C138.076 108.615 137.471 109.094 137.471 109.836C137.471 110.617 138.115 111.105 139.082 111.105ZM138.145 113.166C136.152 113.166 134.639 111.877 134.639 109.992C134.639 108.088 136.104 106.984 138.711 106.828L141.348 106.672V105.979C141.348 105.002 140.664 104.436 139.59 104.436C138.525 104.436 137.852 104.963 137.715 105.734H135.107C135.215 103.703 136.943 102.307 139.717 102.307C142.402 102.307 144.15 103.693 144.15 105.803V113H141.396V111.398H141.338C140.752 112.512 139.453 113.166 138.145 113.166ZM148.965 113H146.172V102.531H148.965V109.074H149.043L153.203 102.531H155.996V113H153.203V106.379H153.125L148.965 113ZM147.734 97.7949H149.473C149.492 98.8398 150.146 99.5918 151.172 99.5918C152.188 99.5918 152.842 98.8398 152.861 97.7949H154.609C154.609 99.7188 153.223 101.008 151.172 101.008C149.111 101.008 147.734 99.7188 147.734 97.7949ZM164.912 113V108.713H160.889V113H158.047V102.531H160.889V106.555H164.912V102.531H167.754V113H164.912Z" fill="#202427"/>
<rect x="51" y="130" width="163" height="12" rx="2" fill="#E6E8F2"/>
<rect x="43" y="148" width="179" height="12" rx="2" fill="#E6E8F2"/>
<rect x="23.5" y="166" width="218" height="12" rx="2" fill="#E6E8F2"/>
<rect x="72" y="184" width="121" height="12" rx="2" fill="#E6E8F2"/>
<rect x="16" y="262" width="233" height="43" rx="12" fill="#4039FF"/>
<path d="M73.3203 284.055V282.43H74.8203C76.0469 282.43 76.8828 281.727 76.8828 280.711C76.8828 279.695 76.1172 279.07 74.8828 279.07C73.6328 279.07 72.8125 279.727 72.7266 280.789H70.8438C70.9453 278.734 72.5156 277.445 74.9375 277.445C77.2422 277.445 78.8359 278.695 78.8359 280.484C78.8359 281.75 77.9766 282.797 76.7266 283.078V283.141C78.2422 283.32 79.1875 284.398 79.1875 285.914C79.1875 287.844 77.3594 289.281 74.8984 289.281C72.3906 289.281 70.6719 287.938 70.5703 285.891H72.5078C72.5938 286.945 73.5312 287.609 74.9062 287.609C76.2266 287.609 77.1172 286.875 77.1172 285.797C77.1172 284.703 76.2734 284.055 74.8594 284.055H73.3203ZM83.6641 287.664C84.7656 287.664 85.6484 286.93 85.6484 285.93V285.297L83.7344 285.414C82.7969 285.477 82.2578 285.898 82.2578 286.555C82.2578 287.234 82.8203 287.664 83.6641 287.664ZM83.0781 289.133C81.4766 289.133 80.3125 288.125 80.3125 286.633C80.3125 285.164 81.4453 284.281 83.4609 284.156L85.6484 284.031V283.438C85.6484 282.57 85.0625 282.07 84.1016 282.07C83.1797 282.07 82.5938 282.516 82.4688 283.203H80.6641C80.75 281.656 82.0703 280.547 84.1797 280.547C86.2344 280.547 87.5703 281.633 87.5703 283.297V289H85.6953V287.68H85.6562C85.1797 288.578 84.1406 289.133 83.0781 289.133ZM93.0625 284.586L96.7344 289H94.3516L91.2734 285.297H91.2109V289H89.2734V280.719H91.2109V284.172H91.2734L94.3047 280.719H96.5703L93.0625 284.586ZM100.602 287.664C101.703 287.664 102.586 286.93 102.586 285.93V285.297L100.672 285.414C99.7344 285.477 99.1953 285.898 99.1953 286.555C99.1953 287.234 99.7578 287.664 100.602 287.664ZM100.016 289.133C98.4141 289.133 97.25 288.125 97.25 286.633C97.25 285.164 98.3828 284.281 100.398 284.156L102.586 284.031V283.438C102.586 282.57 102 282.07 101.039 282.07C100.117 282.07 99.5312 282.516 99.4062 283.203H97.6016C97.6875 281.656 99.0078 280.547 101.117 280.547C103.172 280.547 104.508 281.633 104.508 283.297V289H102.633V287.68H102.594C102.117 288.578 101.078 289.133 100.016 289.133ZM109.359 289.164C107.32 289.164 105.953 288.172 105.797 286.539H107.688C107.859 287.25 108.453 287.633 109.359 287.633C110.359 287.633 110.922 287.172 110.922 286.5C110.922 285.75 110.398 285.406 109.359 285.406H108.18V284.062H109.32C110.203 284.062 110.664 283.734 110.664 283.062C110.664 282.469 110.234 282.055 109.336 282.055C108.484 282.055 107.922 282.43 107.812 283.07H105.969C106.133 281.508 107.398 280.547 109.336 280.547C111.422 280.547 112.562 281.445 112.562 282.867C112.562 283.703 112.062 284.398 111.266 284.609V284.672C112.305 284.922 112.852 285.602 112.852 286.531C112.852 288.133 111.492 289.164 109.359 289.164ZM117.32 287.664C118.422 287.664 119.305 286.93 119.305 285.93V285.297L117.391 285.414C116.453 285.477 115.914 285.898 115.914 286.555C115.914 287.234 116.477 287.664 117.32 287.664ZM116.734 289.133C115.133 289.133 113.969 288.125 113.969 286.633C113.969 285.164 115.102 284.281 117.117 284.156L119.305 284.031V283.438C119.305 282.57 118.719 282.07 117.758 282.07C116.836 282.07 116.25 282.516 116.125 283.203H114.32C114.406 281.656 115.727 280.547 117.836 280.547C119.891 280.547 121.227 281.633 121.227 283.297V289H119.352V287.68H119.312C118.836 288.578 117.797 289.133 116.734 289.133ZM129.305 280.719V282.219H126.758V289H124.828V282.219H122.281V280.719H129.305ZM133.797 284.68H132.445V287.508H133.797C134.703 287.508 135.289 286.938 135.289 286.094C135.289 285.242 134.695 284.68 133.797 284.68ZM130.508 289V280.719H132.445V283.203H134.047C135.977 283.203 137.219 284.328 137.219 286.102C137.219 287.875 135.977 289 134.047 289H130.508ZM147.297 287.5V282.211H144.594L144.383 285.141C144.32 286.078 144.133 286.891 143.75 287.438V287.5H147.297ZM142.836 291.164H141.055V287.5H141.711C142.32 287.141 142.57 286.156 142.648 285.039L142.938 280.719H149.234V287.5H150.492V291.164H148.711V289H142.836V291.164ZM153.492 289H151.586V280.719H153.492V286.25H153.555L157.156 280.719H159.062V289H157.156V283.43H157.094L153.492 289ZM163.953 289.164C161.914 289.164 160.547 288.172 160.391 286.539H162.281C162.453 287.25 163.047 287.633 163.953 287.633C164.953 287.633 165.516 287.172 165.516 286.5C165.516 285.75 164.992 285.406 163.953 285.406H162.773V284.062H163.914C164.797 284.062 165.258 283.734 165.258 283.062C165.258 282.469 164.828 282.055 163.93 282.055C163.078 282.055 162.516 282.43 162.406 283.07H160.562C160.727 281.508 161.992 280.547 163.93 280.547C166.016 280.547 167.156 281.445 167.156 282.867C167.156 283.703 166.656 284.398 165.859 284.609V284.672C166.898 284.922 167.445 285.602 167.445 286.531C167.445 288.133 166.086 289.164 163.953 289.164ZM171.914 287.664C173.016 287.664 173.898 286.93 173.898 285.93V285.297L171.984 285.414C171.047 285.477 170.508 285.898 170.508 286.555C170.508 287.234 171.07 287.664 171.914 287.664ZM171.328 289.133C169.727 289.133 168.562 288.125 168.562 286.633C168.562 285.164 169.695 284.281 171.711 284.156L173.898 284.031V283.438C173.898 282.57 173.312 282.07 172.352 282.07C171.43 282.07 170.844 282.516 170.719 283.203H168.914C169 281.656 170.32 280.547 172.43 280.547C174.484 280.547 175.82 281.633 175.82 283.297V289H173.945V287.68H173.906C173.43 288.578 172.391 289.133 171.328 289.133ZM179.43 289H177.523V280.719H179.43V286.25H179.492L183.094 280.719H185V289H183.094V283.43H183.031L179.43 289ZM178.695 277.023H179.945C179.953 277.891 180.5 278.531 181.359 278.531C182.219 278.531 182.766 277.891 182.773 277.023H184.023C184.023 278.531 182.953 279.539 181.359 279.539C179.766 279.539 178.695 278.531 178.695 277.023ZM192.18 289V285.484H188.68V289H186.742V280.719H188.68V283.984H192.18V280.719H194.117V289H192.18Z" fill="white"/>
<defs>
<filter id="filter0_d_447_12520" x="78.8702" y="13.3481" width="107.26" height="107.26" filterUnits="userSpaceOnUse" color-interpolation-filters="sRGB">
<feFlood flood-opacity="0" result="BackgroundImageFix"/>
<feColorMatrix in="SourceAlpha" type="matrix" values="0 0 0 0 0 0 0 0 0 0 0 0 0 0 0 0 0 0 127 0" result="hardAlpha"/>
<feOffset dy="15.9779"/>
<feGaussianBlur stdDeviation="13.3149"/>
<feColorMatrix type="matrix" values="0 0 0 0 0.945098 0 0 0 0 0.591216 0 0 0 0 0.568627 0 0 0 0.2 0"/>
<feBlend mode="normal" in2="BackgroundImageFix" result="effect1_dropShadow_447_12520"/>
<feBlend mode="normal" in="SourceGraphic" in2="effect1_dropShadow_447_12520" result="shape"/>
</filter>
<linearGradient id="paint0_linear_447_12520" x1="105.573" y1="24" x2="159.434" y2="78.0821" gradientUnits="userSpaceOnUse">
<stop stop-color="#FDAE9D"/>
<stop offset="1" stop-color="#E374CA"/>
</linearGradient>
<linearGradient id="paint1_linear_447_12520" x1="134.529" y1="38.8086" x2="134.529" y2="63.1912" gradientUnits="userSpaceOnUse">
<stop stop-color="white"/>
<stop offset="1" stop-color="white" stop-opacity="0.6"/>
</linearGradient>
</defs>
</svg>
