<?xml version="1.0" encoding="iso-8859-1"?>
<!-- Generator: Adobe Illustrator 18.1.1, SVG Export Plug-In . SVG Version: 6.00 Build 0)  -->
<svg version="1.1" id="Capa_1" xmlns="http://www.w3.org/2000/svg" xmlns:xlink="http://www.w3.org/1999/xlink" x="0px" y="0px"
	 viewBox="0 0 17.222 17.222" style="enable-background:new 0 0 17.222 17.222;" xml:space="preserve">
<g>
	<path style="fill:#010002;" d="M2.52,9.768H0.622C0.279,9.768,0,9.905,0,10.076v5.021c0,0.17,0.278,0.307,0.622,0.307H2.52
		c0.346,0,0.622-0.137,0.622-0.307v-5.021C3.142,9.905,2.865,9.768,2.52,9.768z M16.599,1.818h-1.897
		c-0.344,0-0.621,0.332-0.621,0.743v12.101c0,0.41,0.277,0.742,0.621,0.742h1.897c0.344,0,0.623-0.332,0.623-0.742V2.561
		C17.221,2.15,16.943,1.818,16.599,1.818z M11.906,4.964h-1.899c-0.343,0-0.62,0.257-0.62,0.571v9.299c0,0.314,0.277,0.57,0.62,0.57
		h1.899c0.345,0,0.621-0.256,0.621-0.57V5.535C12.528,5.219,12.251,4.964,11.906,4.964z M7.214,6.301h-1.9
		c-0.343,0-0.621,0.223-0.621,0.498v8.107c0,0.273,0.278,0.498,0.621,0.498h1.899c0.344,0,0.622-0.225,0.622-0.498V6.799
		C7.835,6.523,7.557,6.301,7.214,6.301z"/>
</g>
<g>
</g>
<g>
</g>
<g>
</g>
<g>
</g>
<g>
</g>
<g>
</g>
<g>
</g>
<g>
</g>
<g>
</g>
<g>
</g>
<g>
</g>
<g>
</g>
<g>
</g>
<g>
</g>
<g>
</g>
</svg>
