<svg width="292" height="64" viewBox="0 0 292 64" fill="none" xmlns="http://www.w3.org/2000/svg">
<rect x="0.305664" y="10.9976" width="42.6869" height="41.3766" rx="20.6883" fill="#7E57C2"/>
<path d="M23.634 22.2293C23.6237 20.8847 21.871 20.3758 21.1432 21.5061L13.2284 33.7966C12.6462 34.7007 13.3009 35.8904 14.3765 35.8827L18.4231 35.8537C19.1731 35.8483 19.7847 36.4541 19.7865 37.2041L19.7987 42.2955C19.8019 43.638 21.5475 44.1577 22.2835 43.0352L30.4149 30.6343C31.0119 29.7237 30.3431 28.5164 29.2543 28.5391L25.0545 28.6269C24.3001 28.6427 23.6783 28.0383 23.6725 27.2838L23.634 22.2293Z" fill="white"/>
<path fill-rule="evenodd" clip-rule="evenodd" d="M226.621 0C231.628 0 235.688 4.05923 235.688 9.06654V54.5523C235.688 59.5596 231.628 63.6188 226.621 63.6188H74.3544C69.3471 63.6188 65.2879 59.5596 65.2879 54.5523V42.045L53.5485 33.234C52.1679 32.1978 52.1679 30.1266 53.5485 29.0904L65.2879 20.2793V9.06653C65.2879 4.05922 69.3471 0 74.3544 0H226.621Z" fill="#EBEBFE"/>
<path d="M88.5111 26H86.4906V16.3773H81.1132V26H79.0771V14.6556H88.5111V26ZM95.0442 17.5251C97.159 17.5251 98.5033 19.1682 98.5033 21.8333C98.5033 24.4906 97.1668 26.1336 95.0756 26.1336C93.8649 26.1336 92.9215 25.5519 92.4655 24.6163H92.4262V28.7437H90.4687V17.6666H92.379V19.1053H92.4184C92.8901 18.1383 93.8335 17.5251 95.0442 17.5251ZM94.4467 24.5299C95.7124 24.5299 96.4986 23.4843 96.4986 21.8333C96.4986 20.1902 95.7124 19.1367 94.4467 19.1367C93.2281 19.1367 92.4184 20.2138 92.4105 21.8333C92.4184 23.4685 93.2281 24.5299 94.4467 24.5299ZM101.845 26H99.9263V17.6666H101.845V23.2327H101.907L105.532 17.6666H107.45V26H105.532V20.3946H105.469L101.845 26ZM112.702 18.9952H111.121V21.0707H112.552C113.464 21.0707 113.936 20.7091 113.936 20.0172C113.936 19.3647 113.496 18.9952 112.702 18.9952ZM112.67 22.3129H111.121V24.6714H112.827C113.755 24.6714 114.266 24.2547 114.266 23.4921C114.266 22.7138 113.724 22.3129 112.67 22.3129ZM109.203 26V17.6666H113.158C114.84 17.6666 115.846 18.4606 115.846 19.7814C115.846 20.654 115.209 21.4324 114.384 21.5739V21.6368C115.477 21.7783 116.216 22.5487 116.216 23.5943C116.216 25.0645 115.068 26 113.22 26H109.203ZM121.263 19.011C120.162 19.011 119.368 19.8522 119.29 21.0157H123.181C123.142 19.8364 122.387 19.011 121.263 19.011ZM123.189 23.5078H125.021C124.769 25.0802 123.307 26.1651 121.334 26.1651C118.834 26.1651 117.324 24.522 117.324 21.8647C117.324 19.2311 118.849 17.4936 121.255 17.4936C123.621 17.4936 125.099 19.1367 125.099 21.6682V22.305H119.274V22.4229C119.274 23.7594 120.092 24.6556 121.373 24.6556C122.285 24.6556 122.977 24.1997 123.189 23.5078ZM132.725 17.6666V19.176H130.162V26H128.221V19.176H125.658V17.6666H132.725ZM134.895 28.3978H133.394L134.046 24.1289H135.956L134.895 28.3978ZM143.401 21.4559C143.315 22.7295 143.158 23.6022 142.631 24.2233V24.2862H147.584V16.3616H143.724L143.401 21.4559ZM141.412 26V28.2406H139.565V24.2862H140.375C141.177 23.783 141.436 22.8475 141.523 21.3302L141.931 14.6556H149.604V24.2862H151.019V28.2406H149.18V26H141.412ZM160.556 21.566L163.96 26H161.593L158.755 22.2736H158.692V26H156.758V22.2736H156.703L153.858 26H151.515L154.895 21.5896L151.617 17.6666H153.905L156.703 21.1415H156.758V17.6666H158.692V21.1415H158.755L161.546 17.6666H163.81L160.556 21.566ZM168.37 26.1651C165.925 26.1651 164.337 24.5377 164.337 21.8333C164.337 19.1446 165.941 17.4936 168.37 17.4936C170.799 17.4936 172.403 19.1367 172.403 21.8333C172.403 24.5377 170.815 26.1651 168.37 26.1651ZM168.37 24.6163C169.612 24.6163 170.414 23.61 170.414 21.8333C170.414 20.0644 169.612 19.0503 168.37 19.0503C167.136 19.0503 166.326 20.0644 166.326 21.8333C166.326 23.61 167.128 24.6163 168.37 24.6163ZM179.282 26V22.4622H175.76V26H173.81V17.6666H175.76V20.9528H179.282V17.6666H181.232V26H179.282ZM183.512 14.6556H185.532L185.375 22.2578H183.669L183.512 14.6556ZM184.518 26.1572C183.881 26.1572 183.378 25.6619 183.378 25.0409C183.378 24.4198 183.881 23.9324 184.518 23.9324C185.163 23.9324 185.666 24.4198 185.666 25.0409C185.666 25.6619 185.163 26.1572 184.518 26.1572ZM88.6447 48H86.6243V43.0786H81.1054V48H79.0771V36.6556H81.1054V41.3726H86.6243V36.6556H88.6447V48ZM91.5378 51.0975C91.4278 51.0975 90.8696 51.0896 90.7674 51.0661V49.5173C90.8696 49.5409 91.2155 49.5488 91.3334 49.5488C92.1432 49.5488 92.5599 49.2421 92.78 48.4717C92.78 48.4481 92.8979 48.0314 92.8901 48.0079L89.9262 39.6666H92.0646L94.03 46.3333H94.0614L96.0269 39.6666H98.0866L95.0756 48.3302C94.3602 50.3978 93.4404 51.0975 91.5378 51.0975ZM107.348 43.566L110.752 48H108.385L105.547 44.2736H105.484V48H103.551V44.2736H103.495L100.65 48H98.3068L101.687 43.5896L98.409 39.6666H100.697L103.495 43.1415H103.551V39.6666H105.484V43.1415H105.547L108.338 39.6666H110.602L107.348 43.566ZM117.222 48V44.4622H113.7V48H111.75V39.6666H113.7V42.9528H117.222V39.6666H119.172V48H117.222ZM123.983 46.6556C125.092 46.6556 125.98 45.9167 125.98 44.9104V44.2736L124.054 44.3915C123.11 44.4544 122.568 44.8789 122.568 45.5393C122.568 46.2233 123.134 46.6556 123.983 46.6556ZM123.393 48.1336C121.782 48.1336 120.61 47.1195 120.61 45.6179C120.61 44.1399 121.75 43.2515 123.779 43.1257L125.98 43V42.4025C125.98 41.5298 125.39 41.0267 124.423 41.0267C123.496 41.0267 122.906 41.4748 122.78 42.1666H120.964C121.051 40.61 122.379 39.4936 124.502 39.4936C126.57 39.4936 127.914 40.5864 127.914 42.261V48H126.027V46.6714H125.988C125.508 47.5755 124.463 48.1336 123.393 48.1336ZM138.244 48V41.176H134.801V48H132.851V39.6666H140.202V48H138.244ZM145.65 48.1651C143.205 48.1651 141.617 46.5377 141.617 43.8333C141.617 41.1446 143.221 39.4936 145.65 39.4936C148.079 39.4936 149.683 41.1367 149.683 43.8333C149.683 46.5377 148.095 48.1651 145.65 48.1651ZM145.65 46.6163C146.892 46.6163 147.694 45.61 147.694 43.8333C147.694 42.0644 146.892 41.0503 145.65 41.0503C144.416 41.0503 143.606 42.0644 143.606 43.8333C143.606 45.61 144.408 46.6163 145.65 46.6163ZM152.953 48H151.09V39.6666H153.582L156.043 45.4843H156.106L158.567 39.6666H161.02V48H159.156V42.3003H159.093L156.743 47.6148H155.359L153.008 42.3003H152.953V48ZM166.468 48.1651C164.023 48.1651 162.435 46.5377 162.435 43.8333C162.435 41.1446 164.038 39.4936 166.468 39.4936C168.897 39.4936 170.501 41.1367 170.501 43.8333C170.501 46.5377 168.913 48.1651 166.468 48.1651ZM166.468 46.6163C167.71 46.6163 168.512 45.61 168.512 43.8333C168.512 42.0644 167.71 41.0503 166.468 41.0503C165.233 41.0503 164.424 42.0644 164.424 43.8333C164.424 45.61 165.226 46.6163 166.468 46.6163ZM184.18 50.1777H182.388V48H171.908V39.6666H173.858V46.4906H176.444V39.6666H178.394V46.4906H180.988V39.6666H182.938V46.4906H184.18V50.1777ZM188.583 43.6525H187.223V46.4984H188.583C189.495 46.4984 190.084 45.9245 190.084 45.0754C190.084 44.2185 189.487 43.6525 188.583 43.6525ZM185.273 48V39.6666H187.223V42.1666H188.834C190.776 42.1666 192.026 43.2987 192.026 45.0833C192.026 46.8679 190.776 48 188.834 48H185.273ZM192.938 39.7609C193.001 37.9134 194.282 36.5612 196.617 36.5612C198.771 36.5612 200.21 37.8034 200.21 39.533C200.21 40.7358 199.613 41.577 198.543 42.2138C197.514 42.8113 197.223 43.2201 197.223 44.0063V44.4622H195.399L195.391 43.9041C195.32 42.7405 195.776 42.033 196.861 41.3962C197.836 40.8065 198.166 40.382 198.166 39.6037C198.166 38.7704 197.506 38.165 196.515 38.165C195.501 38.165 194.848 38.7861 194.785 39.7609H192.938ZM196.334 48.1572C195.697 48.1572 195.186 47.6619 195.186 47.0409C195.186 46.4198 195.697 45.9324 196.334 45.9324C196.971 45.9324 197.474 46.4198 197.474 47.0409C197.474 47.6619 196.971 48.1572 196.334 48.1572Z" fill="#636884"/>
</svg>
