<svg width="292" height="107" viewBox="0 0 292 107" fill="none" xmlns="http://www.w3.org/2000/svg">
<g clip-path="url(#clip0_476_12708)">
<rect x="0.617188" y="31.9976" width="42.6869" height="41.3766" rx="20.6883" fill="#7E57C2"/>
<path d="M23.9455 43.2293C23.9353 41.8847 22.1826 41.3758 21.4547 42.5061L13.5399 54.7966C12.9577 55.7007 13.6124 56.8904 14.688 56.8827L18.7346 56.8537C19.4847 56.8483 20.0962 57.4541 20.098 58.2041L20.1102 63.2955C20.1135 64.638 21.859 65.1577 22.595 64.0352L30.7264 51.6343C31.3234 50.7237 30.6547 49.5164 29.5658 49.5391L25.366 49.6269C24.6116 49.6427 23.9898 49.0383 23.984 48.2838L23.9455 43.2293Z" fill="white"/>
<path fill-rule="evenodd" clip-rule="evenodd" d="M282.933 0C287.941 0 292 4.05922 292 9.06653V97.9335C292 102.941 287.941 107 282.933 107H75.0665C70.0592 107 66 102.941 66 97.9335V64.0206L53.8611 54.9096C52.4805 53.8734 52.4805 51.8023 53.8611 50.766L66 41.6551V9.06653C66 4.05923 70.0592 0 75.0665 0H282.933Z" fill="#EBEBFE"/>
<path d="M92.6447 29H90.6243V24.0786H85.1054V29H83.0771V17.6556H85.1054V22.3726H90.6243V17.6556H92.6447V29ZM97.6526 27.6556C98.7611 27.6556 99.6495 26.9167 99.6495 25.9104V25.2736L97.7234 25.3915C96.78 25.4544 96.2375 25.8789 96.2375 26.5393C96.2375 27.2233 96.8036 27.6556 97.6526 27.6556ZM97.063 29.1336C95.4514 29.1336 94.28 28.1195 94.28 26.6179C94.28 25.1399 95.4199 24.2515 97.4482 24.1257L99.6495 24V23.4025C99.6495 22.5298 99.0599 22.0267 98.0929 22.0267C97.1652 22.0267 96.5756 22.4748 96.4498 23.1666H94.6337C94.7202 21.61 96.0489 20.4936 98.1715 20.4936C100.239 20.4936 101.583 21.5864 101.583 23.261V29H99.6967V27.6714H99.6574C99.1778 28.5755 98.1322 29.1336 97.063 29.1336ZM105.161 29H103.297V20.6666H105.789L108.25 26.4843H108.313L110.774 20.6666H113.227V29H111.363V23.3003H111.301L108.95 28.6148H107.566L105.216 23.3003H105.161V29ZM123.596 29V22.176H120.153V29H118.203V20.6666H125.554V29H123.596ZM131.002 29.1651C128.557 29.1651 126.969 27.5377 126.969 24.8333C126.969 22.1446 128.573 20.4936 131.002 20.4936C133.431 20.4936 135.035 22.1367 135.035 24.8333C135.035 27.5377 133.447 29.1651 131.002 29.1651ZM131.002 27.6163C132.244 27.6163 133.046 26.61 133.046 24.8333C133.046 23.0644 132.244 22.0503 131.002 22.0503C129.768 22.0503 128.958 23.0644 128.958 24.8333C128.958 26.61 129.76 27.6163 131.002 27.6163ZM142.7 20.6666V22.176H140.137V29H138.195V22.176H135.632V20.6666H142.7ZM148.494 20.5251C150.609 20.5251 151.953 22.1682 151.953 24.8333C151.953 27.4906 150.617 29.1336 148.526 29.1336C147.315 29.1336 146.372 28.5519 145.916 27.6163H145.876V31.7437H143.919V20.6666H145.829V22.1053H145.868C146.34 21.1383 147.284 20.5251 148.494 20.5251ZM147.897 27.5299C149.162 27.5299 149.949 26.4843 149.949 24.8333C149.949 23.1902 149.162 22.1367 147.897 22.1367C146.678 22.1367 145.868 23.2138 145.861 24.8333C145.868 26.4685 146.678 27.5299 147.897 27.5299ZM156.977 22.011C155.876 22.011 155.082 22.8522 155.004 24.0157H158.895C158.856 22.8364 158.101 22.011 156.977 22.011ZM158.903 26.5078H160.735C160.483 28.0802 159.021 29.1651 157.048 29.1651C154.548 29.1651 153.038 27.522 153.038 24.8647C153.038 22.2311 154.563 20.4936 156.969 20.4936C159.336 20.4936 160.814 22.1367 160.814 24.6682V25.305H154.988V25.4229C154.988 26.7594 155.806 27.6556 157.087 27.6556C157.999 27.6556 158.691 27.1997 158.903 26.5078ZM166.034 29.1651C163.392 29.1651 161.93 27.467 161.93 24.1886C161.93 19.5345 163.384 17.687 166.498 17.577L167.339 17.5534C168.306 17.5141 169.218 17.3411 169.524 17.176V18.7405C169.351 18.8977 168.534 19.11 167.457 19.1493L166.647 19.1729C164.493 19.2436 163.77 20.2342 163.479 22.4905H163.542C164.06 21.4921 165.043 20.9418 166.372 20.9418C168.628 20.9418 170.075 22.4905 170.075 24.9355C170.075 27.5534 168.534 29.1651 166.034 29.1651ZM166.01 27.577C167.307 27.577 168.07 26.6415 168.07 24.9748C168.07 23.3789 167.307 22.4669 166.01 22.4669C164.705 22.4669 163.935 23.3789 163.935 24.9748C163.935 26.6415 164.697 27.577 166.01 27.577ZM172.205 32.0975C172.095 32.0975 171.537 32.0896 171.435 32.0661V30.5173C171.537 30.5409 171.883 30.5488 172.001 30.5488C172.81 30.5488 173.227 30.2421 173.447 29.4717C173.447 29.4481 173.565 29.0314 173.557 29.0079L170.593 20.6666H172.732L174.697 27.3333H174.729L176.694 20.6666H178.754L175.743 29.3302C175.027 31.3978 174.108 32.0975 172.205 32.0975ZM183.204 22.011C182.103 22.011 181.309 22.8522 181.23 24.0157H185.122C185.083 22.8364 184.328 22.011 183.204 22.011ZM185.13 26.5078H186.962C186.71 28.0802 185.248 29.1651 183.274 29.1651C180.774 29.1651 179.265 27.522 179.265 24.8647C179.265 22.2311 180.79 20.4936 183.196 20.4936C185.562 20.4936 187.04 22.1367 187.04 24.6682V25.305H181.215V25.4229C181.215 26.7594 182.032 27.6556 183.314 27.6556C184.226 27.6556 184.917 27.1997 185.13 26.5078ZM194.666 20.6666V22.176H192.103V29H190.161V22.176H187.598V20.6666H194.666ZM203.007 23.4103H201.152C200.947 22.6635 200.35 22.0817 199.375 22.0817C198.141 22.0817 197.355 23.143 197.355 24.8333C197.355 26.555 198.149 27.5849 199.383 27.5849C200.326 27.5849 200.947 27.0975 201.168 26.2641H203.023C202.787 28.0094 201.403 29.1651 199.367 29.1651C196.93 29.1651 195.381 27.5141 195.381 24.8333C195.381 22.1918 196.93 20.4936 199.352 20.4936C201.451 20.4936 202.779 21.783 203.007 23.4103ZM207.551 24.7783H208.998V22.1603H207.551C206.655 22.1603 206.081 22.6792 206.081 23.5047C206.081 24.2437 206.655 24.7783 207.551 24.7783ZM208.998 29V26.2091H207.881L205.94 29H203.754L205.995 25.9025C204.839 25.5487 204.139 24.6918 204.139 23.5125C204.139 21.7594 205.421 20.6666 207.402 20.6666H210.916V29H208.998ZM218.463 23.9449V22.4198H219.831C220.995 22.4198 221.789 21.7043 221.789 20.6902C221.789 19.6996 221.097 19.0392 219.823 19.0392C218.652 19.0392 217.866 19.7232 217.787 20.7845H215.9C216.01 18.7483 217.575 17.4276 219.918 17.4276C222.15 17.4276 223.739 18.6461 223.739 20.415C223.739 21.8223 222.795 22.8364 221.396 23.0801V23.1273C223.094 23.2531 224.194 24.2908 224.194 25.871C224.194 27.8758 222.371 29.228 219.894 29.228C217.402 29.228 215.782 27.8601 215.68 25.8396H217.614C217.709 26.8773 218.558 27.5692 219.91 27.5692C221.215 27.5692 222.135 26.838 222.135 25.7924C222.135 24.6446 221.27 23.9449 219.863 23.9449H218.463ZM230.028 29.228C227.245 29.228 225.586 26.956 225.586 23.316C225.586 19.6918 227.261 17.4276 230.028 17.4276C232.787 17.4276 234.454 19.676 234.454 23.3081C234.454 26.9402 232.803 29.228 230.028 29.228ZM230.028 27.5692C231.529 27.5692 232.402 25.989 232.402 23.316C232.402 20.6666 231.514 19.0864 230.028 19.0864C228.534 19.0864 227.63 20.6823 227.63 23.3081C227.63 25.9811 228.518 27.5692 230.028 27.5692ZM84.7359 49H82.8726V40.6666H85.3648L87.8255 46.4843H87.8884L90.3491 40.6666H92.802V49H90.9387V43.3003H90.8759L88.5252 48.6148H87.1415L84.7909 43.3003H84.7359V49ZM96.4734 49H94.5551V40.6666H96.4734V46.2327H96.5363L100.161 40.6666H102.079V49H100.161V43.3946H100.098L96.4734 49ZM109.304 49V45.4622H105.782V49H103.832V40.6666H105.782V43.9528H109.304V40.6666H111.253V49H109.304ZM113.95 52.0975C113.84 52.0975 113.282 52.0896 113.179 52.0661V50.5173C113.282 50.5409 113.628 50.5488 113.746 50.5488C114.555 50.5488 114.972 50.2421 115.192 49.4717C115.192 49.4481 115.31 49.0314 115.302 49.0079L112.338 40.6666H114.477L116.442 47.3333H116.474L118.439 40.6666H120.499L117.488 49.3302C116.772 51.3978 115.852 52.0975 113.95 52.0975ZM128.109 40.6666V42.176H125.546V49H123.604V42.176H121.041V40.6666H128.109ZM130.279 51.3978H128.777L129.43 47.1289H131.34L130.279 51.3978ZM142.629 49H140.68V45.4858H140.585C140.129 45.9418 139.422 46.2484 138.486 46.2484C136.552 46.2484 135.436 45.0534 135.436 43.2059V40.6666H137.378V42.9858C137.378 43.9921 137.936 44.6132 138.927 44.6132C139.783 44.6132 140.365 44.283 140.68 43.8899V40.6666H142.629V49ZM150.908 40.6666V42.176H148.345V49H146.403V42.176H143.84V40.6666H150.908ZM155.656 49.1651C153.211 49.1651 151.623 47.5377 151.623 44.8333C151.623 42.1446 153.227 40.4936 155.656 40.4936C158.085 40.4936 159.689 42.1367 159.689 44.8333C159.689 47.5377 158.101 49.1651 155.656 49.1651ZM155.656 47.6163C156.898 47.6163 157.7 46.61 157.7 44.8333C157.7 43.0644 156.898 42.0503 155.656 42.0503C154.422 42.0503 153.612 43.0644 153.612 44.8333C153.612 46.61 154.414 47.6163 155.656 47.6163ZM164.917 49.1651C162.276 49.1651 160.814 47.467 160.814 44.1886C160.814 39.5345 162.268 37.687 165.381 37.577L166.222 37.5534C167.189 37.5141 168.101 37.3411 168.408 37.176V38.7405C168.235 38.8977 167.417 39.11 166.34 39.1493L165.531 39.1729C163.376 39.2436 162.653 40.2342 162.362 42.4905H162.425C162.944 41.4921 163.927 40.9418 165.255 40.9418C167.512 40.9418 168.958 42.4905 168.958 44.9355C168.958 47.5534 167.417 49.1651 164.917 49.1651ZM164.894 47.577C166.191 47.577 166.953 46.6415 166.953 44.9748C166.953 43.3789 166.191 42.4669 164.894 42.4669C163.589 42.4669 162.818 43.3789 162.818 44.9748C162.818 46.6415 163.581 47.577 164.894 47.577ZM178.023 49V40.6666H179.965V49H178.023ZM173.683 44.6525H172.323V47.4984H173.683C174.595 47.4984 175.185 46.9245 175.185 46.0754C175.185 45.2185 174.587 44.6525 173.683 44.6525ZM170.373 49V40.6666H172.323V43.1666H173.935C175.877 43.1666 177.127 44.2987 177.127 46.0833C177.127 47.8679 175.877 49 173.935 49H170.373ZM87.456 60.5251C89.5708 60.5251 90.9152 62.1682 90.9152 64.8333C90.9152 67.4906 89.5787 69.1336 87.4875 69.1336C86.2768 69.1336 85.3334 68.5519 84.8774 67.6163H84.8381V71.7437H82.8805V60.6666H84.7909V62.1053H84.8302C85.3019 61.1383 86.2453 60.5251 87.456 60.5251ZM86.8585 67.5299C88.1243 67.5299 88.9104 66.4843 88.9104 64.8333C88.9104 63.1902 88.1243 62.1367 86.8585 62.1367C85.64 62.1367 84.8302 63.2138 84.8223 64.8333C84.8302 66.4685 85.64 67.5299 86.8585 67.5299ZM95.3885 67.6556C96.497 67.6556 97.3853 66.9167 97.3853 65.9104V65.2736L95.4592 65.3915C94.5158 65.4544 93.9734 65.8789 93.9734 66.5393C93.9734 67.2233 94.5394 67.6556 95.3885 67.6556ZM94.7988 69.1336C93.1872 69.1336 92.0158 68.1195 92.0158 66.6179C92.0158 65.1399 93.1557 64.2515 95.1841 64.1257L97.3853 64V63.4025C97.3853 62.5298 96.7957 62.0267 95.8287 62.0267C94.901 62.0267 94.3114 62.4748 94.1856 63.1666H92.3696C92.4561 61.61 93.7847 60.4936 95.9073 60.4936C97.975 60.4936 99.3193 61.5864 99.3193 63.261V69H97.4325V67.6714H97.3932C96.9136 68.5755 95.868 69.1336 94.7988 69.1336ZM108.321 63.4103H106.466C106.261 62.6635 105.664 62.0817 104.689 62.0817C103.455 62.0817 102.668 63.143 102.668 64.8333C102.668 66.555 103.462 67.5849 104.697 67.5849C105.64 67.5849 106.261 67.0975 106.481 66.2641H108.337C108.101 68.0094 106.717 69.1651 104.681 69.1651C102.244 69.1651 100.695 67.5141 100.695 64.8333C100.695 62.1918 102.244 60.4936 104.665 60.4936C106.764 60.4936 108.093 61.783 108.321 63.4103ZM116.937 63.4103H115.082C114.878 62.6635 114.28 62.0817 113.305 62.0817C112.071 62.0817 111.285 63.143 111.285 64.8333C111.285 66.555 112.079 67.5849 113.313 67.5849C114.257 67.5849 114.878 67.0975 115.098 66.2641H116.953C116.717 68.0094 115.334 69.1651 113.297 69.1651C110.86 69.1651 109.312 67.5141 109.312 64.8333C109.312 62.1918 110.86 60.4936 113.282 60.4936C115.381 60.4936 116.709 61.783 116.937 63.4103ZM120.129 69H118.266V60.6666H120.758L123.219 66.4843H123.282L125.742 60.6666H128.195V69H126.332V63.3003H126.269L123.919 68.6148H122.535L120.184 63.3003H120.129V69ZM133.643 69.1651C131.198 69.1651 129.61 67.5377 129.61 64.8333C129.61 62.1446 131.214 60.4936 133.643 60.4936C136.073 60.4936 137.677 62.1367 137.677 64.8333C137.677 67.5377 136.088 69.1651 133.643 69.1651ZM133.643 67.6163C134.886 67.6163 135.688 66.61 135.688 64.8333C135.688 63.0644 134.886 62.0503 133.643 62.0503C132.409 62.0503 131.599 63.0644 131.599 64.8333C131.599 66.61 132.401 67.6163 133.643 67.6163ZM145.342 60.6666V62.176H142.779V69H140.837V62.176H138.274V60.6666H145.342ZM151.136 60.5251C153.251 60.5251 154.595 62.1682 154.595 64.8333C154.595 67.4906 153.258 69.1336 151.167 69.1336C149.956 69.1336 149.013 68.5519 148.557 67.6163H148.518V71.7437H146.56V60.6666H148.471V62.1053H148.51C148.982 61.1383 149.925 60.5251 151.136 60.5251ZM150.538 67.5299C151.804 67.5299 152.59 66.4843 152.59 64.8333C152.59 63.1902 151.804 62.1367 150.538 62.1367C149.32 62.1367 148.51 63.2138 148.502 64.8333C148.51 66.4685 149.32 67.5299 150.538 67.5299ZM159.619 62.011C158.518 62.011 157.724 62.8522 157.645 64.0157H161.537C161.497 62.8364 160.743 62.011 159.619 62.011ZM161.545 66.5078H163.376C163.125 68.0802 161.663 69.1651 159.689 69.1651C157.189 69.1651 155.68 67.522 155.68 64.8647C155.68 62.2311 157.205 60.4936 159.611 60.4936C161.977 60.4936 163.455 62.1367 163.455 64.6682V65.305H157.63V65.4229C157.63 66.7594 158.447 67.6556 159.729 67.6556C160.641 67.6556 161.332 67.1997 161.545 66.5078ZM171.081 60.6666V62.176H168.518V69H166.576V62.176H164.013V60.6666H171.081ZM175.601 64.6525H174.241V67.4984H175.601C176.513 67.4984 177.103 66.9245 177.103 66.0754C177.103 65.2185 176.505 64.6525 175.601 64.6525ZM172.292 69V60.6666H174.241V63.1666H175.853C177.795 63.1666 179.045 64.2987 179.045 66.0833C179.045 67.8679 177.795 69 175.853 69H172.292ZM185.546 69H183.628V60.6666H185.546V66.2327H185.609L189.234 60.6666H191.152V69H189.234V63.3946H189.171L185.546 69ZM199.823 69.1651C197.378 69.1651 195.79 67.5377 195.79 64.8333C195.79 62.1446 197.394 60.4936 199.823 60.4936C202.253 60.4936 203.856 62.1367 203.856 64.8333C203.856 67.5377 202.268 69.1651 199.823 69.1651ZM199.823 67.6163C201.065 67.6163 201.867 66.61 201.867 64.8333C201.867 63.0644 201.065 62.0503 199.823 62.0503C198.589 62.0503 197.779 63.0644 197.779 64.8333C197.779 66.61 198.581 67.6163 199.823 67.6163ZM210.68 67.4906V62.1682H207.96L207.748 65.1163C207.685 66.0597 207.496 66.8773 207.111 67.4277V67.4906H210.68ZM206.191 71.1777H204.399V67.4906H205.059C205.672 67.1289 205.924 66.1383 206.003 65.0141L206.293 60.6666H212.63V67.4906H213.896V71.1777H212.103V69H206.191V71.1777ZM218.66 69.1651C216.215 69.1651 214.627 67.5377 214.627 64.8333C214.627 62.1446 216.231 60.4936 218.66 60.4936C221.089 60.4936 222.693 62.1367 222.693 64.8333C222.693 67.5377 221.105 69.1651 218.66 69.1651ZM218.66 67.6163C219.902 67.6163 220.704 66.61 220.704 64.8333C220.704 63.0644 219.902 62.0503 218.66 62.0503C217.426 62.0503 216.616 63.0644 216.616 64.8333C216.616 66.61 217.418 67.6163 218.66 67.6163ZM227.921 69.1651C225.279 69.1651 223.817 67.467 223.817 64.1886C223.817 59.5345 225.272 57.687 228.385 57.577L229.226 57.5534C230.193 57.5141 231.105 57.3411 231.412 57.176V58.7405C231.239 58.8977 230.421 59.11 229.344 59.1493L228.534 59.1729C226.38 59.2436 225.657 60.2342 225.366 62.4905H225.429C225.948 61.4921 226.93 60.9418 228.259 60.9418C230.515 60.9418 231.962 62.4905 231.962 64.9355C231.962 67.5534 230.421 69.1651 227.921 69.1651ZM227.897 67.577C229.195 67.577 229.957 66.6415 229.957 64.9748C229.957 63.3789 229.195 62.4669 227.897 62.4669C226.592 62.4669 225.822 63.3789 225.822 64.9748C225.822 66.6415 226.584 67.577 227.897 67.577ZM237.96 60.5251C240.075 60.5251 241.419 62.1682 241.419 64.8333C241.419 67.4906 240.083 69.1336 237.992 69.1336C236.781 69.1336 235.838 68.5519 235.382 67.6163H235.342V71.7437H233.385V60.6666H235.295V62.1053H235.335C235.806 61.1383 236.75 60.5251 237.96 60.5251ZM237.363 67.5299C238.629 67.5299 239.415 66.4843 239.415 64.8333C239.415 63.1902 238.629 62.1367 237.363 62.1367C236.144 62.1367 235.335 63.2138 235.327 64.8333C235.335 66.4685 236.144 67.5299 237.363 67.5299ZM244.761 69H242.842V60.6666H244.761V66.2327H244.824L248.448 60.6666H250.366V69H248.448V63.3946H248.385L244.761 69ZM258.644 60.6666V62.176H256.082V69H254.14V62.176H251.577V60.6666H258.644ZM263.165 64.6525H261.805V67.4984H263.165C264.077 67.4984 264.667 66.9245 264.667 66.0754C264.667 65.2185 264.069 64.6525 263.165 64.6525ZM259.855 69V60.6666H261.805V63.1666H263.416C265.358 63.1666 266.608 64.2987 266.608 66.0833C266.608 67.8679 265.358 69 263.416 69H259.855ZM86.3711 81.9952H84.7909V84.0707H86.2217C87.1337 84.0707 87.6054 83.7091 87.6054 83.0172C87.6054 82.3647 87.1651 81.9952 86.3711 81.9952ZM86.3397 85.3129H84.7909V87.6714H86.4969C87.4246 87.6714 87.9356 87.2547 87.9356 86.4921C87.9356 85.7138 87.3931 85.3129 86.3397 85.3129ZM82.8726 89V80.6666H86.8271C88.5095 80.6666 89.5158 81.4606 89.5158 82.7814C89.5158 83.654 88.879 84.4324 88.0535 84.5739V84.6368C89.1463 84.7783 89.8853 85.5487 89.8853 86.5943C89.8853 88.0645 88.7375 89 86.89 89H82.8726ZM94.3822 87.6556C95.4907 87.6556 96.379 86.9167 96.379 85.9104V85.2736L94.4529 85.3915C93.5095 85.4544 92.9671 85.8789 92.9671 86.5393C92.9671 87.2233 93.5331 87.6556 94.3822 87.6556ZM93.7925 89.1336C92.1809 89.1336 91.0095 88.1195 91.0095 86.6179C91.0095 85.1399 92.1494 84.2515 94.1778 84.1257L96.379 84V83.4025C96.379 82.5298 95.7894 82.0267 94.8224 82.0267C93.8947 82.0267 93.3051 82.4748 93.1793 83.1666H91.3633C91.4498 81.61 92.7784 80.4936 94.901 80.4936C96.9687 80.4936 98.313 81.5864 98.313 83.261V89H96.4262V87.6714H96.3869C95.9073 88.5755 94.8617 89.1336 93.7925 89.1336ZM100.027 89V80.6666H101.977V87.4906H104.563V80.6666H106.513V87.4906H109.107V80.6666H111.057V89H100.027ZM119.202 89.1651C117.15 89.1651 115.774 88.1667 115.617 86.5236H117.519C117.692 87.239 118.29 87.6242 119.202 87.6242C120.208 87.6242 120.774 87.1604 120.774 86.4843C120.774 85.7295 120.247 85.3836 119.202 85.3836H118.014V84.0314H119.162C120.051 84.0314 120.514 83.7012 120.514 83.0251C120.514 82.4276 120.082 82.011 119.178 82.011C118.321 82.011 117.755 82.3883 117.645 83.033H115.79C115.955 81.4606 117.228 80.4936 119.178 80.4936C121.277 80.4936 122.425 81.3977 122.425 82.8286C122.425 83.6698 121.922 84.3695 121.12 84.5817V84.6446C122.165 84.8962 122.716 85.5802 122.716 86.5157C122.716 88.1274 121.348 89.1651 119.202 89.1651ZM127.213 87.6556C128.321 87.6556 129.209 86.9167 129.209 85.9104V85.2736L127.283 85.3915C126.34 85.4544 125.798 85.8789 125.798 86.5393C125.798 87.2233 126.364 87.6556 127.213 87.6556ZM126.623 89.1336C125.011 89.1336 123.84 88.1195 123.84 86.6179C123.84 85.1399 124.98 84.2515 127.008 84.1257L129.209 84V83.4025C129.209 82.5298 128.62 82.0267 127.653 82.0267C126.725 82.0267 126.136 82.4748 126.01 83.1666H124.194C124.28 81.61 125.609 80.4936 127.731 80.4936C129.799 80.4936 131.143 81.5864 131.143 83.261V89H129.257V87.6714H129.217C128.738 88.5755 127.692 89.1336 126.623 89.1336ZM138.25 89V82.176H134.807V89H132.857V80.6666H140.208V89H138.25ZM146.545 80.5251C148.659 80.5251 150.004 82.1682 150.004 84.8333C150.004 87.4906 148.667 89.1336 146.576 89.1336C145.365 89.1336 144.422 88.5519 143.966 87.6163H143.927V91.7437H141.969V80.6666H143.879V82.1053H143.919C144.39 81.1383 145.334 80.5251 146.545 80.5251ZM145.947 87.5299C147.213 87.5299 147.999 86.4843 147.999 84.8333C147.999 83.1902 147.213 82.1367 145.947 82.1367C144.728 82.1367 143.919 83.2138 143.911 84.8333C143.919 86.4685 144.728 87.5299 145.947 87.5299ZM155.122 89.1651C152.677 89.1651 151.089 87.5377 151.089 84.8333C151.089 82.1446 152.692 80.4936 155.122 80.4936C157.551 80.4936 159.155 82.1367 159.155 84.8333C159.155 87.5377 157.567 89.1651 155.122 89.1651ZM155.122 87.6163C156.364 87.6163 157.166 86.61 157.166 84.8333C157.166 83.0644 156.364 82.0503 155.122 82.0503C153.887 82.0503 153.078 83.0644 153.078 84.8333C153.078 86.61 153.879 87.6163 155.122 87.6163ZM167.85 83.4103H165.994C165.79 82.6635 165.192 82.0817 164.218 82.0817C162.983 82.0817 162.197 83.143 162.197 84.8333C162.197 86.555 162.991 87.5849 164.225 87.5849C165.169 87.5849 165.79 87.0975 166.01 86.2641H167.865C167.63 88.0094 166.246 89.1651 164.21 89.1651C161.773 89.1651 160.224 87.5141 160.224 84.8333C160.224 82.1918 161.773 80.4936 164.194 80.4936C166.293 80.4936 167.622 81.783 167.85 83.4103Z" fill="#636884"/>
</g>
<defs>
<clipPath id="clip0_476_12708">
<rect width="292" height="107" fill="white"/>
</clipPath>
</defs>
</svg>
