<svg width="292" height="107" viewBox="0 0 292 107" fill="none" xmlns="http://www.w3.org/2000/svg">
<g clip-path="url(#clip0_476_12670)">
<rect x="0.617188" y="31.9976" width="42.6869" height="41.3766" rx="20.6883" fill="#7E57C2"/>
<path d="M23.9455 43.2293C23.9353 41.8847 22.1826 41.3758 21.4547 42.5061L13.5399 54.7966C12.9577 55.7007 13.6124 56.8904 14.688 56.8827L18.7346 56.8537C19.4847 56.8483 20.0962 57.4541 20.098 58.2041L20.1102 63.2955C20.1135 64.638 21.859 65.1577 22.595 64.0352L30.7264 51.6343C31.3234 50.7237 30.6547 49.5164 29.5658 49.5391L25.366 49.6269C24.6116 49.6427 23.9898 49.0383 23.984 48.2838L23.9455 43.2293Z" fill="white"/>
<path fill-rule="evenodd" clip-rule="evenodd" d="M282.933 0C287.941 0 292 4.05922 292 9.06653V97.9335C292 102.941 287.941 107 282.933 107H75.0665C70.0592 107 66 102.941 66 97.9335V64.0206L53.8611 54.9096C52.4805 53.8734 52.4805 51.8023 53.8611 50.766L66 41.6551V9.06653C66 4.05923 70.0592 0 75.0665 0H282.933Z" fill="#EBEBFE"/>
<path d="M87.8334 29H83.0771V17.6556H87.7862C89.846 17.6556 91.1746 18.7641 91.1746 20.4858C91.1746 21.7043 90.2705 22.7657 89.107 22.9544V23.0172C90.6479 23.1666 91.7249 24.2751 91.7249 25.7767C91.7249 27.7736 90.2548 29 87.8334 29ZM85.1054 19.2358V22.4355H86.9607C88.3758 22.4355 89.1699 21.838 89.1699 20.7845C89.1699 19.794 88.4859 19.2358 87.2752 19.2358H85.1054ZM85.1054 27.4198H87.3695C88.8633 27.4198 89.6573 26.7987 89.6573 25.6352C89.6573 24.4795 88.8397 23.8742 87.2831 23.8742H85.1054V27.4198ZM100.774 29V20.6666H102.716V29H100.774ZM96.4341 24.6525H95.074V27.4984H96.4341C97.346 27.4984 97.9357 26.9245 97.9357 26.0754C97.9357 25.2185 97.3382 24.6525 96.4341 24.6525ZM93.1243 29V20.6666H95.074V23.1666H96.6856C98.6275 23.1666 99.8775 24.2987 99.8775 26.0833C99.8775 27.8679 98.6275 29 96.6856 29H93.1243ZM109.547 29H107.684V20.6666H110.176L112.637 26.4843H112.7L115.161 20.6666H117.613V29H115.75V23.3003H115.687L113.337 28.6148H111.953L109.602 23.3003H109.547V29ZM123.062 29.1651C120.617 29.1651 119.029 27.5377 119.029 24.8333C119.029 22.1446 120.632 20.4936 123.062 20.4936C125.491 20.4936 127.095 22.1367 127.095 24.8333C127.095 27.5377 125.507 29.1651 123.062 29.1651ZM123.062 27.6163C124.304 27.6163 125.106 26.61 125.106 24.8333C125.106 23.0644 124.304 22.0503 123.062 22.0503C121.827 22.0503 121.018 23.0644 121.018 24.8333C121.018 26.61 121.819 27.6163 123.062 27.6163ZM136.395 24.566L139.799 29H137.433L134.595 25.2736H134.532V29H132.598V25.2736H132.543L129.697 29H127.354L130.735 24.5896L127.456 20.6666H129.744L132.543 24.1415H132.598V20.6666H134.532V24.1415H134.595L137.386 20.6666H139.65L136.395 24.566ZM144.115 22.011C143.015 22.011 142.221 22.8522 142.142 24.0157H146.034C145.994 22.8364 145.239 22.011 144.115 22.011ZM146.041 26.5078H147.873C147.622 28.0802 146.159 29.1651 144.186 29.1651C141.686 29.1651 140.177 27.522 140.177 24.8647C140.177 22.2311 141.702 20.4936 144.107 20.4936C146.474 20.4936 147.952 22.1367 147.952 24.6682V25.305H142.126V25.4229C142.126 26.7594 142.944 27.6556 144.225 27.6556C145.137 27.6556 145.829 27.1997 146.041 26.5078ZM155.578 20.6666V22.176H153.015V29H151.073V22.176H148.51V20.6666H155.578ZM160.232 22.011C159.131 22.011 158.337 22.8522 158.258 24.0157H162.15C162.111 22.8364 161.356 22.011 160.232 22.011ZM162.158 26.5078H163.99C163.738 28.0802 162.276 29.1651 160.302 29.1651C157.802 29.1651 156.293 27.522 156.293 24.8647C156.293 22.2311 157.818 20.4936 160.224 20.4936C162.59 20.4936 164.068 22.1367 164.068 24.6682V25.305H158.243V25.4229C158.243 26.7594 159.06 27.6556 160.342 27.6556C161.254 27.6556 161.946 27.1997 162.158 26.5078ZM171.859 29.1651C169.807 29.1651 168.431 28.1667 168.274 26.5236H170.177C170.35 27.239 170.947 27.6242 171.859 27.6242C172.865 27.6242 173.432 27.1604 173.432 26.4843C173.432 25.7295 172.905 25.3836 171.859 25.3836H170.672V24.0314H171.82C172.708 24.0314 173.172 23.7012 173.172 23.0251C173.172 22.4276 172.74 22.011 171.836 22.011C170.979 22.011 170.413 22.3883 170.303 23.033H168.447C168.612 21.4606 169.886 20.4936 171.836 20.4936C173.935 20.4936 175.082 21.3977 175.082 22.8286C175.082 23.6698 174.579 24.3695 173.777 24.5817V24.6446C174.823 24.8962 175.373 25.5802 175.373 26.5157C175.373 28.1274 174.005 29.1651 171.859 29.1651ZM179.87 27.6556C180.979 27.6556 181.867 26.9167 181.867 25.9104V25.2736L179.941 25.3915C178.998 25.4544 178.455 25.8789 178.455 26.5393C178.455 27.2233 179.021 27.6556 179.87 27.6556ZM179.281 29.1336C177.669 29.1336 176.498 28.1195 176.498 26.6179C176.498 25.1399 177.638 24.2515 179.666 24.1257L181.867 24V23.4025C181.867 22.5298 181.278 22.0267 180.311 22.0267C179.383 22.0267 178.793 22.4748 178.667 23.1666H176.851C176.938 21.61 178.266 20.4936 180.389 20.4936C182.457 20.4936 183.801 21.5864 183.801 23.261V29H181.914V27.6714H181.875C181.395 28.5755 180.35 29.1336 179.281 29.1336ZM190.908 29V22.176H187.465V29H185.515V20.6666H192.866V29H190.908ZM199.202 20.5251C201.317 20.5251 202.661 22.1682 202.661 24.8333C202.661 27.4906 201.325 29.1336 199.234 29.1336C198.023 29.1336 197.08 28.5519 196.624 27.6163H196.584V31.7437H194.627V20.6666H196.537V22.1053H196.576C197.048 21.1383 197.991 20.5251 199.202 20.5251ZM198.605 27.5299C199.87 27.5299 200.657 26.4843 200.657 24.8333C200.657 23.1902 199.87 22.1367 198.605 22.1367C197.386 22.1367 196.576 23.2138 196.569 24.8333C196.576 26.4685 197.386 27.5299 198.605 27.5299ZM207.779 29.1651C205.334 29.1651 203.746 27.5377 203.746 24.8333C203.746 22.1446 205.35 20.4936 207.779 20.4936C210.209 20.4936 211.812 22.1367 211.812 24.8333C211.812 27.5377 210.224 29.1651 207.779 29.1651ZM207.779 27.6163C209.021 27.6163 209.823 26.61 209.823 24.8333C209.823 23.0644 209.021 22.0503 207.779 22.0503C206.545 22.0503 205.735 23.0644 205.735 24.8333C205.735 26.61 206.537 27.6163 207.779 27.6163ZM220.507 23.4103H218.652C218.448 22.6635 217.85 22.0817 216.875 22.0817C215.641 22.0817 214.855 23.143 214.855 24.8333C214.855 26.555 215.649 27.5849 216.883 27.5849C217.827 27.5849 218.448 27.0975 218.668 26.2641H220.523C220.287 28.0094 218.904 29.1651 216.867 29.1651C214.43 29.1651 212.882 27.5141 212.882 24.8333C212.882 22.1918 214.43 20.4936 216.852 20.4936C218.951 20.4936 220.279 21.783 220.507 23.4103ZM223.754 29H221.836V20.6666H223.754V26.2327H223.817L227.441 20.6666H229.36V29H227.441V23.3946H227.378L223.754 29ZM237.638 20.6666V22.176H235.075V29H233.133V22.176H230.57V20.6666H237.638ZM242.158 24.6525H240.798V27.4984H242.158C243.07 27.4984 243.66 26.9245 243.66 26.0754C243.66 25.2185 243.063 24.6525 242.158 24.6525ZM238.849 29V20.6666H240.798V23.1666H242.41C244.352 23.1666 245.602 24.2987 245.602 26.0833C245.602 27.8679 244.352 29 242.41 29H238.849ZM85.923 47.6556C87.0315 47.6556 87.9199 46.9167 87.9199 45.9104V45.2736L85.9937 45.3915C85.0503 45.4544 84.5079 45.8789 84.5079 46.5393C84.5079 47.2233 85.0739 47.6556 85.923 47.6556ZM85.3334 49.1336C83.7217 49.1336 82.5503 48.1195 82.5503 46.6179C82.5503 45.1399 83.6903 44.2515 85.7186 44.1257L87.9199 44V43.4025C87.9199 42.5298 87.3302 42.0267 86.3632 42.0267C85.4356 42.0267 84.8459 42.4748 84.7201 43.1666H82.9041C82.9906 41.61 84.3192 40.4936 86.4419 40.4936C88.5095 40.4936 89.8538 41.5864 89.8538 43.261V49H87.967V47.6714H87.9277C87.4482 48.5755 86.4025 49.1336 85.3334 49.1336ZM95.0661 41.9952H93.4859V44.0707H94.9168C95.8287 44.0707 96.3004 43.7091 96.3004 43.0172C96.3004 42.3647 95.8602 41.9952 95.0661 41.9952ZM95.0347 45.3129H93.4859V47.6714H95.1919C96.1196 47.6714 96.6306 47.2547 96.6306 46.4921C96.6306 45.7138 96.0882 45.3129 95.0347 45.3129ZM91.5677 49V40.6666H95.5221C97.2045 40.6666 98.2108 41.4606 98.2108 42.7814C98.2108 43.654 97.574 44.4324 96.7485 44.5739V44.6368C97.8413 44.7783 98.5803 45.5487 98.5803 46.5943C98.5803 48.0645 97.4325 49 95.585 49H91.5677ZM103.077 47.6556C104.186 47.6556 105.074 46.9167 105.074 45.9104V45.2736L103.148 45.3915C102.205 45.4544 101.662 45.8789 101.662 46.5393C101.662 47.2233 102.228 47.6556 103.077 47.6556ZM102.488 49.1336C100.876 49.1336 99.7045 48.1195 99.7045 46.6179C99.7045 45.1399 100.844 44.2515 102.873 44.1257L105.074 44V43.4025C105.074 42.5298 104.484 42.0267 103.517 42.0267C102.59 42.0267 102 42.4748 101.874 43.1666H100.058C100.145 41.61 101.473 40.4936 103.596 40.4936C105.664 40.4936 107.008 41.5864 107.008 43.261V49H105.121V47.6714H105.082C104.602 48.5755 103.557 49.1336 102.488 49.1336ZM114.194 49V45.4622H110.672V49H108.722V40.6666H110.672V43.9528H114.194V40.6666H116.143V49H114.194ZM125.192 43.4103H123.337C123.132 42.6635 122.535 42.0817 121.56 42.0817C120.326 42.0817 119.54 43.143 119.54 44.8333C119.54 46.555 120.334 47.5849 121.568 47.5849C122.511 47.5849 123.132 47.0975 123.353 46.2641H125.208C124.972 48.0094 123.588 49.1651 121.552 49.1651C119.115 49.1651 117.566 47.5141 117.566 44.8333C117.566 42.1918 119.115 40.4936 121.536 40.4936C123.636 40.4936 124.964 41.783 125.192 43.4103ZM133.243 41.9952H131.662V44.0707H133.093C134.005 44.0707 134.477 43.7091 134.477 43.0172C134.477 42.3647 134.037 41.9952 133.243 41.9952ZM133.211 45.3129H131.662V47.6714H133.368C134.296 47.6714 134.807 47.2547 134.807 46.4921C134.807 45.7138 134.265 45.3129 133.211 45.3129ZM129.744 49V40.6666H133.699C135.381 40.6666 136.387 41.4606 136.387 42.7814C136.387 43.654 135.75 44.4324 134.925 44.5739V44.6368C136.018 44.7783 136.757 45.5487 136.757 46.5943C136.757 48.0645 135.609 49 133.761 49H129.744ZM146.82 49V42.176H143.376V49H141.427V40.6666H148.777V49H146.82ZM155.114 40.5251C157.229 40.5251 158.573 42.1682 158.573 44.8333C158.573 47.4906 157.236 49.1336 155.145 49.1336C153.935 49.1336 152.991 48.5519 152.535 47.6163H152.496V51.7437H150.538V40.6666H152.449V42.1053H152.488C152.96 41.1383 153.903 40.5251 155.114 40.5251ZM154.516 47.5299C155.782 47.5299 156.568 46.4843 156.568 44.8333C156.568 43.1902 155.782 42.1367 154.516 42.1367C153.298 42.1367 152.488 43.2138 152.48 44.8333C152.488 46.4685 153.298 47.5299 154.516 47.5299ZM161.914 49H159.996V40.6666H161.914V46.2327H161.977L165.601 40.6666H167.52V49H165.601V43.3946H165.538L161.914 49ZM172.024 45.1163C171.867 47.5299 171.238 49.0865 169.281 49.0865C168.974 49.0865 168.746 49.0314 168.644 48.9921V47.3097C168.722 47.3333 168.887 47.3726 169.108 47.3726C169.917 47.3726 170.185 46.3978 170.263 45.0141L170.531 40.6666H176.545V49H174.595V42.176H172.221L172.024 45.1163ZM181.993 49.1651C179.548 49.1651 177.96 47.5377 177.96 44.8333C177.96 42.1446 179.564 40.4936 181.993 40.4936C184.422 40.4936 186.026 42.1367 186.026 44.8333C186.026 47.5377 184.438 49.1651 181.993 49.1651ZM181.993 47.6163C183.235 47.6163 184.037 46.61 184.037 44.8333C184.037 43.0644 183.235 42.0503 181.993 42.0503C180.759 42.0503 179.949 43.0644 179.949 44.8333C179.949 46.61 180.751 47.6163 181.993 47.6163ZM195.326 44.566L198.73 49H196.364L193.526 45.2736H193.463V49H191.529V45.2736H191.474L188.628 49H186.285L189.666 44.5896L186.388 40.6666H188.675L191.474 44.1415H191.529V40.6666H193.463V44.1415H193.526L196.317 40.6666H198.581L195.326 44.566ZM203.047 42.011C201.946 42.011 201.152 42.8522 201.073 44.0157H204.965C204.925 42.8364 204.171 42.011 203.047 42.011ZM204.973 46.5078H206.804C206.553 48.0802 205.091 49.1651 203.117 49.1651C200.617 49.1651 199.108 47.522 199.108 44.8647C199.108 42.2311 200.633 40.4936 203.039 40.4936C205.405 40.4936 206.883 42.1367 206.883 44.6682V45.305H201.058V45.4229C201.058 46.7594 201.875 47.6556 203.157 47.6556C204.069 47.6556 204.76 47.1997 204.973 46.5078ZM213.754 49V45.4622H210.232V49H208.282V40.6666H210.232V43.9528H213.754V40.6666H215.704V49H213.754ZM219.383 49H217.465V40.6666H219.383V46.2327H219.446L223.07 40.6666H224.989V49H223.07V43.3946H223.007L219.383 49ZM228.66 49H226.742V40.6666H228.66V46.2327H228.723L232.347 40.6666H234.265V49H232.347V43.3946H232.284L228.66 49ZM237.355 51.3978H235.853L236.506 47.1289H238.416L237.355 51.3978ZM83.8082 72.0975C83.6981 72.0975 83.1399 72.0896 83.0377 72.0661V70.5173C83.1399 70.5409 83.4859 70.5488 83.6038 70.5488C84.4135 70.5488 84.8302 70.2421 85.0503 69.4717C85.0503 69.4481 85.1683 69.0314 85.1604 69.0079L82.1965 60.6666H84.3349L86.3003 67.3333H86.3318L88.2972 60.6666H90.357L87.346 69.3302C86.6305 71.3978 85.7107 72.0975 83.8082 72.0975ZM95.2548 64.5581L98.9498 69H96.552L93.4545 65.2736H93.3916V69H91.4419V60.6666H93.3916V64.1415H93.4545L96.5048 60.6666H98.7847L95.2548 64.5581ZM102.841 67.6556C103.95 67.6556 104.838 66.9167 104.838 65.9104V65.2736L102.912 65.3915C101.969 65.4544 101.426 65.8789 101.426 66.5393C101.426 67.2233 101.992 67.6556 102.841 67.6556ZM102.252 69.1336C100.64 69.1336 99.4687 68.1195 99.4687 66.6179C99.4687 65.1399 100.609 64.2515 102.637 64.1257L104.838 64V63.4025C104.838 62.5298 104.249 62.0267 103.282 62.0267C102.354 62.0267 101.764 62.4748 101.639 63.1666H99.8225C99.9089 61.61 101.238 60.4936 103.36 60.4936C105.428 60.4936 106.772 61.5864 106.772 63.261V69H104.885V67.6714H104.846C104.367 68.5755 103.321 69.1336 102.252 69.1336ZM111.654 69.1651C109.602 69.1651 108.227 68.1667 108.069 66.5236H109.972C110.145 67.239 110.742 67.6242 111.654 67.6242C112.661 67.6242 113.227 67.1604 113.227 66.4843C113.227 65.7295 112.7 65.3836 111.654 65.3836H110.467V64.0314H111.615C112.503 64.0314 112.967 63.7012 112.967 63.0251C112.967 62.4276 112.535 62.011 111.631 62.011C110.774 62.011 110.208 62.3883 110.098 63.033H108.242C108.407 61.4606 109.681 60.4936 111.631 60.4936C113.73 60.4936 114.878 61.3977 114.878 62.8286C114.878 63.6698 114.374 64.3695 113.573 64.5817V64.6446C114.618 64.8962 115.168 65.5802 115.168 66.5157C115.168 68.1274 113.801 69.1651 111.654 69.1651ZM119.665 67.6556C120.774 67.6556 121.662 66.9167 121.662 65.9104V65.2736L119.736 65.3915C118.793 65.4544 118.25 65.8789 118.25 66.5393C118.25 67.2233 118.816 67.6556 119.665 67.6556ZM119.076 69.1336C117.464 69.1336 116.293 68.1195 116.293 66.6179C116.293 65.1399 117.433 64.2515 119.461 64.1257L121.662 64V63.4025C121.662 62.5298 121.073 62.0267 120.106 62.0267C119.178 62.0267 118.588 62.4748 118.463 63.1666H116.646C116.733 61.61 118.062 60.4936 120.184 60.4936C122.252 60.4936 123.596 61.5864 123.596 63.261V69H121.709V67.6714H121.67C121.191 68.5755 120.145 69.1336 119.076 69.1336ZM128.809 61.9952H127.228V64.0707H128.659C129.571 64.0707 130.043 63.7091 130.043 63.0172C130.043 62.3647 129.603 61.9952 128.809 61.9952ZM128.777 65.3129H127.228V67.6714H128.934C129.862 67.6714 130.373 67.2547 130.373 66.4921C130.373 65.7138 129.831 65.3129 128.777 65.3129ZM125.31 69V60.6666H129.265C130.947 60.6666 131.953 61.4606 131.953 62.7814C131.953 63.654 131.316 64.4324 130.491 64.5739V64.6368C131.584 64.7783 132.323 65.5487 132.323 66.5943C132.323 68.0645 131.175 69 129.327 69H125.31ZM144.28 63.4103H142.425C142.221 62.6635 141.623 62.0817 140.648 62.0817C139.414 62.0817 138.628 63.143 138.628 64.8333C138.628 66.555 139.422 67.5849 140.656 67.5849C141.6 67.5849 142.221 67.0975 142.441 66.2641H144.296C144.06 68.0094 142.677 69.1651 140.64 69.1651C138.203 69.1651 136.655 67.5141 136.655 64.8333C136.655 62.1918 138.203 60.4936 140.625 60.4936C142.724 60.4936 144.052 61.783 144.28 63.4103ZM146.434 72.0975C146.324 72.0975 145.766 72.0896 145.664 72.0661V70.5173C145.766 70.5409 146.112 70.5488 146.23 70.5488C147.04 70.5488 147.456 70.2421 147.677 69.4717C147.677 69.4481 147.795 69.0314 147.787 69.0079L144.823 60.6666H146.961L148.927 67.3333H148.958L150.923 60.6666H152.983L149.972 69.3302C149.257 71.3978 148.337 72.0975 146.434 72.0975ZM155.931 69H154.068V60.6666H156.56L159.021 66.4843H159.084L161.545 60.6666H163.997V69H162.134V63.3003H162.071L159.721 68.6148H158.337L155.986 63.3003H155.931V69ZM167.614 69H165.751V60.6666H168.243L170.704 66.4843H170.766L173.227 60.6666H175.68V69H173.817V63.3003H173.754L171.403 68.6148H170.02L167.669 63.3003H167.614V69ZM178.369 72.0975C178.259 72.0975 177.7 72.0896 177.598 72.0661V70.5173C177.7 70.5409 178.046 70.5488 178.164 70.5488C178.974 70.5488 179.391 70.2421 179.611 69.4717C179.611 69.4481 179.729 69.0314 179.721 69.0079L176.757 60.6666H178.895L180.861 67.3333H180.892L182.858 60.6666H184.917L181.906 69.3302C181.191 71.3978 180.271 72.0975 178.369 72.0975ZM191.144 69H189.226V60.6666H191.144V66.2327H191.207L194.831 60.6666H196.749V69H194.831V63.3946H194.768L191.144 69ZM209.014 63.4103H207.158C206.954 62.6635 206.356 62.0817 205.381 62.0817C204.147 62.0817 203.361 63.143 203.361 64.8333C203.361 66.555 204.155 67.5849 205.389 67.5849C206.333 67.5849 206.954 67.0975 207.174 66.2641H209.029C208.793 68.0094 207.41 69.1651 205.374 69.1651C202.936 69.1651 201.388 67.5141 201.388 64.8333C201.388 62.1918 202.936 60.4936 205.358 60.4936C207.457 60.4936 208.786 61.783 209.014 63.4103ZM214.926 60.5251C217.04 60.5251 218.385 62.1682 218.385 64.8333C218.385 67.4906 217.048 69.1336 214.957 69.1336C213.746 69.1336 212.803 68.5519 212.347 67.6163H212.308V71.7437H210.35V60.6666H212.26V62.1053H212.3C212.771 61.1383 213.715 60.5251 214.926 60.5251ZM214.328 67.5299C215.594 67.5299 216.38 66.4843 216.38 64.8333C216.38 63.1902 215.594 62.1367 214.328 62.1367C213.11 62.1367 212.3 63.2138 212.292 64.8333C212.3 66.4685 213.11 67.5299 214.328 67.5299ZM223.503 69.1651C221.058 69.1651 219.47 67.5377 219.47 64.8333C219.47 62.1446 221.073 60.4936 223.503 60.4936C225.932 60.4936 227.536 62.1367 227.536 64.8333C227.536 67.5377 225.948 69.1651 223.503 69.1651ZM223.503 67.6163C224.745 67.6163 225.547 66.61 225.547 64.8333C225.547 63.0644 224.745 62.0503 223.503 62.0503C222.268 62.0503 221.459 63.0644 221.459 64.8333C221.459 66.61 222.261 67.6163 223.503 67.6163ZM232.756 64.5581L236.451 69H234.053L230.956 65.2736H230.893V69H228.943V60.6666H230.893V64.1415H230.956L234.006 60.6666H236.286L232.756 64.5581ZM86.3711 81.9952H84.7909V84.0707H86.2217C87.1337 84.0707 87.6054 83.7091 87.6054 83.0172C87.6054 82.3647 87.1651 81.9952 86.3711 81.9952ZM86.3397 85.3129H84.7909V87.6714H86.4969C87.4246 87.6714 87.9356 87.2547 87.9356 86.4921C87.9356 85.7138 87.3931 85.3129 86.3397 85.3129ZM82.8726 89V80.6666H86.8271C88.5095 80.6666 89.5158 81.4606 89.5158 82.7814C89.5158 83.654 88.879 84.4324 88.0535 84.5739V84.6368C89.1463 84.7783 89.8853 85.5487 89.8853 86.5943C89.8853 88.0645 88.7375 89 86.89 89H82.8726ZM95.0268 89.1651C92.5818 89.1651 90.9938 87.5377 90.9938 84.8333C90.9938 82.1446 92.5976 80.4936 95.0268 80.4936C97.4561 80.4936 99.0599 82.1367 99.0599 84.8333C99.0599 87.5377 97.4718 89.1651 95.0268 89.1651ZM95.0268 87.6163C96.269 87.6163 97.0709 86.61 97.0709 84.8333C97.0709 83.0644 96.269 82.0503 95.0268 82.0503C93.7925 82.0503 92.9828 83.0644 92.9828 84.8333C92.9828 86.61 93.7847 87.6163 95.0268 87.6163ZM103.635 89.1651C101.583 89.1651 100.208 88.1667 100.05 86.5236H101.953C102.126 87.239 102.723 87.6242 103.635 87.6242C104.642 87.6242 105.208 87.1604 105.208 86.4843C105.208 85.7295 104.681 85.3836 103.635 85.3836H102.448V84.0314H103.596C104.484 84.0314 104.948 83.7012 104.948 83.0251C104.948 82.4276 104.516 82.011 103.612 82.011C102.755 82.011 102.189 82.3883 102.079 83.033H100.223C100.389 81.4606 101.662 80.4936 103.612 80.4936C105.711 80.4936 106.859 81.3977 106.859 82.8286C106.859 83.6698 106.356 84.3695 105.554 84.5817V84.6446C106.599 84.8962 107.15 85.5802 107.15 86.5157C107.15 88.1274 105.782 89.1651 103.635 89.1651ZM112.095 81.9952H110.514V84.0707H111.945C112.857 84.0707 113.329 83.7091 113.329 83.0172C113.329 82.3647 112.889 81.9952 112.095 81.9952ZM112.063 85.3129H110.514V87.6714H112.22C113.148 87.6714 113.659 87.2547 113.659 86.4921C113.659 85.7138 113.117 85.3129 112.063 85.3129ZM108.596 89V80.6666H112.551C114.233 80.6666 115.239 81.4606 115.239 82.7814C115.239 83.654 114.602 84.4324 113.777 84.5739V84.6368C114.87 84.7783 115.609 85.5487 115.609 86.5943C115.609 88.0645 114.461 89 112.613 89H108.596ZM121.639 80.5251C123.753 80.5251 125.098 82.1682 125.098 84.8333C125.098 87.4906 123.761 89.1336 121.67 89.1336C120.459 89.1336 119.516 88.5519 119.06 87.6163H119.021V91.7437H117.063V80.6666H118.974V82.1053H119.013C119.485 81.1383 120.428 80.5251 121.639 80.5251ZM121.041 87.5299C122.307 87.5299 123.093 86.4843 123.093 84.8333C123.093 83.1902 122.307 82.1367 121.041 82.1367C119.823 82.1367 119.013 83.2138 119.005 84.8333C119.013 86.4685 119.823 87.5299 121.041 87.5299ZM129.571 87.6556C130.68 87.6556 131.568 86.9167 131.568 85.9104V85.2736L129.642 85.3915C128.698 85.4544 128.156 85.8789 128.156 86.5393C128.156 87.2233 128.722 87.6556 129.571 87.6556ZM128.981 89.1336C127.37 89.1336 126.198 88.1195 126.198 86.6179C126.198 85.1399 127.338 84.2515 129.367 84.1257L131.568 84V83.4025C131.568 82.5298 130.978 82.0267 130.011 82.0267C129.084 82.0267 128.494 82.4748 128.368 83.1666H126.552C126.639 81.61 127.967 80.4936 130.09 80.4936C132.158 80.4936 133.502 81.5864 133.502 83.261V89H131.615V87.6714H131.576C131.096 88.5755 130.051 89.1336 128.981 89.1336ZM141.631 80.6666V82.176H139.068V89H137.126V82.176H134.563V80.6666H141.631ZM145.672 87.6556C146.78 87.6556 147.669 86.9167 147.669 85.9104V85.2736L145.743 85.3915C144.799 85.4544 144.257 85.8789 144.257 86.5393C144.257 87.2233 144.823 87.6556 145.672 87.6556ZM145.082 89.1336C143.471 89.1336 142.299 88.1195 142.299 86.6179C142.299 85.1399 143.439 84.2515 145.467 84.1257L147.669 84V83.4025C147.669 82.5298 147.079 82.0267 146.112 82.0267C145.184 82.0267 144.595 82.4748 144.469 83.1666H142.653C142.739 81.61 144.068 80.4936 146.191 80.4936C148.258 80.4936 149.603 81.5864 149.603 83.261V89H147.716V87.6714H147.677C147.197 88.5755 146.151 89.1336 145.082 89.1336Z" fill="#636884"/>
</g>
<defs>
<clipPath id="clip0_476_12670">
<rect width="292" height="107" fill="white"/>
</clipPath>
</defs>
</svg>
