<svg width="19" height="19" viewBox="0 0 19 19" fill="none" xmlns="http://www.w3.org/2000/svg">
<path d="M16.6942 8.32118V5.48785C16.6942 4.44424 15.8489 3.59896 14.8053 3.59896H10.0831M1.85304 10.5667V13.429C1.85304 14.4832 2.64343 15.3371 3.61928 15.3371H8.03486M11.5673 5.79632L9.8011 3.88816L11.5673 1.98M7.31733 13.5156L8.53161 15.3371L7.31733 17.1585M5.36089 7.37674H2.52756C1.48395 7.37674 0.638672 6.53146 0.638672 5.48785V2.65451C0.638672 1.6109 1.48395 0.765625 2.52756 0.765625H5.36089C6.40451 0.765625 7.24978 1.6109 7.24978 2.65451V5.48785C7.24978 6.53146 6.40451 7.37674 5.36089 7.37674ZM15.7498 17.7656H12.9164C11.8728 17.7656 11.0276 16.9203 11.0276 15.8767V13.0434C11.0276 11.9998 11.8728 11.1545 12.9164 11.1545H15.7498C16.7934 11.1545 17.6387 11.9998 17.6387 13.0434V15.8767C17.6387 16.9203 16.7934 17.7656 15.7498 17.7656Z" stroke="url(#paint0_linear_443_22890)" stroke-width="1.04082" stroke-linecap="round" stroke-linejoin="round"/>
<defs>
<linearGradient id="paint0_linear_443_22890" x1="9.13867" y1="0.765625" x2="9.13867" y2="17.7656" gradientUnits="userSpaceOnUse">
<stop stop-color="white"/>
<stop offset="1" stop-color="white" stop-opacity="0.6"/>
</linearGradient>
</defs>
</svg>
