<svg width="15" height="15" viewBox="0 0 15 15" fill="none" xmlns="http://www.w3.org/2000/svg">
<path d="M6.37933 1.00648C6.37933 0.742534 6.16536 0.528564 5.90141 0.528564C5.63747 0.528564 5.4235 0.742534 5.4235 1.00648V2.82608C5.4235 3.09003 5.63747 3.304 5.90141 3.304C6.16536 3.304 6.37933 3.09003 6.37933 2.82608V1.00648Z" fill="url(#paint0_linear_50238_2493)"/>
<path d="M2.15063 1.80798C2.33727 1.62134 2.63986 1.62134 2.8265 1.80798L4.19297 3.17445C4.37961 3.36109 4.37961 3.66369 4.19297 3.85033C4.00634 4.03696 3.70374 4.03696 3.5171 3.85033L2.15063 2.48386C1.96399 2.29722 1.96399 1.99462 2.15063 1.80798Z" fill="url(#paint1_linear_50238_2493)"/>
<path d="M9.15261 3.38185C9.8609 2.67355 11.0097 2.67355 11.718 3.38185C12.4263 4.09014 12.4263 5.23898 11.718 5.94727L10.2078 7.45747C10.0212 7.64411 10.0212 7.94671 10.2078 8.13335C10.3945 8.31998 10.6971 8.31998 10.8837 8.13335L12.3939 6.62315C13.4755 5.54158 13.4755 3.78754 12.3939 2.70597C11.3123 1.6244 9.5583 1.6244 8.47673 2.70597L6.96653 4.21617C6.77989 4.40281 6.77989 4.70541 6.96653 4.89205C7.15317 5.07868 7.45577 5.07868 7.64241 4.89205L9.15261 3.38185Z" fill="url(#paint2_linear_50238_2493)"/>
<path d="M5.27188 7.31553C5.45852 7.12889 5.45852 6.82629 5.27188 6.63966C5.08525 6.45302 4.78265 6.45302 4.59601 6.63966L3.08581 8.14985C2.00424 9.23142 2.00424 10.9855 3.08581 12.067C4.16738 13.1486 5.92141 13.1486 7.00298 12.067L8.51318 10.5568C8.69982 10.3702 8.69982 10.0676 8.51318 9.88095C8.32655 9.69432 8.02395 9.69432 7.83731 9.88095L6.32711 11.3912C5.61881 12.0994 4.46998 12.0994 3.76169 11.3912C3.05339 10.6829 3.05339 9.53402 3.76169 8.82573L5.27188 7.31553Z" fill="url(#paint3_linear_50238_2493)"/>
<path d="M0.870117 5.55886C0.870117 5.29491 1.08409 5.08094 1.34803 5.08094H3.16763C3.43158 5.08094 3.64555 5.29491 3.64555 5.55886C3.64555 5.8228 3.43158 6.03677 3.16763 6.03677H1.34803C1.08409 6.03677 0.870117 5.8228 0.870117 5.55886Z" fill="url(#paint4_linear_50238_2493)"/>
<path d="M11.9245 10.9072C11.7379 10.7205 11.4353 10.7205 11.2486 10.9072C11.062 11.0938 11.062 11.3964 11.2486 11.583L12.6151 12.9495C12.8017 13.1362 13.1043 13.1362 13.291 12.9495C13.4776 12.7629 13.4776 12.4603 13.291 12.2736L11.9245 10.9072Z" fill="url(#paint5_linear_50238_2493)"/>
<path d="M9.54032 11.453C9.80427 11.453 10.0182 11.667 10.0182 11.931V13.7506C10.0182 14.0145 9.80427 14.2285 9.54032 14.2285C9.27638 14.2285 9.06241 14.0145 9.06241 13.7506V11.931C9.06241 11.667 9.27638 11.453 9.54032 11.453Z" fill="url(#paint6_linear_50238_2493)"/>
<path d="M12.2735 8.72058C12.0096 8.72058 11.7956 8.93455 11.7956 9.19849C11.7956 9.46244 12.0096 9.67641 12.2735 9.67641H14.0931C14.3571 9.67641 14.571 9.46244 14.571 9.19849C14.571 8.93455 14.3571 8.72058 14.0931 8.72058H12.2735Z" fill="url(#paint7_linear_50238_2493)"/>
<defs>
<linearGradient id="paint0_linear_50238_2493" x1="7.72057" y1="0.528564" x2="7.72057" y2="14.2285" gradientUnits="userSpaceOnUse">
<stop stop-color="white"/>
<stop offset="1" stop-color="white" stop-opacity="0.6"/>
</linearGradient>
<linearGradient id="paint1_linear_50238_2493" x1="7.72057" y1="0.528564" x2="7.72057" y2="14.2285" gradientUnits="userSpaceOnUse">
<stop stop-color="white"/>
<stop offset="1" stop-color="white" stop-opacity="0.6"/>
</linearGradient>
<linearGradient id="paint2_linear_50238_2493" x1="7.72057" y1="0.528564" x2="7.72057" y2="14.2285" gradientUnits="userSpaceOnUse">
<stop stop-color="white"/>
<stop offset="1" stop-color="white" stop-opacity="0.6"/>
</linearGradient>
<linearGradient id="paint3_linear_50238_2493" x1="7.72057" y1="0.528564" x2="7.72057" y2="14.2285" gradientUnits="userSpaceOnUse">
<stop stop-color="white"/>
<stop offset="1" stop-color="white" stop-opacity="0.6"/>
</linearGradient>
<linearGradient id="paint4_linear_50238_2493" x1="7.72057" y1="0.528564" x2="7.72057" y2="14.2285" gradientUnits="userSpaceOnUse">
<stop stop-color="white"/>
<stop offset="1" stop-color="white" stop-opacity="0.6"/>
</linearGradient>
<linearGradient id="paint5_linear_50238_2493" x1="7.72057" y1="0.528564" x2="7.72057" y2="14.2285" gradientUnits="userSpaceOnUse">
<stop stop-color="white"/>
<stop offset="1" stop-color="white" stop-opacity="0.6"/>
</linearGradient>
<linearGradient id="paint6_linear_50238_2493" x1="7.72057" y1="0.528564" x2="7.72057" y2="14.2285" gradientUnits="userSpaceOnUse">
<stop stop-color="white"/>
<stop offset="1" stop-color="white" stop-opacity="0.6"/>
</linearGradient>
<linearGradient id="paint7_linear_50238_2493" x1="7.72057" y1="0.528564" x2="7.72057" y2="14.2285" gradientUnits="userSpaceOnUse">
<stop stop-color="white"/>
<stop offset="1" stop-color="white" stop-opacity="0.6"/>
</linearGradient>
</defs>
</svg>
