<svg width="328" height="221" viewBox="0 0 328 221" fill="none" xmlns="http://www.w3.org/2000/svg">
<g clip-path="url(#clip0_885_9848)">
<rect x="59.8442" y="28.5" width="209.171" height="218" rx="10.866" fill="white" fill-opacity="0.5"/>
<path d="M83.0598 47.6346L80.4622 50.2323L83.0598 52.83L82.2562 53.6279L78.8605 50.2323L82.2562 46.8367L83.0598 47.6346Z" fill="#848A95"/>
<path d="M245.802 52.83L248.4 50.2323L245.802 47.6346L246.606 46.8367L250.001 50.2323L246.606 53.6279L245.802 52.83Z" fill="#848A95"/>
<line x1="79.5381" y1="69.6554" x2="249.999" y2="69.6553" stroke="#E4E5E7" stroke-width="0.543302"/>
<path d="M86.3933 84.5709V89.51H85.6505V85.2076H83.3256V89.51H82.5828V84.5709H86.3933ZM87.5328 89.51V84.5709H88.278V86.7173H90.7403V84.5709H91.4879V89.51H90.7403V87.3564H88.278V89.51H87.5328Z" fill="#7E818C"/>
<path d="M108.926 89.51V84.5709H110.735C111.085 84.5709 111.375 84.6288 111.605 84.7445C111.835 84.8587 112.007 85.0138 112.121 85.21C112.235 85.4045 112.292 85.624 112.292 85.8684C112.292 86.0742 112.255 86.2478 112.179 86.3893C112.104 86.5292 112.002 86.6417 111.875 86.7269C111.75 86.8105 111.612 86.8716 111.46 86.9102V86.9585C111.624 86.9665 111.784 87.0196 111.94 87.1176C112.098 87.2141 112.228 87.3516 112.331 87.53C112.434 87.7085 112.485 87.9255 112.485 88.1812C112.485 88.4336 112.426 88.6603 112.307 88.8613C112.19 89.0606 112.008 89.219 111.762 89.3364C111.516 89.4521 111.202 89.51 110.819 89.51H108.926ZM109.671 88.8709H110.747C111.104 88.8709 111.359 88.8018 111.513 88.6635C111.668 88.5252 111.745 88.3524 111.745 88.145C111.745 87.989 111.706 87.846 111.627 87.7157C111.548 87.5855 111.436 87.4818 111.289 87.4046C111.145 87.3274 110.972 87.2889 110.773 87.2889H109.671V88.8709ZM109.671 86.7076H110.669C110.837 86.7076 110.987 86.6755 111.12 86.6112C111.255 86.5469 111.362 86.4568 111.441 86.3411C111.522 86.2237 111.562 86.0854 111.562 85.9263C111.562 85.7221 111.49 85.5508 111.347 85.4126C111.204 85.2743 110.985 85.2052 110.689 85.2052H109.671V86.7076ZM113.126 85.2124V84.5709H116.948V85.2124H115.407V89.51H114.664V85.2124H113.126Z" fill="#7E818C"/>
<path d="M138.6 86.1771H137.847C137.818 86.0163 137.764 85.8748 137.686 85.7526C137.607 85.6304 137.51 85.5267 137.396 85.4415C137.282 85.3563 137.154 85.292 137.013 85.2486C136.873 85.2052 136.724 85.1835 136.567 85.1835C136.282 85.1835 136.027 85.255 135.802 85.3981C135.579 85.5412 135.402 85.751 135.272 86.0276C135.143 86.3041 135.079 86.6417 135.079 87.0405C135.079 87.4424 135.143 87.7816 135.272 88.0582C135.402 88.3347 135.579 88.5437 135.805 88.6852C136.03 88.8267 136.283 88.8974 136.564 88.8974C136.72 88.8974 136.868 88.8765 137.008 88.8347C137.149 88.7913 137.277 88.7278 137.391 88.6442C137.506 88.5606 137.602 88.4585 137.681 88.3379C137.761 88.2157 137.817 88.0759 137.847 87.9183L138.6 87.9207C138.56 88.1635 138.482 88.387 138.366 88.5912C138.252 88.7937 138.105 88.969 137.924 89.1169C137.746 89.2632 137.542 89.3766 137.312 89.457C137.082 89.5373 136.831 89.5775 136.559 89.5775C136.132 89.5775 135.751 89.4762 135.416 89.2737C135.082 89.0695 134.818 88.7777 134.625 88.3982C134.434 88.0188 134.338 87.5662 134.338 87.0405C134.338 86.5131 134.435 86.0605 134.628 85.6827C134.821 85.3032 135.084 85.0122 135.419 84.8097C135.753 84.6055 136.133 84.5034 136.559 84.5034C136.822 84.5034 137.066 84.5412 137.293 84.6167C137.521 84.6907 137.726 84.8 137.908 84.9447C138.089 85.0878 138.24 85.263 138.359 85.4705C138.478 85.6762 138.558 85.9118 138.6 86.1771ZM139.491 89.51V84.5709H141.252C141.636 84.5709 141.955 84.6408 142.207 84.7807C142.459 84.9206 142.648 85.1119 142.774 85.3547C142.899 85.5959 142.962 85.8676 142.962 86.1698C142.962 86.4737 142.898 86.747 142.771 86.9898C142.646 87.231 142.456 87.4223 142.202 87.5638C141.95 87.7037 141.632 87.7736 141.25 87.7736H140.039V87.1417H141.182C141.425 87.1417 141.622 87.0999 141.773 87.0163C141.924 86.9311 142.035 86.8154 142.106 86.6691C142.176 86.5227 142.212 86.3563 142.212 86.1698C142.212 85.9833 142.176 85.8177 142.106 85.673C142.035 85.5283 141.923 85.415 141.77 85.333C141.619 85.251 141.42 85.21 141.172 85.21H140.237V89.51H139.491Z" fill="#7E818C"/>
<path d="M160.377 84.5709H161.112V86.2012C161.112 86.4279 161.152 86.6072 161.23 86.739C161.309 86.8692 161.423 86.9617 161.573 87.0163C161.724 87.071 161.907 87.0983 162.123 87.0983C162.237 87.0983 162.353 87.0943 162.47 87.0863C162.589 87.0766 162.707 87.0638 162.825 87.0477C162.942 87.03 163.055 87.0099 163.165 86.9874C163.276 86.9633 163.378 86.9368 163.473 86.9078V87.5421C163.38 87.5726 163.281 87.6 163.177 87.6241C163.074 87.6466 162.966 87.6667 162.853 87.6844C162.741 87.7004 162.624 87.7133 162.501 87.723C162.379 87.7326 162.253 87.7374 162.123 87.7374C161.763 87.7374 161.451 87.686 161.189 87.5831C160.929 87.4786 160.728 87.3138 160.587 87.0887C160.447 86.8636 160.377 86.5678 160.377 86.2012V84.5709ZM163.362 84.5709H164.1V89.51H163.362V84.5709ZM165.002 85.2124V84.5709H168.824V85.2124H167.283V89.51H166.54V85.2124H165.002Z" fill="#7E818C"/>
<path d="M189.929 84.5709V89.51H189.187V85.2076H186.862V89.51H186.119V84.5709H189.929ZM190.825 85.2124V84.5709H194.648V85.2124H193.107V89.51H192.364V85.2124H190.825Z" fill="#7E818C"/>
<path d="M215.964 86.1771H215.212C215.183 86.0163 215.129 85.8748 215.05 85.7526C214.971 85.6304 214.875 85.5267 214.761 85.4415C214.646 85.3563 214.519 85.292 214.377 85.2486C214.237 85.2052 214.089 85.1835 213.931 85.1835C213.646 85.1835 213.392 85.255 213.166 85.3981C212.943 85.5412 212.766 85.751 212.636 86.0276C212.507 86.3041 212.443 86.6417 212.443 87.0405C212.443 87.4424 212.507 87.7816 212.636 88.0582C212.766 88.3347 212.944 88.5437 213.169 88.6852C213.394 88.8267 213.647 88.8974 213.929 88.8974C214.084 88.8974 214.232 88.8765 214.372 88.8347C214.514 88.7913 214.642 88.7278 214.756 88.6442C214.87 88.5606 214.966 88.4585 215.045 88.3379C215.126 88.2157 215.181 88.0759 215.212 87.9183L215.964 87.9207C215.924 88.1635 215.846 88.387 215.73 88.5912C215.616 88.7937 215.469 88.969 215.289 89.1169C215.11 89.2632 214.906 89.3766 214.676 89.457C214.446 89.5373 214.195 89.5775 213.924 89.5775C213.496 89.5775 213.115 89.4762 212.781 89.2737C212.446 89.0695 212.182 88.7777 211.99 88.3982C211.798 88.0188 211.703 87.5662 211.703 87.0405C211.703 86.5131 211.799 86.0605 211.992 85.6827C212.185 85.3032 212.449 85.0122 212.783 84.8097C213.117 84.6055 213.498 84.5034 213.924 84.5034C214.186 84.5034 214.43 84.5412 214.657 84.6167C214.885 84.6907 215.09 84.8 215.272 84.9447C215.454 85.0878 215.604 85.263 215.723 85.4705C215.842 85.6762 215.922 85.9118 215.964 86.1771ZM216.856 89.51V84.5709H219.935V85.2124H217.601V86.5629H218.705C219.072 86.5629 219.383 86.6224 219.639 86.7414C219.896 86.8604 220.092 87.0284 220.227 87.2454C220.364 87.4625 220.432 87.7181 220.432 88.0124C220.432 88.3066 220.364 88.5662 220.227 88.7913C220.092 89.0164 219.896 89.1925 219.639 89.3195C219.383 89.4465 219.072 89.51 218.705 89.51H216.856ZM217.601 88.883H218.705C218.918 88.883 219.097 88.8412 219.243 88.7576C219.391 88.674 219.503 88.5654 219.578 88.432C219.656 88.2985 219.694 88.1555 219.694 88.0027C219.694 87.7808 219.609 87.5903 219.439 87.4311C219.268 87.2704 219.024 87.19 218.705 87.19H217.601V88.883Z" fill="#7E818C"/>
<path d="M237.675 89.51V84.5709H239.484C239.835 84.5709 240.125 84.6288 240.355 84.7445C240.585 84.8587 240.757 85.0138 240.871 85.21C240.985 85.4045 241.042 85.624 241.042 85.8684C241.042 86.0742 241.004 86.2478 240.929 86.3893C240.853 86.5292 240.752 86.6417 240.625 86.7269C240.5 86.8105 240.361 86.8716 240.21 86.9102V86.9585C240.374 86.9665 240.534 87.0196 240.69 87.1176C240.848 87.2141 240.978 87.3516 241.081 87.53C241.184 87.7085 241.235 87.9255 241.235 88.1812C241.235 88.4336 241.176 88.6603 241.057 88.8613C240.939 89.0606 240.758 89.219 240.512 89.3364C240.266 89.4521 239.951 89.51 239.569 89.51H237.675ZM238.421 88.8709H239.496C239.853 88.8709 240.109 88.8018 240.263 88.6635C240.418 88.5252 240.495 88.3524 240.495 88.145C240.495 87.989 240.455 87.846 240.377 87.7157C240.298 87.5855 240.185 87.4818 240.039 87.4046C239.894 87.3274 239.722 87.2889 239.523 87.2889H238.421V88.8709ZM238.421 86.7076H239.419C239.586 86.7076 239.737 86.6755 239.87 86.6112C240.005 86.5469 240.112 86.4568 240.191 86.3411C240.271 86.2237 240.311 86.0854 240.311 85.9263C240.311 85.7221 240.24 85.5508 240.097 85.4126C239.954 85.2743 239.734 85.2052 239.438 85.2052H238.421V86.7076ZM246.221 86.1771H245.469C245.44 86.0163 245.386 85.8748 245.307 85.7526C245.228 85.6304 245.132 85.5267 245.018 85.4415C244.904 85.3563 244.776 85.292 244.634 85.2486C244.495 85.2052 244.346 85.1835 244.188 85.1835C243.904 85.1835 243.649 85.255 243.424 85.3981C243.2 85.5412 243.023 85.751 242.893 86.0276C242.765 86.3041 242.7 86.6417 242.7 87.0405C242.7 87.4424 242.765 87.7816 242.893 88.0582C243.023 88.3347 243.201 88.5437 243.426 88.6852C243.651 88.8267 243.904 88.8974 244.186 88.8974C244.342 88.8974 244.49 88.8765 244.63 88.8347C244.771 88.7913 244.899 88.7278 245.013 88.6442C245.127 88.5606 245.224 88.4585 245.302 88.3379C245.383 88.2157 245.438 88.0759 245.469 87.9183L246.221 87.9207C246.181 88.1635 246.103 88.387 245.987 88.5912C245.873 88.7937 245.726 88.969 245.546 89.1169C245.368 89.2632 245.163 89.3766 244.933 89.457C244.704 89.5373 244.453 89.5775 244.181 89.5775C243.753 89.5775 243.372 89.4762 243.038 89.2737C242.703 89.0695 242.44 88.7777 242.247 88.3982C242.055 88.0188 241.96 87.5662 241.96 87.0405C241.96 86.5131 242.056 86.0605 242.249 85.6827C242.442 85.3032 242.706 85.0122 243.04 84.8097C243.375 84.6055 243.755 84.5034 244.181 84.5034C244.443 84.5034 244.687 84.5412 244.914 84.6167C245.142 84.6907 245.347 84.8 245.529 84.9447C245.711 85.0878 245.861 85.263 245.98 85.4705C246.099 85.6762 246.179 85.9118 246.221 86.1771Z" fill="#7E818C"/>
<rect x="76.144" y="105.242" width="16.2991" height="16.2991" rx="3.25373" fill="#DFDEFA"/>
<rect x="102.857" y="105.242" width="16.2991" height="16.2991" rx="3.25373" fill="#DFDEFA"/>
<rect x="129.569" y="105.242" width="16.2991" height="16.2991" rx="3.25373" fill="#DFDEFA"/>
<rect x="156.281" y="105.242" width="16.2991" height="16.2991" rx="3.25373" fill="#DFDEFA"/>
<rect x="182.994" y="105.242" width="16.2991" height="16.2991" rx="3.25373" fill="#DFDEFA"/>
<rect x="209.706" y="105.242" width="16.2991" height="16.2991" rx="3.25373" fill="#DFDEFA"/>
<rect x="236.418" y="105.242" width="16.2991" height="16.2991" rx="3.25373" fill="#DFDEFA"/>
<rect x="76.144" y="132.407" width="16.2991" height="16.2991" rx="3.25373" fill="#DFDEFA"/>
<rect x="102.857" y="132.407" width="16.2991" height="16.2991" rx="3.25373" fill="#DFDEFA"/>
<rect x="129.569" y="132.407" width="16.2991" height="16.2991" rx="3.25373" fill="#DFDEFA"/>
<rect x="156.281" y="132.407" width="16.2991" height="16.2991" rx="3.25373" fill="#9C98F8"/>
<rect x="182.994" y="132.407" width="16.2991" height="16.2991" rx="3.25373" fill="white"/>
<rect x="209.706" y="132.407" width="16.2991" height="16.2991" rx="3.25373" fill="white"/>
<rect x="236.418" y="132.407" width="16.2991" height="16.2991" rx="3.25373" fill="white"/>
<rect x="76.144" y="159.572" width="16.2991" height="16.2991" rx="3.25373" fill="white"/>
<rect x="102.857" y="159.572" width="16.2991" height="16.2991" rx="3.25373" fill="white"/>
<rect x="129.569" y="159.572" width="16.2991" height="16.2991" rx="3.25373" fill="white"/>
<rect x="156.281" y="159.572" width="16.2991" height="16.2991" rx="3.25373" fill="white"/>
<rect x="182.994" y="159.572" width="16.2991" height="16.2991" rx="3.25373" fill="white"/>
<rect x="209.706" y="159.572" width="16.2991" height="16.2991" rx="3.25373" fill="white"/>
<rect x="236.418" y="159.572" width="16.2991" height="16.2991" rx="3.25373" fill="white"/>
<rect x="76.144" y="186.737" width="16.2991" height="16.2991" rx="3.25373" fill="white"/>
<rect x="102.857" y="186.737" width="16.2991" height="16.2991" rx="3.25373" fill="white"/>
<rect x="129.569" y="186.737" width="16.2991" height="16.2991" rx="3.25373" fill="white"/>
<rect x="139" y="42.5" width="16.2991" height="16.2991" rx="3.25373" fill="#DFDEFA"/>
<path d="M161.055 50.3779V49.083H167.119V50.3779H161.055ZM161.055 53.3428V52.0479H167.119V53.3428H161.055Z" fill="#636884"/>
<g clip-path="url(#clip1_885_9848)">
<path d="M174.75 58.0311H188.291V44.4904H174.75V58.0311Z" fill="#0F2552"/>
</g>
<rect x="173.049" y="42.25" width="16.7991" height="16.7991" rx="3.50373" stroke="#636884" stroke-opacity="0.1" stroke-width="0.5"/>
</g>
<rect x="60.3865" y="29.0423" width="208.087" height="216.915" rx="10.3238" stroke="white" stroke-opacity="0.5" stroke-width="1.08458"/>
<rect x="-15" y="148.5" width="352" height="98" fill="url(#paint0_linear_885_9848)"/>
<defs>
<linearGradient id="paint0_linear_885_9848" x1="161" y1="148.5" x2="161" y2="246.5" gradientUnits="userSpaceOnUse">
<stop stop-color="#F4F5F9" stop-opacity="0"/>
<stop offset="1" stop-color="#F4F5F9"/>
</linearGradient>
<clipPath id="clip0_885_9848">
<rect x="59.8442" y="28.5" width="209.171" height="218" rx="10.866" fill="white"/>
</clipPath>
<clipPath id="clip1_885_9848">
<rect x="173.299" y="42.5" width="16.2991" height="16.2991" rx="3.25373" fill="white"/>
</clipPath>
</defs>
</svg>
