<svg width="328" height="200" viewBox="0 0 328 200" fill="none" xmlns="http://www.w3.org/2000/svg">
<path d="M163.237 120.901C163.636 120.43 164.364 120.43 164.763 120.901L173.526 131.25H154.474L163.237 120.901Z" fill="#C1C6E0"/>
<g filter="url(#filter0_d_2036_20148)">
<rect x="19" y="53" width="48" height="48" rx="14" fill="url(#paint0_linear_2036_20148)"/>
</g>
<path d="M42.4939 63.4884C42.8088 63.3167 43.1894 63.3167 43.5042 63.4884L56.773 70.726C57.7324 71.2493 57.3608 72.7069 56.2679 72.7069H29.7303C28.6374 72.7069 28.2657 71.2493 29.2251 70.726L42.4939 63.4884Z" fill="url(#paint1_linear_2036_20148)"/>
<path d="M31.9227 74.8167C31.3401 74.8167 30.8678 75.289 30.8678 75.8716V85.3657H29.8129C29.2303 85.3657 28.758 85.8379 28.758 86.4205V87.4754H57.2401V86.4205C57.2401 85.8379 56.7678 85.3657 56.1852 85.3657H55.1304V75.8716C55.1304 75.289 54.6581 74.8167 54.0755 74.8167H50.9108C50.3282 74.8167 49.8559 75.289 49.8559 75.8716V85.3657H45.6363V75.8716C45.6363 75.289 45.164 74.8167 44.5814 74.8167H41.4167C40.8341 74.8167 40.3618 75.289 40.3618 75.8716V85.3657H36.1423V75.8716C36.1423 75.289 35.67 74.8167 35.0874 74.8167H31.9227Z" fill="url(#paint2_linear_2036_20148)"/>
<path d="M27.7031 89.5852C27.7031 89.0026 28.1754 88.5303 28.758 88.5303H57.2401C57.8227 88.5303 58.295 89.0026 58.295 89.5852C58.295 90.1678 57.8227 90.6401 57.2401 90.6401H28.758C28.1754 90.6401 27.7031 90.1678 27.7031 89.5852Z" fill="url(#paint3_linear_2036_20148)"/>
<g filter="url(#filter1_d_2036_20148)">
<rect x="208" y="53" width="48" height="48" rx="14" fill="url(#paint4_linear_2036_20148)"/>
</g>
<g filter="url(#filter2_d_2036_20148)">
<circle cx="240.796" cy="87.5844" r="9.99698" fill="url(#paint5_linear_2036_20148)"/>
</g>
<path d="M245.676 88.385L241.173 91.0645V94.7757L245.676 88.385Z" fill="url(#paint6_linear_2036_20148)"/>
<path d="M241.175 91.0645L236.676 88.385L241.175 94.7757V91.0645Z" fill="url(#paint7_linear_2036_20148)"/>
<path d="M241.173 85.4634V90.2056L245.673 87.5244L241.173 85.4634Z" fill="url(#paint8_linear_2036_20148)"/>
<path d="M241.175 90.2059V85.4637L236.676 87.5247L241.175 90.2059ZM241.175 85.4637L245.676 87.5247L241.175 79.9998V85.4637Z" fill="url(#paint9_linear_2036_20148)"/>
<path d="M241.175 85.4637V79.9998L236.676 87.5247L241.175 85.4637Z" fill="url(#paint10_linear_2036_20148)"/>
<path fill-rule="evenodd" clip-rule="evenodd" d="M231.697 77.6494C233.813 77.6494 234.761 77.5968 234.945 77.5839L234.939 77.5825C235.979 77.5396 236.976 77.4766 237.919 77.3958C236.966 77.6643 236.067 78.063 235.244 78.5714C235.144 78.5761 235.044 78.5806 234.943 78.5849V78.7638C232.091 80.66 230.212 83.9026 230.212 87.5842C230.212 88.5565 230.343 89.4981 230.588 90.3924H228.398V78.5891C221.037 78.2731 215.501 76.9176 215.501 75.2916C215.501 73.6657 221.037 72.3088 228.398 71.9941V68.3122H219.341V62.6953H244.003V68.3122H234.945V71.9942C234.944 71.9942 234.944 71.9941 234.943 71.9941L234.945 71.9955V71.9942C242.293 72.3104 247.814 73.6658 247.814 75.2902C247.814 76.1246 246.356 76.888 243.943 77.4758C243.074 77.2053 242.156 77.044 241.206 77.0078C244.309 76.5226 246.273 75.8042 246.273 75.0026C246.273 73.744 241.429 72.6904 234.939 72.4213V76.536C234.757 76.5517 233.745 76.63 231.726 76.63C230.043 76.63 228.825 76.5631 228.399 76.5346V72.4184C221.895 72.6889 217.04 73.7411 217.04 75.0026C217.04 76.2641 221.895 77.3177 228.399 77.5839C228.819 77.6025 230.014 77.6494 231.697 77.6494Z" fill="url(#paint11_linear_2036_20148)"/>
<g filter="url(#filter3_d_2036_20148)">
<rect x="269" y="53" width="48" height="48" rx="14" fill="url(#paint12_linear_2036_20148)"/>
</g>
<path fill-rule="evenodd" clip-rule="evenodd" d="M294.548 85.3568C297.779 83.92 301.287 83.2173 304.822 83.3012C305.696 83.3221 306.369 82.5392 306.218 81.6789L303.626 66.9004C303.511 66.2501 302.955 65.7714 302.293 65.7555L301.74 65.7429C298.206 65.6588 294.697 66.3617 291.466 67.7985L290.849 68.0725C287.619 69.5093 284.11 70.212 280.575 70.1281C279.702 70.1085 279.028 70.8915 279.179 71.7518L281.772 86.5302C281.886 87.1792 282.442 87.6592 283.103 87.6741L283.319 87.6797C287.076 87.7697 290.805 87.0225 294.239 85.4953L294.548 85.3568ZM295.401 76.0957C295.666 77.6018 294.659 79.0369 293.153 79.3011C291.647 79.5653 290.212 78.5587 289.948 77.0526C289.683 75.5466 290.69 74.1115 292.196 73.8473C293.702 73.5831 295.137 74.5897 295.401 76.0957ZM296.988 69.2754C297.938 69.0836 298.895 68.9558 299.852 68.8767C300.424 68.8296 300.925 69.2546 300.972 69.826C301.019 70.3975 300.594 70.8989 300.023 70.9461C299.135 71.0194 298.26 71.137 297.399 71.3107C296.837 71.4242 296.289 71.0605 296.176 70.4985C296.063 69.9364 296.426 69.3888 296.988 69.2754ZM285.369 82.4545C284.798 82.5017 284.373 83.0032 284.42 83.5746C284.467 84.146 284.969 84.5711 285.54 84.5239C286.499 84.4448 287.454 84.3155 288.402 84.1256C288.965 84.0129 289.329 83.4659 289.216 82.9037C289.104 82.3415 288.557 81.977 287.995 82.0896C287.132 82.2624 286.256 82.3813 285.369 82.4545Z" fill="url(#paint13_linear_2036_20148)"/>
<g filter="url(#filter4_d_2036_20148)">
<rect x="334" y="53" width="48" height="48" rx="14" fill="url(#paint14_linear_2036_20148)"/>
</g>
<g filter="url(#filter5_d_2036_20148)">
<rect x="81" y="53" width="48" height="48" rx="14" fill="url(#paint15_linear_2036_20148)"/>
</g>
<path fill-rule="evenodd" clip-rule="evenodd" d="M103.25 70.6499H110.103C113.782 70.6499 115.167 72.4898 114.953 75.1929C114.6 79.6556 111.868 82.1245 108.246 82.1245H106.417C105.92 82.1245 105.585 82.4495 105.451 83.3302L104.674 88.4498C104.623 88.7818 104.446 88.974 104.181 89.0002H99.8754C99.4703 89.0002 99.327 88.6944 99.4332 88.0322L102.058 71.6197C102.161 70.9627 102.525 70.6499 103.25 70.6499Z" fill="url(#paint16_linear_2036_20148)"/>
<path fill-rule="evenodd" clip-rule="evenodd" d="M98.9643 65H105.824C107.756 65 110.048 65.0612 111.58 66.3979C112.604 67.2907 113.142 68.7113 113.018 70.2419C112.597 75.4157 109.464 78.3145 105.262 78.3145H101.879C101.303 78.3145 100.922 78.6919 100.76 79.7124L99.8152 85.6532C99.7533 86.0376 99.5852 86.2648 99.2845 86.2928H95.0516C94.5828 86.2928 94.4166 85.9433 94.5386 85.171L97.5811 66.1288C97.7031 65.3634 98.1294 65 98.9643 65Z" fill="url(#paint17_linear_2036_20148)"/>
<path fill-rule="evenodd" clip-rule="evenodd" d="M100.86 79.1092L102.057 71.6185C102.162 70.9615 102.526 70.647 103.251 70.647H110.104C111.238 70.647 112.156 70.8217 112.874 71.145C112.186 75.7509 109.17 78.3089 105.222 78.3089H101.845C101.392 78.3107 101.06 78.5343 100.86 79.1092Z" fill="#F2F2F2"/>
<path d="M268 235C268 292.438 221.438 339 164 339C106.562 339 60 292.438 60 235C60 177.562 106.562 131 164 131C221.438 131 268 177.562 268 235Z" stroke="url(#paint18_linear_2036_20148)" stroke-width="2"/>
<rect y="20" width="82" height="112" fill="url(#paint19_linear_2036_20148)"/>
<rect width="97" height="112" transform="matrix(-1 0 0 1 328 20)" fill="url(#paint20_linear_2036_20148)"/>
<g filter="url(#filter6_d_2036_20148)">
<rect x="138" y="49.0173" width="48" height="48" rx="14" transform="rotate(-6 138 49.0173)" fill="url(#paint21_linear_2036_20148)"/>
</g>
<path fill-rule="evenodd" clip-rule="evenodd" d="M148.968 63.1037C147.927 63.3653 147.291 64.4227 147.548 65.4653L147.842 66.6602L177.266 59.2683L176.971 58.0735C176.714 57.0308 175.661 56.3977 174.62 56.6593L148.968 63.1037ZM178.001 62.2524L148.578 69.6443L151.792 82.6804C152.049 83.7231 153.102 84.3562 154.143 84.0945L179.795 77.6502C180.836 77.3885 181.472 76.3312 181.215 75.2886L178.001 62.2524ZM154.435 78.512L163.089 76.3379L163.649 78.608L154.995 80.782L154.435 78.512ZM174.251 75.086L174.502 76.1017L175.235 75.9205L174.984 74.9046C175.551 74.73 176.024 74.4964 176.404 74.2037C176.866 73.8461 177.184 73.4308 177.358 72.9577C177.531 72.4817 177.552 71.9755 177.419 71.4391C177.321 71.0428 177.161 70.7155 176.939 70.4574C176.717 70.1992 176.452 69.9975 176.144 69.8522C175.84 69.7063 175.509 69.6045 175.154 69.547C174.801 69.4888 174.442 69.4621 174.076 69.4671L173.639 69.466L173.01 66.9198C173.357 66.8766 173.667 66.9085 173.94 67.0155C174.303 67.1564 174.554 67.4169 174.692 67.797L176.288 67.4025C176.152 66.8892 175.895 66.469 175.516 66.1419C175.138 65.8118 174.675 65.5958 174.128 65.4939C173.675 65.4061 173.186 65.4102 172.661 65.5064L172.406 64.4776L171.673 64.6589L171.929 65.6943C171.461 65.8511 171.051 66.0668 170.699 66.3415C170.248 66.6902 169.925 67.1037 169.73 67.5819C169.538 68.0594 169.509 68.5678 169.642 69.1071C169.805 69.7627 170.152 70.2349 170.685 70.5236C171.22 70.8087 171.889 70.9549 172.691 70.9622L173.233 70.9674L173.898 73.6601C173.682 73.6885 173.474 73.6913 173.274 73.6685C172.972 73.6327 172.708 73.5304 172.482 73.3615C172.257 73.1927 172.093 72.9518 171.991 72.6388L170.359 73.0422C170.533 73.6442 170.819 74.1207 171.215 74.4716C171.615 74.8218 172.103 75.0427 172.679 75.1343C173.157 75.2094 173.681 75.1933 174.251 75.086ZM174.631 73.4755C174.83 73.3996 175.006 73.307 175.16 73.1977C175.407 73.0196 175.584 72.8146 175.691 72.5826C175.797 72.3476 175.819 72.0986 175.757 71.8357C175.695 71.598 175.577 71.4187 175.401 71.2976C175.225 71.1735 175.001 71.0899 174.727 71.0468C174.514 71.0098 174.275 70.9866 174.013 70.9774L174.631 73.4755ZM172.86 69.459L172.278 67.1062C172.1 67.1769 171.944 67.2621 171.81 67.3617C171.589 67.5272 171.434 67.7155 171.347 67.9267C171.261 68.1379 171.244 68.3586 171.298 68.5888C171.345 68.7795 171.429 68.9342 171.55 69.0529C171.674 69.1709 171.824 69.2602 172 69.321C172.176 69.3788 172.364 69.4176 172.565 69.4375C172.664 69.4472 172.762 69.4544 172.86 69.459Z" fill="url(#paint22_linear_2036_20148)"/>
<defs>
<filter id="filter0_d_2036_20148" x="0.796612" y="45.4153" width="84.4068" height="84.4068" filterUnits="userSpaceOnUse" color-interpolation-filters="sRGB">
<feFlood flood-opacity="0" result="BackgroundImageFix"/>
<feColorMatrix in="SourceAlpha" type="matrix" values="0 0 0 0 0 0 0 0 0 0 0 0 0 0 0 0 0 0 127 0" result="hardAlpha"/>
<feOffset dy="10.6186"/>
<feGaussianBlur stdDeviation="9.10169"/>
<feColorMatrix type="matrix" values="0 0 0 0 0.589444 0 0 0 0 0.654283 0 0 0 0 0.884167 0 0 0 0.2 0"/>
<feBlend mode="normal" in2="BackgroundImageFix" result="effect1_dropShadow_2036_20148"/>
<feBlend mode="normal" in="SourceGraphic" in2="effect1_dropShadow_2036_20148" result="shape"/>
</filter>
<filter id="filter1_d_2036_20148" x="189.797" y="45.4153" width="84.4068" height="84.4068" filterUnits="userSpaceOnUse" color-interpolation-filters="sRGB">
<feFlood flood-opacity="0" result="BackgroundImageFix"/>
<feColorMatrix in="SourceAlpha" type="matrix" values="0 0 0 0 0 0 0 0 0 0 0 0 0 0 0 0 0 0 127 0" result="hardAlpha"/>
<feOffset dy="10.6186"/>
<feGaussianBlur stdDeviation="9.10169"/>
<feColorMatrix type="matrix" values="0 0 0 0 0.589444 0 0 0 0 0.654283 0 0 0 0 0.884167 0 0 0 0.2 0"/>
<feBlend mode="normal" in2="BackgroundImageFix" result="effect1_dropShadow_2036_20148"/>
<feBlend mode="normal" in="SourceGraphic" in2="effect1_dropShadow_2036_20148" result="shape"/>
</filter>
<filter id="filter2_d_2036_20148" x="208.299" y="68.5874" width="64.9941" height="64.9939" filterUnits="userSpaceOnUse" color-interpolation-filters="sRGB">
<feFlood flood-opacity="0" result="BackgroundImageFix"/>
<feColorMatrix in="SourceAlpha" type="matrix" values="0 0 0 0 0 0 0 0 0 0 0 0 0 0 0 0 0 0 127 0" result="hardAlpha"/>
<feOffset dy="13.5"/>
<feGaussianBlur stdDeviation="11.25"/>
<feColorMatrix type="matrix" values="0 0 0 0 0.589444 0 0 0 0 0.654283 0 0 0 0 0.884167 0 0 0 0.2 0"/>
<feBlend mode="normal" in2="BackgroundImageFix" result="effect1_dropShadow_2036_20148"/>
<feBlend mode="normal" in="SourceGraphic" in2="effect1_dropShadow_2036_20148" result="shape"/>
</filter>
<filter id="filter3_d_2036_20148" x="250.797" y="45.4153" width="84.4068" height="84.4068" filterUnits="userSpaceOnUse" color-interpolation-filters="sRGB">
<feFlood flood-opacity="0" result="BackgroundImageFix"/>
<feColorMatrix in="SourceAlpha" type="matrix" values="0 0 0 0 0 0 0 0 0 0 0 0 0 0 0 0 0 0 127 0" result="hardAlpha"/>
<feOffset dy="10.6186"/>
<feGaussianBlur stdDeviation="9.10169"/>
<feColorMatrix type="matrix" values="0 0 0 0 0.589444 0 0 0 0 0.654283 0 0 0 0 0.884167 0 0 0 0.2 0"/>
<feBlend mode="normal" in2="BackgroundImageFix" result="effect1_dropShadow_2036_20148"/>
<feBlend mode="normal" in="SourceGraphic" in2="effect1_dropShadow_2036_20148" result="shape"/>
</filter>
<filter id="filter4_d_2036_20148" x="315.797" y="45.4153" width="84.4068" height="84.4068" filterUnits="userSpaceOnUse" color-interpolation-filters="sRGB">
<feFlood flood-opacity="0" result="BackgroundImageFix"/>
<feColorMatrix in="SourceAlpha" type="matrix" values="0 0 0 0 0 0 0 0 0 0 0 0 0 0 0 0 0 0 127 0" result="hardAlpha"/>
<feOffset dy="10.6186"/>
<feGaussianBlur stdDeviation="9.10169"/>
<feColorMatrix type="matrix" values="0 0 0 0 0.589444 0 0 0 0 0.654283 0 0 0 0 0.884167 0 0 0 0.2 0"/>
<feBlend mode="normal" in2="BackgroundImageFix" result="effect1_dropShadow_2036_20148"/>
<feBlend mode="normal" in="SourceGraphic" in2="effect1_dropShadow_2036_20148" result="shape"/>
</filter>
<filter id="filter5_d_2036_20148" x="62.7966" y="45.4153" width="84.4068" height="84.4068" filterUnits="userSpaceOnUse" color-interpolation-filters="sRGB">
<feFlood flood-opacity="0" result="BackgroundImageFix"/>
<feColorMatrix in="SourceAlpha" type="matrix" values="0 0 0 0 0 0 0 0 0 0 0 0 0 0 0 0 0 0 127 0" result="hardAlpha"/>
<feOffset dy="10.6186"/>
<feGaussianBlur stdDeviation="9.10169"/>
<feColorMatrix type="matrix" values="0 0 0 0 0.589444 0 0 0 0 0.654283 0 0 0 0 0.884167 0 0 0 0.2 0"/>
<feBlend mode="normal" in2="BackgroundImageFix" result="effect1_dropShadow_2036_20148"/>
<feBlend mode="normal" in="SourceGraphic" in2="effect1_dropShadow_2036_20148" result="shape"/>
</filter>
<filter id="filter6_d_2036_20148" x="115.629" y="35.6296" width="97.4956" height="97.4951" filterUnits="userSpaceOnUse" color-interpolation-filters="sRGB">
<feFlood flood-opacity="0" result="BackgroundImageFix"/>
<feColorMatrix in="SourceAlpha" type="matrix" values="0 0 0 0 0 0 0 0 0 0 0 0 0 0 0 0 0 0 127 0" result="hardAlpha"/>
<feOffset dy="14"/>
<feGaussianBlur stdDeviation="12"/>
<feColorMatrix type="matrix" values="0 0 0 0 0.945098 0 0 0 0 0.568627 0 0 0 0 0.705882 0 0 0 0.2 0"/>
<feBlend mode="normal" in2="BackgroundImageFix" result="effect1_dropShadow_2036_20148"/>
<feBlend mode="normal" in="SourceGraphic" in2="effect1_dropShadow_2036_20148" result="shape"/>
</filter>
<linearGradient id="paint0_linear_2036_20148" x1="19.0645" y1="53" x2="66.9414" y2="101.073" gradientUnits="userSpaceOnUse">
<stop stop-color="#C9CFE8"/>
<stop offset="1" stop-color="#8188AC"/>
</linearGradient>
<linearGradient id="paint1_linear_2036_20148" x1="42.9991" y1="63.3596" x2="42.9991" y2="90.6401" gradientUnits="userSpaceOnUse">
<stop stop-color="white"/>
<stop offset="1" stop-color="white" stop-opacity="0.7"/>
</linearGradient>
<linearGradient id="paint2_linear_2036_20148" x1="42.9991" y1="63.3596" x2="42.9991" y2="90.6401" gradientUnits="userSpaceOnUse">
<stop stop-color="white"/>
<stop offset="1" stop-color="white" stop-opacity="0.7"/>
</linearGradient>
<linearGradient id="paint3_linear_2036_20148" x1="42.9991" y1="63.3596" x2="42.9991" y2="90.6401" gradientUnits="userSpaceOnUse">
<stop stop-color="white"/>
<stop offset="1" stop-color="white" stop-opacity="0.7"/>
</linearGradient>
<linearGradient id="paint4_linear_2036_20148" x1="208.065" y1="53" x2="255.941" y2="101.073" gradientUnits="userSpaceOnUse">
<stop stop-color="#C9CFE8"/>
<stop offset="1" stop-color="#8188AC"/>
</linearGradient>
<linearGradient id="paint5_linear_2036_20148" x1="230.826" y1="77.5874" x2="250.768" y2="97.6118" gradientUnits="userSpaceOnUse">
<stop stop-color="#C9CFE8"/>
<stop offset="1" stop-color="#8188AC"/>
</linearGradient>
<linearGradient id="paint6_linear_2036_20148" x1="243.286" y1="79.8051" x2="243.424" y2="94.7757" gradientUnits="userSpaceOnUse">
<stop stop-color="#F5F5F5"/>
<stop offset="1" stop-color="#F5F5F5" stop-opacity="0.6"/>
</linearGradient>
<linearGradient id="paint7_linear_2036_20148" x1="239.009" y1="79.9995" x2="238.926" y2="94.7757" gradientUnits="userSpaceOnUse">
<stop stop-color="white"/>
<stop offset="1" stop-color="white" stop-opacity="0.6"/>
</linearGradient>
<linearGradient id="paint8_linear_2036_20148" x1="243.286" y1="80.1938" x2="243.286" y2="94.7756" gradientUnits="userSpaceOnUse">
<stop stop-color="#E3E3E3"/>
<stop offset="1" stop-color="#E3E3E3" stop-opacity="0.6"/>
</linearGradient>
<linearGradient id="paint9_linear_2036_20148" x1="241.176" y1="79.9998" x2="241.342" y2="94.9704" gradientUnits="userSpaceOnUse">
<stop stop-color="#F5F5F5"/>
<stop offset="1" stop-color="#F5F5F5" stop-opacity="0.6"/>
</linearGradient>
<linearGradient id="paint10_linear_2036_20148" x1="238.926" y1="79.9998" x2="239.009" y2="94.7759" gradientUnits="userSpaceOnUse">
<stop stop-color="white"/>
<stop offset="1" stop-color="white" stop-opacity="0.6"/>
</linearGradient>
<linearGradient id="paint11_linear_2036_20148" x1="232.45" y1="63.5277" x2="232.45" y2="89.56" gradientUnits="userSpaceOnUse">
<stop stop-color="white"/>
<stop offset="1" stop-color="white" stop-opacity="0.6"/>
</linearGradient>
<linearGradient id="paint12_linear_2036_20148" x1="269.065" y1="53" x2="316.941" y2="101.073" gradientUnits="userSpaceOnUse">
<stop stop-color="#C9CFE8"/>
<stop offset="1" stop-color="#8188AC"/>
</linearGradient>
<linearGradient id="paint13_linear_2036_20148" x1="291.021" y1="67.1529" x2="294.37" y2="86.2415" gradientUnits="userSpaceOnUse">
<stop stop-color="white"/>
<stop offset="1" stop-color="white" stop-opacity="0.6"/>
</linearGradient>
<linearGradient id="paint14_linear_2036_20148" x1="334.065" y1="53" x2="381.941" y2="101.073" gradientUnits="userSpaceOnUse">
<stop stop-color="#C9CFE8"/>
<stop offset="1" stop-color="#8188AC"/>
</linearGradient>
<linearGradient id="paint15_linear_2036_20148" x1="81.0645" y1="53" x2="128.941" y2="101.073" gradientUnits="userSpaceOnUse">
<stop stop-color="#C9CFE8"/>
<stop offset="1" stop-color="#8188AC"/>
</linearGradient>
<linearGradient id="paint16_linear_2036_20148" x1="107.187" y1="70.6499" x2="107.187" y2="89.0002" gradientUnits="userSpaceOnUse">
<stop stop-color="#E9E9E9"/>
<stop offset="1" stop-color="#E9E9E9" stop-opacity="0.6"/>
</linearGradient>
<linearGradient id="paint17_linear_2036_20148" x1="103.768" y1="65" x2="103.768" y2="86.2928" gradientUnits="userSpaceOnUse">
<stop stop-color="white"/>
<stop offset="1" stop-color="white" stop-opacity="0.8"/>
</linearGradient>
<linearGradient id="paint18_linear_2036_20148" x1="164" y1="130" x2="164" y2="189" gradientUnits="userSpaceOnUse">
<stop stop-color="#BFC5DF"/>
<stop offset="1" stop-color="#BFC5DF" stop-opacity="0"/>
</linearGradient>
<linearGradient id="paint19_linear_2036_20148" x1="82" y1="76" x2="-2.71531e-07" y2="76" gradientUnits="userSpaceOnUse">
<stop stop-color="#F5F6FA" stop-opacity="0"/>
<stop offset="1" stop-color="#F5F6FA"/>
</linearGradient>
<linearGradient id="paint20_linear_2036_20148" x1="97" y1="56" x2="-3.21202e-07" y2="56" gradientUnits="userSpaceOnUse">
<stop stop-color="#F5F6FA" stop-opacity="0"/>
<stop offset="1" stop-color="#F5F6FA"/>
</linearGradient>
<linearGradient id="paint21_linear_2036_20148" x1="138.065" y1="49.0173" x2="185.941" y2="97.0903" gradientUnits="userSpaceOnUse">
<stop stop-color="#FDAE9D"/>
<stop offset="1" stop-color="#E374CA"/>
</linearGradient>
<linearGradient id="paint22_linear_2036_20148" x1="164.422" y1="56.8866" x2="165.147" y2="83.8456" gradientUnits="userSpaceOnUse">
<stop stop-color="white"/>
<stop offset="1" stop-color="white" stop-opacity="0.7"/>
</linearGradient>
</defs>
</svg>
