<svg width="264" height="195" viewBox="0 0 264 195" fill="none" xmlns="http://www.w3.org/2000/svg">
<rect x="33.5" y="45.3427" width="197" height="55.6801" rx="25.4048" fill="#E0E2EF" fill-opacity="0.7"/>
<rect x="33.5" y="45.3427" width="197" height="55.6801" rx="25.4048" stroke="#DFE2F0"/>
<rect x="38.6313" y="50.4742" width="93.4378" height="45.4171" rx="22.7086" fill="white"/>
<g filter="url(#filter0_d_2036_20460)">
<rect x="43.1367" y="54.9794" width="36.4068" height="36.4068" rx="18.2034" fill="url(#paint0_linear_2036_20460)"/>
</g>
<path fill-rule="evenodd" clip-rule="evenodd" d="M63.5744 74.6252C63.4352 74.6349 62.7156 74.6748 61.1107 74.6748C59.8341 74.6748 58.9277 74.6392 58.6098 74.6252C53.6764 74.4232 49.9941 73.6241 49.9941 72.6673C49.9941 71.7105 53.6764 70.9124 58.6098 70.7072V73.8293C58.9324 73.8509 59.8561 73.9016 61.1327 73.9016C62.6646 73.9016 63.4317 73.8422 63.5698 73.8303V70.7094C68.4926 70.9135 72.1668 71.7126 72.1668 72.6673C72.1668 73.6219 68.4938 74.4211 63.5698 74.6241L63.5744 74.6252ZM63.5744 70.3865V67.5928H70.4446V63.3325H51.7395V67.5928H58.6086V70.3854C53.0254 70.6241 48.8267 71.6532 48.8267 72.8865C48.8267 74.1198 53.0254 75.1478 58.6086 75.3876V84.3401H63.5732V75.3843C69.1437 75.1457 73.3355 74.1176 73.3355 72.8854C73.3355 71.6532 69.1472 70.6252 63.5732 70.3854L63.5744 70.3865Z" fill="url(#paint1_linear_2036_20460)"/>
<path d="M88.7156 76.2929C87.1053 76.2929 86.1022 75.3469 86.1022 73.9435V69.8343H87.2373V73.8511C87.2373 74.731 87.774 75.3073 88.7156 75.3073C89.6571 75.3073 90.1894 74.731 90.1894 73.8511V69.8343H91.3201V73.9435C91.3201 75.3469 90.3302 76.2929 88.7156 76.2929ZM94.677 76.2929C93.2207 76.2929 92.2616 75.6065 92.1868 74.467L92.1824 74.401H93.2691L93.2779 74.4538C93.3615 74.9994 93.9203 75.3381 94.7166 75.3381C95.5173 75.3381 96.0189 74.9818 96.0189 74.4362V74.4318C96.0189 73.9567 95.6889 73.7015 94.8706 73.5299L94.1886 73.3891C92.9392 73.1295 92.3232 72.5488 92.3232 71.6029V71.5985C92.3276 70.481 93.3087 69.7243 94.677 69.7243C96.0629 69.7243 96.9692 70.4546 97.0352 71.5413L97.0396 71.6161H95.9529L95.9441 71.5633C95.8693 71.0089 95.3809 70.679 94.6682 70.679C93.9247 70.6834 93.4627 71.0309 93.4627 71.5369V71.5413C93.4627 71.9901 93.8103 72.254 94.5758 72.4124L95.2621 72.5532C96.582 72.826 97.1584 73.3627 97.1584 74.3526V74.357C97.1584 75.5405 96.2257 76.2929 94.677 76.2929ZM98.0075 76.1829V69.8343H100.326C102.218 69.8343 103.344 70.9782 103.344 72.9844V72.9932C103.344 75.0038 102.227 76.1829 100.326 76.1829H98.0075ZM99.1426 75.2238H100.207C101.483 75.2238 102.187 74.445 102.187 72.9976V72.9888C102.187 71.5721 101.47 70.7934 100.207 70.7934H99.1426V75.2238ZM105.43 76.1829V70.789H103.529V69.8343H108.456V70.789H106.56V76.1829H105.43Z" fill="#202427"/>
<path d="M115.175 75.4355L117.427 73.183L115.175 70.9304" stroke="#636884" stroke-width="0.844721" stroke-linecap="round" stroke-linejoin="round"/>
<rect x="33.5" y="116.023" width="197" height="55.3147" rx="25.4048" fill="#E0E2EF" fill-opacity="0.7"/>
<rect x="33.5" y="116.023" width="197" height="55.3147" rx="25.4048" stroke="#DFE2F0"/>
<rect x="135.369" y="121.154" width="90" height="45.0518" rx="22.5259" fill="white"/>
<path d="M165.548 146.68H162.886V140.332H165.521C166.674 140.332 167.417 140.952 167.417 141.915C167.417 142.597 166.912 143.191 166.26 143.297V143.332C167.123 143.416 167.725 144.036 167.725 144.876C167.725 145.994 166.903 146.68 165.548 146.68ZM164.021 141.216V143.007H165.059C165.851 143.007 166.296 142.672 166.296 142.083C166.296 141.528 165.913 141.216 165.235 141.216H164.021ZM164.021 145.796H165.288C166.124 145.796 166.568 145.448 166.568 144.797C166.568 144.15 166.111 143.812 165.24 143.812H164.021V145.796ZM171.219 146.68H170.088V141.291H168.187V140.332H173.115V141.291H171.219V146.68ZM176.261 146.786C174.448 146.786 173.309 145.541 173.309 143.504C173.309 141.48 174.457 140.226 176.261 140.226C177.734 140.226 178.856 141.145 178.997 142.509H177.88C177.73 141.713 177.083 141.189 176.261 141.189C175.17 141.189 174.47 142.087 174.47 143.504C174.47 144.929 175.165 145.822 176.265 145.822C177.105 145.822 177.708 145.369 177.884 144.604H178.997C178.799 145.963 177.761 146.786 176.261 146.786Z" fill="#202427"/>
<path d="M156.696 145.933L154.443 143.68L156.696 141.428" stroke="#636884" stroke-width="0.844721" stroke-linecap="round" stroke-linejoin="round"/>
<g filter="url(#filter1_d_2036_20460)">
<rect x="185.327" y="125.659" width="36.0414" height="36.0414" rx="18.0207" fill="url(#paint2_linear_2036_20460)"/>
</g>
<path d="M210.969 142.257C211.3 140.127 209.617 138.981 207.316 138.217L208.063 135.332L206.24 134.894L205.514 137.704C205.035 137.589 204.543 137.48 204.054 137.372L204.786 134.544L202.964 134.107L202.217 136.991C201.821 136.904 201.432 136.818 201.054 136.728L201.056 136.719L198.543 136.114L198.058 137.99C198.058 137.99 199.41 138.288 199.381 138.307C200.119 138.485 200.253 138.955 200.231 139.329L199.38 142.616C199.431 142.629 199.497 142.647 199.57 142.675C199.509 142.66 199.444 142.644 199.377 142.629L198.185 147.234C198.095 147.45 197.866 147.774 197.35 147.651C197.369 147.676 196.026 147.332 196.026 147.332L195.121 149.343L197.493 149.913C197.934 150.019 198.366 150.131 198.792 150.236L198.038 153.155L199.858 153.592L200.605 150.705C201.102 150.835 201.585 150.955 202.057 151.068L201.313 153.942L203.135 154.38L203.889 151.467C206.997 152.033 209.333 151.805 210.317 149.096C211.11 146.915 210.278 145.656 208.643 144.836C209.833 144.571 210.73 143.816 210.969 142.257ZM206.806 147.885C206.243 150.066 202.432 148.887 201.197 148.591L202.198 144.724C203.433 145.021 207.394 145.61 206.806 147.885ZM207.369 142.225C206.856 144.209 203.684 143.201 202.655 142.954L203.563 139.447C204.591 139.694 207.905 140.156 207.369 142.225Z" fill="url(#paint3_linear_2036_20460)"/>
<defs>
<filter id="filter0_d_2036_20460" x="24.9333" y="47.3946" width="72.8135" height="72.8135" filterUnits="userSpaceOnUse" color-interpolation-filters="sRGB">
<feFlood flood-opacity="0" result="BackgroundImageFix"/>
<feColorMatrix in="SourceAlpha" type="matrix" values="0 0 0 0 0 0 0 0 0 0 0 0 0 0 0 0 0 0 127 0" result="hardAlpha"/>
<feOffset dy="10.6186"/>
<feGaussianBlur stdDeviation="9.10169"/>
<feColorMatrix type="matrix" values="0 0 0 0 0.171125 0 0 0 0 0.555 0 0 0 0 0.324675 0 0 0 0.2 0"/>
<feBlend mode="normal" in2="BackgroundImageFix" result="effect1_dropShadow_2036_20460"/>
<feBlend mode="normal" in="SourceGraphic" in2="effect1_dropShadow_2036_20460" result="shape"/>
</filter>
<filter id="filter1_d_2036_20460" x="168.433" y="118.902" width="69.8303" height="69.8302" filterUnits="userSpaceOnUse" color-interpolation-filters="sRGB">
<feFlood flood-opacity="0" result="BackgroundImageFix"/>
<feColorMatrix in="SourceAlpha" type="matrix" values="0 0 0 0 0 0 0 0 0 0 0 0 0 0 0 0 0 0 127 0" result="hardAlpha"/>
<feOffset dy="10.1366"/>
<feGaussianBlur stdDeviation="8.4472"/>
<feColorMatrix type="matrix" values="0 0 0 0 1 0 0 0 0 0.642667 0 0 0 0 0.441667 0 0 0 0.2 0"/>
<feBlend mode="normal" in2="BackgroundImageFix" result="effect1_dropShadow_2036_20460"/>
<feBlend mode="normal" in="SourceGraphic" in2="effect1_dropShadow_2036_20460" result="shape"/>
</filter>
<linearGradient id="paint0_linear_2036_20460" x1="43.1857" y1="54.9794" x2="79.4991" y2="91.4415" gradientUnits="userSpaceOnUse">
<stop stop-color="#69C9AF"/>
<stop offset="1" stop-color="#3E9A80"/>
</linearGradient>
<linearGradient id="paint1_linear_2036_20460" x1="61.6822" y1="62.9639" x2="61.6822" y2="82.7087" gradientUnits="userSpaceOnUse">
<stop stop-color="white"/>
<stop offset="1" stop-color="white" stop-opacity="0.6"/>
</linearGradient>
<linearGradient id="paint2_linear_2036_20460" x1="185.376" y1="125.659" x2="221.325" y2="161.756" gradientUnits="userSpaceOnUse">
<stop stop-color="#FFBA53"/>
<stop offset="1" stop-color="#FF8311"/>
</linearGradient>
<linearGradient id="paint3_linear_2036_20460" x1="203.066" y1="134.107" x2="203.066" y2="154.38" gradientUnits="userSpaceOnUse">
<stop stop-color="white"/>
<stop offset="1" stop-color="white" stop-opacity="0.6"/>
</linearGradient>
</defs>
</svg>
