<svg width="148" height="43" viewBox="0 0 148 43" fill="none" xmlns="http://www.w3.org/2000/svg">
<path d="M147.191 37.6567C147.191 39.8949 145.307 41.7079 142.977 41.7079H5.05593C2.72664 41.7079 0.835938 39.8949 0.835938 37.6567V5.34937C0.835938 3.1122 2.72664 1.29285 5.05593 1.29285H142.976C145.307 1.29285 147.19 3.1122 147.19 5.34937L147.191 37.6567Z" fill="#40374D"/>
<path d="M142.519 1.34131C145.056 1.34131 147.122 3.31925 147.122 5.75V37.25C147.122 39.6807 145.056 41.6587 142.519 41.6587H5.48148C2.94356 41.6587 0.878407 39.6807 0.878407 37.25V5.75C0.878407 3.31925 2.94356 1.34131 5.48148 1.34131H142.519ZM142.519 0.499997H5.48148C2.46804 0.499997 0 2.86381 0 5.75V37.25C0 40.1362 2.46804 42.5 5.48148 42.5H142.519C145.532 42.5 148 40.1362 148 37.25V5.75C148 2.86381 145.532 0.499997 142.519 0.499997Z" fill="#A6A6A6"/>
<path d="M32.9977 21.2733C32.9659 17.8892 35.8908 16.2428 36.0246 16.1661C34.3681 13.853 31.8005 13.5369 30.8983 13.5117C28.7419 13.2944 26.6501 14.7476 25.5516 14.7476C24.4312 14.7476 22.7396 13.5327 20.9165 13.5684C18.5704 13.6031 16.3756 14.904 15.1719 16.9242C12.6877 21.0434 14.5404 27.0966 16.9205 30.4261C18.1111 32.0568 19.5023 33.8775 21.3232 33.8134C23.1047 33.7431 23.7702 32.7256 25.92 32.7256C28.0501 32.7256 28.675 33.8134 30.5321 33.7725C32.444 33.7431 33.6478 32.1345 34.7967 30.4892C36.1726 28.6202 36.7251 26.7795 36.747 26.685C36.7021 26.6703 33.0339 25.3295 32.9977 21.2733Z" fill="white"/>
<path d="M29.4895 11.3214C30.4477 10.1738 31.1033 8.6124 30.9213 7.02795C29.5345 7.08675 27.8001 7.9467 26.8014 9.06915C25.9178 10.0583 25.1285 11.6795 25.3324 13.2041C26.8902 13.3154 28.4897 12.4512 29.4895 11.3214Z" fill="white"/>
<path d="M58.7856 33.5794H56.2959L54.9322 29.4749H50.1918L48.8927 33.5794H46.4688L51.1653 19.606H54.0661L58.7856 33.5794ZM54.521 27.7529L53.2877 24.1042C53.1572 23.7314 52.9128 22.8536 52.5521 21.4718H52.5082C52.3646 22.0661 52.1333 22.9439 51.8154 24.1042L50.604 27.7529H54.521Z" fill="white"/>
<path d="M70.8574 28.4176C70.8574 30.1312 70.374 31.4857 69.407 32.4801C68.541 33.3652 67.4655 33.8073 66.1817 33.8073C64.796 33.8073 63.8006 33.3306 63.1943 32.3772H63.1505V37.6849H60.8132V26.8206C60.8132 25.7433 60.7836 24.6376 60.7266 23.5036H62.7821L62.9126 25.1007H62.9564C63.7359 23.8974 64.9188 23.2968 66.5062 23.2968C67.7472 23.2968 68.7832 23.7661 69.612 24.7059C70.443 25.6467 70.8574 26.8836 70.8574 28.4176ZM68.4763 28.4995C68.4763 27.5188 68.2461 26.7103 67.7834 26.074C67.278 25.4104 66.5994 25.0786 65.7487 25.0786C65.172 25.0786 64.648 25.2634 64.1799 25.6278C63.7107 25.9953 63.4037 26.4751 63.2601 27.0694C63.1877 27.3466 63.1516 27.5734 63.1516 27.7519V29.4319C63.1516 30.1648 63.3862 30.7833 63.8554 31.2883C64.3246 31.7934 64.9341 32.0454 65.684 32.0454C66.5643 32.0454 67.2495 31.7199 67.7396 31.071C68.2307 30.421 68.4763 29.5642 68.4763 28.4995Z" fill="white"/>
<path d="M82.9501 28.4176C82.9501 30.1312 82.4666 31.4857 81.4986 32.4801C80.6336 33.3652 79.5582 33.8073 78.2744 33.8073C76.8887 33.8073 75.8932 33.3306 75.2881 32.3772H75.2442V37.6849H72.9069V26.8206C72.9069 25.7433 72.8773 24.6376 72.8203 23.5036H74.8759L75.0063 25.1007H75.0502C75.8285 23.8974 77.0115 23.2968 78.6 23.2968C79.8399 23.2968 80.8759 23.7661 81.7069 24.7059C82.5346 25.6467 82.9501 26.8836 82.9501 28.4176ZM80.5689 28.4995C80.5689 27.5188 80.3376 26.7103 79.875 26.074C79.3696 25.4104 78.6932 25.0786 77.8414 25.0786C77.2636 25.0786 76.7407 25.2634 76.2715 25.6278C75.8022 25.9953 75.4964 26.4751 75.3528 27.0694C75.2815 27.3466 75.2442 27.5734 75.2442 27.7519V29.4319C75.2442 30.1648 75.4788 30.7833 75.9459 31.2883C76.4151 31.7923 77.0246 32.0454 77.7767 32.0454C78.657 32.0454 79.3422 31.7199 79.8322 31.071C80.3234 30.421 80.5689 29.5642 80.5689 28.4995Z" fill="white"/>
<path d="M96.4807 29.6565C96.4807 30.8451 96.0499 31.8122 95.1849 32.5587C94.2344 33.3746 92.9112 33.782 91.2108 33.782C89.6409 33.782 88.3824 33.4922 87.4297 32.9115L87.9713 31.0457C88.9974 31.64 90.1233 31.9382 91.35 31.9382C92.2304 31.9382 92.9156 31.7471 93.4078 31.367C93.8978 30.9869 94.1423 30.4766 94.1423 29.8403C94.1423 29.2733 93.9406 28.7955 93.5361 28.4081C93.1337 28.0206 92.4617 27.6605 91.5233 27.3276C88.9689 26.4152 87.6928 25.0785 87.6928 23.3208C87.6928 22.1721 88.1401 21.2303 89.0358 20.4974C89.9282 19.7634 91.1187 19.397 92.6075 19.397C93.9351 19.397 95.038 19.6185 95.9183 20.0606L95.334 21.8855C94.5118 21.4571 93.5821 21.2429 92.5417 21.2429C91.7195 21.2429 91.0771 21.4371 90.6166 21.8235C90.2274 22.169 90.0323 22.59 90.0323 23.0888C90.0323 23.6411 90.2548 24.0978 90.7021 24.4569C91.0913 24.7887 91.7984 25.1478 92.8246 25.5353C94.0798 26.0193 95.0018 26.5853 95.5949 27.2342C96.1858 27.881 96.4807 28.6905 96.4807 29.6565Z" fill="white"/>
<path d="M104.208 25.1833H101.631V30.0753C101.631 31.3195 102.085 31.9411 102.995 31.9411C103.413 31.9411 103.759 31.9065 104.033 31.8372L104.098 33.5372C103.637 33.702 103.031 33.785 102.28 33.785C101.357 33.785 100.636 33.5151 100.115 32.9764C99.5965 32.4368 99.3356 31.5316 99.3356 30.2601V25.1812H97.8008V23.5012H99.3356V21.6564L101.631 20.9928V23.5012H104.208V25.1833Z" fill="white"/>
<path d="M115.855 28.4585C115.855 30.0072 115.392 31.2788 114.469 32.2731C113.501 33.2969 112.216 33.8072 110.615 33.8072C109.071 33.8072 107.842 33.3168 106.926 32.3361C106.009 31.3554 105.551 30.1175 105.551 28.6254C105.551 27.0641 106.022 25.7852 106.968 24.7908C107.912 23.7954 109.186 23.2977 110.788 23.2977C112.331 23.2977 113.573 23.7881 114.511 24.7698C115.408 25.7222 115.855 26.9517 115.855 28.4585ZM113.43 28.5309C113.43 27.6017 113.223 26.8047 112.803 26.1401C112.313 25.3358 111.612 24.9347 110.704 24.9347C109.765 24.9347 109.051 25.3368 108.561 26.1401C108.141 26.8058 107.934 27.6153 107.934 28.5729C107.934 29.5022 108.141 30.2991 108.561 30.9627C109.067 31.767 109.773 32.1681 110.684 32.1681C111.576 32.1681 112.277 31.7586 112.782 30.9417C113.213 30.2645 113.43 29.4591 113.43 28.5309Z" fill="white"/>
<path d="M123.453 25.4724C123.221 25.4314 122.975 25.4104 122.716 25.4104C121.894 25.4104 121.258 25.7076 120.811 26.3029C120.421 26.8279 120.226 27.4915 120.226 28.2927V33.5794H117.89L117.912 26.6767C117.912 25.5154 117.882 24.4581 117.824 23.5047H119.86L119.946 25.4325H120.01C120.257 24.7699 120.646 24.2365 121.179 23.8365C121.7 23.4763 122.262 23.2968 122.868 23.2968C123.084 23.2968 123.279 23.3115 123.453 23.3377V25.4724Z" fill="white"/>
<path d="M133.896 28.0626C133.896 28.4637 133.869 28.8018 133.811 29.0779H126.799C126.826 30.0733 127.165 30.8346 127.816 31.3596C128.407 31.8289 129.171 32.0641 130.109 32.0641C131.148 32.0641 132.095 31.9056 132.947 31.5874L133.313 33.1414C132.317 33.5572 131.142 33.7641 129.786 33.7641C128.155 33.7641 126.874 33.3042 125.942 32.3854C125.013 31.4667 124.547 30.2329 124.547 28.6852C124.547 27.1659 124.98 25.9006 125.847 24.8916C126.755 23.8143 127.982 23.2756 129.525 23.2756C131.041 23.2756 132.189 23.8143 132.969 24.8916C133.586 25.7473 133.896 26.8057 133.896 28.0626ZM131.667 27.4819C131.683 26.8183 131.53 26.245 131.213 25.761C130.809 25.1383 130.187 24.8275 129.351 24.8275C128.587 24.8275 127.965 25.131 127.49 25.74C127.101 26.224 126.87 26.8047 126.799 27.4809H131.667V27.4819Z" fill="white"/>
<path d="M53.786 11.0199C53.786 12.2557 53.399 13.186 52.6262 13.8108C51.9103 14.3872 50.8929 14.676 49.5752 14.676C48.9218 14.676 48.3627 14.6487 47.8945 14.5941V7.84153C48.5052 7.74703 49.1629 7.69873 49.8733 7.69873C51.1286 7.69873 52.0747 7.96018 52.7128 8.48308C53.4275 9.07423 53.786 9.91948 53.786 11.0199ZM52.5746 11.0503C52.5746 10.2492 52.3532 9.63493 51.9103 9.20653C51.4674 8.77918 50.8206 8.56498 49.9687 8.56498C49.607 8.56498 49.2989 8.58808 49.0435 8.63638V13.7698C49.1849 13.7908 49.4436 13.8003 49.8196 13.8003C50.6989 13.8003 51.3775 13.5661 51.8555 13.0978C52.3334 12.6295 52.5746 11.947 52.5746 11.0503Z" fill="white"/>
<path d="M60.1944 12.0985C60.1944 12.8598 59.9675 13.4835 59.5136 13.9728C59.0378 14.4757 58.4075 14.7267 57.6203 14.7267C56.8617 14.7267 56.2576 14.4862 55.807 14.0032C55.3576 13.5213 55.1328 12.9133 55.1328 12.1804C55.1328 11.4139 55.3641 10.785 55.829 10.2967C56.2938 9.80849 56.9187 9.56384 57.7058 9.56384C58.4645 9.56384 59.074 9.80429 59.5355 10.2862C59.9741 10.7545 60.1944 11.3593 60.1944 12.0985ZM59.0027 12.1342C59.0027 11.6775 58.8997 11.2858 58.6947 10.9593C58.4535 10.5645 58.1104 10.3671 57.6642 10.3671C57.2026 10.3671 56.8518 10.5645 56.6106 10.9593C56.4045 11.2858 56.3026 11.6838 56.3026 12.1542C56.3026 12.6109 56.4056 13.0026 56.6106 13.3291C56.8595 13.7239 57.2059 13.9213 57.6532 13.9213C58.0917 13.9213 58.436 13.7208 58.6837 13.3186C58.8964 12.9858 59.0027 12.591 59.0027 12.1342Z" fill="white"/>
<path d="M68.8275 9.66357L67.2105 14.6133H66.1581L65.4882 12.4639C65.3183 11.9274 65.1802 11.394 65.0727 10.8648H65.0519C64.9521 11.4087 64.814 11.941 64.6364 12.4639L63.9249 14.6133H62.8604L61.3398 9.66357H62.5206L63.1049 12.0166C63.2463 12.5731 63.3625 13.1034 63.4557 13.6053H63.4765C63.562 13.1916 63.7035 12.6645 63.903 12.0271L64.6364 9.66462H65.5726L66.2754 11.9767C66.4453 12.5406 66.5834 13.0834 66.6898 13.6063H66.7216C66.7994 13.0971 66.9167 12.5542 67.0724 11.9767L67.6995 9.66462H68.8275V9.66357Z" fill="white"/>
<path d="M74.7682 14.6137H73.6193V11.7787C73.6193 10.9051 73.2728 10.4683 72.5778 10.4683C72.2368 10.4683 71.9617 10.588 71.7479 10.8285C71.5363 11.0689 71.4289 11.3524 71.4289 11.6769V14.6127H70.2799V11.0784C70.2799 10.6437 70.2657 10.1722 70.2383 9.66191H71.248L71.3017 10.4358H71.3335C71.4672 10.1953 71.6668 9.99686 71.9288 9.83831C72.2401 9.65351 72.5887 9.56006 72.9702 9.56006C73.4526 9.56006 73.8539 9.70916 74.1729 10.0084C74.5697 10.3749 74.7682 10.9219 74.7682 11.6485V14.6137Z" fill="white"/>
<path d="M77.9441 14.6129H76.7969V7.39209H77.9441V14.6129Z" fill="white"/>
<path d="M84.7061 12.0985C84.7061 12.8598 84.4792 13.4835 84.0253 13.9728C83.5495 14.4757 82.9181 14.7267 82.132 14.7267C81.3723 14.7267 80.7682 14.4862 80.3188 14.0032C79.8693 13.5213 79.6445 12.9133 79.6445 12.1804C79.6445 11.4139 79.8759 10.785 80.3407 10.2967C80.8055 9.80849 81.4304 9.56384 82.2164 9.56384C82.9762 9.56384 83.5846 9.80429 84.0473 10.2862C84.4858 10.7545 84.7061 11.3593 84.7061 12.0985ZM83.5134 12.1342C83.5134 11.6775 83.4103 11.2858 83.2053 10.9593C82.9652 10.5645 82.621 10.3671 82.1759 10.3671C81.7132 10.3671 81.3624 10.5645 81.1223 10.9593C80.9162 11.2858 80.8143 11.6838 80.8143 12.1542C80.8143 12.6109 80.9173 13.0026 81.1223 13.3291C81.3712 13.7239 81.7176 13.9213 82.1649 13.9213C82.6034 13.9213 82.9466 13.7208 83.1943 13.3186C83.4081 12.9858 83.5134 12.591 83.5134 12.1342Z" fill="white"/>
<path d="M90.2661 14.6143H89.2345L89.149 14.0442H89.1172C88.7642 14.4988 88.261 14.7267 87.6076 14.7267C87.1197 14.7267 86.7251 14.5765 86.428 14.2783C86.1583 14.0074 86.0234 13.6704 86.0234 13.2703C86.0234 12.6655 86.2865 12.2046 86.8161 11.8854C87.3445 11.5662 88.0878 11.4097 89.0448 11.4171V11.3247C89.0448 10.6726 88.6874 10.3471 87.9716 10.3471C87.4618 10.3471 87.0123 10.47 86.6242 10.7136L86.3907 9.99119C86.8709 9.70664 87.464 9.56384 88.1634 9.56384C89.514 9.56384 90.1916 10.2463 90.1916 11.6113V13.4341C90.1916 13.9287 90.2168 14.3224 90.2661 14.6143ZM89.0733 12.9133V12.15C87.806 12.129 87.1724 12.4618 87.1724 13.1475C87.1724 13.4058 87.2447 13.599 87.3927 13.7281C87.5407 13.8573 87.7293 13.9213 87.954 13.9213C88.2062 13.9213 88.4419 13.8447 88.6567 13.6924C88.8727 13.5391 89.0054 13.3449 89.0547 13.1065C89.0668 13.053 89.0733 12.9879 89.0733 12.9133Z" fill="white"/>
<path d="M96.8044 14.6129H95.7849L95.7311 13.8181H95.6994C95.3738 14.4229 94.819 14.7253 94.0396 14.7253C93.4169 14.7253 92.8983 14.4911 92.4872 14.0228C92.0761 13.5545 91.8711 12.9466 91.8711 12.2C91.8711 11.3989 92.0936 10.75 92.5409 10.2544C92.974 9.79239 93.5046 9.56139 94.136 9.56139C94.83 9.56139 95.3156 9.78504 95.5919 10.2334H95.6138V7.39209H96.7639V13.2794C96.7639 13.7614 96.777 14.2055 96.8044 14.6129ZM95.6138 12.5255V11.7002C95.6138 11.5574 95.6029 11.4419 95.582 11.3537C95.5174 11.0891 95.3781 10.8665 95.1666 10.687C94.9528 10.5074 94.6951 10.4171 94.398 10.4171C93.9694 10.4171 93.6339 10.5799 93.3873 10.9064C93.1428 11.233 93.0189 11.6498 93.0189 12.1591C93.0189 12.6484 93.1362 13.0453 93.3719 13.3508C93.6208 13.6763 93.9562 13.8391 94.3761 13.8391C94.7532 13.8391 95.0547 13.7036 95.2839 13.4317C95.5053 13.1807 95.6138 12.8783 95.6138 12.5255Z" fill="white"/>
<path d="M106.612 12.0985C106.612 12.8598 106.385 13.4835 105.932 13.9728C105.456 14.4757 104.827 14.7267 104.038 14.7267C103.281 14.7267 102.677 14.4862 102.225 14.0032C101.776 13.5213 101.551 12.9133 101.551 12.1804C101.551 11.4139 101.782 10.785 102.247 10.2967C102.712 9.80849 103.337 9.56384 104.125 9.56384C104.882 9.56384 105.493 9.80429 105.954 10.2862C106.392 10.7545 106.612 11.3593 106.612 12.0985ZM105.422 12.1342C105.422 11.6775 105.319 11.2858 105.114 10.9593C104.871 10.5645 104.529 10.3671 104.082 10.3671C103.622 10.3671 103.271 10.5645 103.029 10.9593C102.822 11.2858 102.721 11.6838 102.721 12.1542C102.721 12.6109 102.824 13.0026 103.029 13.3291C103.277 13.7239 103.624 13.9213 104.071 13.9213C104.51 13.9213 104.855 13.7208 105.103 13.3186C105.314 12.9858 105.422 12.591 105.422 12.1342Z" fill="white"/>
<path d="M112.818 14.6137H111.67V11.7787C111.67 10.9051 111.324 10.4683 110.627 10.4683C110.287 10.4683 110.011 10.588 109.799 10.8285C109.586 11.0689 109.48 11.3524 109.48 11.6769V14.6127H108.33V11.0784C108.33 10.6437 108.316 10.1722 108.289 9.66191H109.298L109.351 10.4358H109.383C109.518 10.1953 109.718 9.99686 109.978 9.83831C110.291 9.65351 110.638 9.56006 111.021 9.56006C111.502 9.56006 111.904 9.70916 112.223 10.0084C112.621 10.3749 112.818 10.9219 112.818 11.6485V14.6137Z" fill="white"/>
<path d="M120.55 10.489H119.285V12.8935C119.285 13.5046 119.509 13.8101 119.955 13.8101C120.161 13.8101 120.332 13.7933 120.466 13.7587L120.496 14.5934C120.269 14.6753 119.971 14.7163 119.604 14.7163C119.15 14.7163 118.797 14.584 118.541 14.3194C118.285 14.0548 118.158 13.6096 118.158 12.9848V10.489H117.402V9.66471H118.158V8.75751L119.284 8.43201V9.66366H120.549V10.489H120.55Z" fill="white"/>
<path d="M126.629 14.6129H125.479V11.7989C125.479 10.9117 125.132 10.4675 124.438 10.4675C123.906 10.4675 123.542 10.7248 123.342 11.2393C123.308 11.3474 123.288 11.4797 123.288 11.6351V14.6119H122.141V7.39209H123.288V10.3751H123.31C123.672 9.83229 124.191 9.56139 124.863 9.56139C125.339 9.56139 125.732 9.71049 126.045 10.0097C126.434 10.3825 126.629 10.9369 126.629 11.6698V14.6129Z" fill="white"/>
<path d="M132.895 11.9071C132.895 12.1045 132.88 12.2704 132.853 12.4059H129.407C129.422 12.8952 129.587 13.2679 129.906 13.5262C130.197 13.7572 130.573 13.8727 131.034 13.8727C131.544 13.8727 132.008 13.795 132.427 13.6386L132.607 14.403C132.117 14.6067 131.54 14.7085 130.873 14.7085C130.072 14.7085 129.442 14.4828 128.986 14.0313C128.528 13.5798 128.301 12.9739 128.301 12.2137C128.301 11.4672 128.512 10.8456 128.939 10.35C129.384 9.82075 129.986 9.55615 130.746 9.55615C131.489 9.55615 132.053 9.82075 132.435 10.35C132.743 10.77 132.895 11.2897 132.895 11.9071ZM131.799 11.6226C131.808 11.296 131.732 11.0146 131.577 10.7773C131.377 10.4718 131.073 10.3185 130.662 10.3185C130.287 10.3185 129.981 10.4676 129.748 10.7668C129.557 11.0052 129.444 11.2897 129.407 11.6226H131.799Z" fill="white"/>
</svg>
