<svg width="148" height="43" viewBox="0 0 148 43" fill="none" xmlns="http://www.w3.org/2000/svg">
<path d="M142.519 42.5H5.48148C2.46804 42.5 0 40.1362 0 37.25V5.75004C0 2.86385 2.46804 0.50004 5.48148 0.50004H142.519C145.532 0.50004 148 2.86385 148 5.75004V37.25C148 40.1362 145.532 42.5 142.519 42.5Z" fill="#40374D"/>
<path d="M142.519 1.34135C145.056 1.34135 147.122 3.31929 147.122 5.75004V37.25C147.122 39.6808 145.056 41.6587 142.519 41.6587H5.48148C2.94356 41.6587 0.878407 39.6808 0.878407 37.25V5.75004C0.878407 3.31929 2.94356 1.34135 5.48148 1.34135H142.519ZM142.519 0.50004H5.48148C2.46804 0.50004 0 2.86385 0 5.75004V37.25C0 40.1362 2.46804 42.5 5.48148 42.5H142.519C145.532 42.5 148 40.1362 148 37.25V5.75004C148 2.86385 145.532 0.50004 142.519 0.50004Z" fill="#A6A6A6"/>
<path d="M51.9576 11.2605C51.9576 12.1372 51.6836 12.8394 51.1436 13.3631C50.5229 13.9839 49.7143 14.2963 48.7236 14.2963C47.7766 14.2963 46.9681 13.9786 46.3048 13.3526C45.6402 12.7173 45.3086 11.9377 45.3086 11.0045C45.3086 10.0713 45.6402 9.29171 46.3048 8.66171C46.9681 8.03039 47.7766 7.71277 48.7236 7.71277C49.195 7.71277 49.6444 7.80596 50.0734 7.97921C50.5009 8.15377 50.849 8.39002 51.1011 8.68139L50.5283 9.23527C50.0884 8.73783 49.4896 8.49239 48.7236 8.49239C48.0329 8.49239 47.434 8.72339 46.9256 9.18933C46.4227 9.65658 46.1706 10.2616 46.1706 11.0045C46.1706 11.7474 46.4227 12.3577 46.9256 12.825C47.434 13.2856 48.0329 13.5219 48.7236 13.5219C49.4567 13.5219 50.0734 13.2856 50.5599 12.8197C50.8805 12.5113 51.0628 12.086 51.1107 11.5426H48.7236V10.784H51.9083C51.9467 10.9481 51.9576 11.1069 51.9576 11.2605Z" fill="white" stroke="white" stroke-width="0.12998" stroke-miterlimit="10"/>
<path d="M57.0376 8.62145H54.0461V10.6164H56.743V11.3751H54.0461V13.3701H57.0376V14.1431H53.1992V7.84839H57.0376V8.62145Z" fill="white" stroke="white" stroke-width="0.12998" stroke-miterlimit="10"/>
<path d="M60.5998 14.149H59.7529V8.62731H57.918V7.85425H62.4361V8.62731H60.5998V14.149Z" fill="white" stroke="white" stroke-width="0.12998" stroke-miterlimit="10"/>
<path d="M65.7227 14.149V7.85425H66.5682V14.149H65.7227Z" fill="white" stroke="white" stroke-width="0.12998" stroke-miterlimit="10"/>
<path d="M70.299 14.1431H69.459V8.62145H67.6172V7.84839H72.1408V8.62145H70.299V14.1431Z" fill="white" stroke="white" stroke-width="0.12998" stroke-miterlimit="10"/>
<path d="M80.7222 13.3421C80.0741 13.9786 79.271 14.2963 78.3131 14.2963C77.3498 14.2963 76.5467 13.9786 75.8985 13.3421C75.2517 12.7068 74.9297 11.9272 74.9297 11.0045C74.9297 10.0818 75.2517 9.30221 75.8985 8.66696C76.5467 8.03039 77.3498 7.71277 78.3131 7.71277C79.2655 7.71277 80.0686 8.03039 80.7168 8.67221C81.3691 9.3127 81.6911 10.0871 81.6911 11.0045C81.6911 11.9272 81.3691 12.7068 80.7222 13.3421ZM76.5248 12.8145C77.0127 13.2856 77.606 13.5219 78.3131 13.5219C79.0148 13.5219 79.6136 13.2856 80.096 12.8145C80.5825 12.3433 80.8291 11.7382 80.8291 11.0045C80.8291 10.2708 80.5825 9.66577 80.096 9.19458C79.6136 8.72339 79.0148 8.48714 78.3131 8.48714C77.606 8.48714 77.0127 8.72339 76.5248 9.19458C76.0383 9.66577 75.7917 10.2708 75.7917 11.0045C75.7917 11.7382 76.0383 12.3433 76.5248 12.8145Z" fill="white" stroke="white" stroke-width="0.12998" stroke-miterlimit="10"/>
<path d="M82.8359 14.149V7.85425H83.8637L87.0594 12.7499H87.0964L87.0594 11.5397V7.85425H87.9049V14.149H87.0224L83.676 9.01187H83.639L83.676 10.2272V14.149H82.8359Z" fill="white" stroke="white" stroke-width="0.12998" stroke-miterlimit="10"/>
<path d="M74.6846 23.3425C72.1097 23.3425 70.0062 25.2193 70.0062 27.8089C70.0062 30.3774 72.1097 32.274 74.6846 32.274C77.265 32.274 79.3685 30.3774 79.3685 27.8089C79.3685 25.2193 77.265 23.3425 74.6846 23.3425ZM74.6846 30.5153C73.2718 30.5153 72.0562 29.3983 72.0562 27.8089C72.0562 26.1985 73.2718 25.1012 74.6846 25.1012C76.0975 25.1012 77.3185 26.1985 77.3185 27.8089C77.3185 29.3983 76.0975 30.5153 74.6846 30.5153ZM64.4767 23.3425C61.8963 23.3425 59.7983 25.2193 59.7983 27.8089C59.7983 30.3774 61.8963 32.274 64.4767 32.274C67.0558 32.274 69.1552 30.3774 69.1552 27.8089C69.1552 25.2193 67.0558 23.3425 64.4767 23.3425ZM64.4767 30.5153C63.0625 30.5153 61.8429 29.3983 61.8429 27.8089C61.8429 26.1985 63.0625 25.1012 64.4767 25.1012C65.8896 25.1012 67.1051 26.1985 67.1051 27.8089C67.1051 29.3983 65.8896 30.5153 64.4767 30.5153ZM52.3298 24.7114V26.6093H57.0616C56.9232 27.6698 56.5532 28.4494 55.9859 28.9928C55.2952 29.649 54.2195 30.3774 52.3298 30.3774C49.4177 30.3774 47.1374 28.1265 47.1374 25.3375C47.1374 22.5484 49.4177 20.2975 52.3298 20.2975C53.9043 20.2975 55.0499 20.8868 55.8955 21.6506L57.2919 20.3132C56.1092 19.2317 54.5361 18.4009 52.3298 18.4009C48.3365 18.4009 44.9805 21.5128 44.9805 25.3375C44.9805 29.1621 48.3365 32.274 52.3298 32.274C54.4881 32.274 56.1092 31.5968 57.3837 30.3263C58.6896 29.0754 59.0966 27.3167 59.0966 25.8966C59.0966 25.4556 59.0583 25.05 58.9898 24.7114H52.3298ZM102 26.1827C101.615 25.1839 100.427 23.3425 98.0069 23.3425C95.6088 23.3425 93.6122 25.1524 93.6122 27.8089C93.6122 30.3105 95.5882 32.274 98.2371 32.274C100.379 32.274 101.615 31.0232 102.124 30.2948L100.534 29.2802C100.004 30.0231 99.2814 30.5153 98.2371 30.5153C97.1998 30.5153 96.4557 30.0598 95.9788 29.1621L102.215 26.6906L102 26.1827ZM95.6417 27.6698C95.5882 25.9478 97.0381 25.0658 98.0768 25.0658C98.8908 25.0658 99.5815 25.4556 99.8117 26.0134L95.6417 27.6698ZM90.5727 32.0023H92.6227V18.8773H90.5727V32.0023ZM87.2153 24.3373H87.1467C86.6863 23.815 85.8079 23.3425 84.6952 23.3425C82.36 23.3425 80.225 25.306 80.225 27.8233C80.225 30.3263 82.36 32.274 84.6952 32.274C85.8079 32.274 86.6863 31.7976 87.1467 31.2594H87.2153V31.8999C87.2153 33.6075 86.2629 34.5249 84.7267 34.5249C83.4742 34.5249 82.6972 33.6587 82.3765 32.9303L80.5936 33.6429C81.1075 34.8268 82.4683 36.2837 84.7267 36.2837C87.1303 36.2837 89.1585 34.9292 89.1585 31.6335V23.6141H87.2153V24.3373ZM84.8706 30.5153C83.4577 30.5153 82.2751 29.3826 82.2751 27.8233C82.2751 26.2496 83.4577 25.1012 84.8706 25.1012C86.2629 25.1012 87.3605 26.2496 87.3605 27.8233C87.3605 29.3826 86.2629 30.5153 84.8706 30.5153ZM111.598 18.8773H106.695V32.0023H108.74V27.0293H111.598C113.869 27.0293 116.096 25.4556 116.096 22.9526C116.096 20.451 113.863 18.8773 111.598 18.8773ZM111.652 25.2036H108.74V20.703H111.652C113.178 20.703 114.05 21.9171 114.05 22.9526C114.05 23.9685 113.178 25.2036 111.652 25.2036ZM124.291 23.3175C122.813 23.3175 121.277 23.9423 120.645 25.327L122.46 26.0554C122.85 25.327 123.568 25.0907 124.328 25.0907C125.388 25.0907 126.464 25.701 126.48 26.7786V26.9164C126.11 26.7116 125.318 26.4085 124.344 26.4085C122.39 26.4085 120.399 27.4388 120.399 29.3616C120.399 31.1203 121.999 32.253 123.799 32.253C125.175 32.253 125.934 31.6584 126.411 30.9668H126.48V31.9813H128.455V26.9466C128.455 24.6195 126.641 23.3175 124.291 23.3175ZM124.044 30.51C123.375 30.51 122.443 30.1924 122.443 29.3983C122.443 28.3825 123.605 27.9926 124.611 27.9926C125.512 27.9926 125.934 28.183 126.48 28.4336C126.32 29.649 125.228 30.51 124.044 30.51ZM135.65 23.605L133.299 29.2946H133.23L130.8 23.605H128.595L132.246 31.5561L130.163 35.9805H132.299L137.924 23.605H135.65ZM117.22 32.0023H119.27V18.8773H117.22V32.0023Z" fill="white"/>
<path d="M11.4342 8.41834C11.1122 8.74122 10.9258 9.2439 10.9258 9.8949V33.1156C10.9258 33.7666 11.1122 34.2693 11.4342 34.5922L11.5137 34.6631L25.0995 21.6562V21.3491L11.5137 8.34222L11.4342 8.41834Z" fill="url(#paint0_linear_885_9748)"/>
<path d="M29.6056 25.9951L25.082 21.6573V21.3502L29.6111 17.0124L29.7125 17.0688L35.0761 19.9917C36.6068 20.8212 36.6068 22.1862 35.0761 23.021L29.7125 25.9387L29.6056 25.9951Z" fill="url(#paint1_linear_885_9748)"/>
<path d="M29.7372 25.9344L25.1067 21.4994L11.4414 34.589C11.9498 35.1009 12.7789 35.1625 13.7217 34.6507L29.7372 25.9344Z" fill="url(#paint2_linear_885_9748)"/>
<path d="M29.7372 17.0642L13.7217 8.3479C12.7789 7.84128 11.9498 7.90296 11.4414 8.41484L25.1067 21.4991L29.7372 17.0642Z" fill="url(#paint3_linear_885_9748)"/>
<defs>
<linearGradient id="paint0_linear_885_9748" x1="23.8933" y1="33.3575" x2="6.28813" y2="14.9761" gradientUnits="userSpaceOnUse">
<stop stop-color="#00A0FF"/>
<stop offset="0.0066" stop-color="#00A1FF"/>
<stop offset="0.2601" stop-color="#00BEFF"/>
<stop offset="0.5122" stop-color="#00D2FF"/>
<stop offset="0.7604" stop-color="#00DFFF"/>
<stop offset="1" stop-color="#00E3FF"/>
</linearGradient>
<linearGradient id="paint1_linear_885_9748" x1="37.0694" y1="21.5023" x2="10.5424" y2="21.5023" gradientUnits="userSpaceOnUse">
<stop stop-color="#FFE000"/>
<stop offset="0.4087" stop-color="#FFBD00"/>
<stop offset="0.7754" stop-color="#FFA500"/>
<stop offset="1" stop-color="#FF9C00"/>
</linearGradient>
<linearGradient id="paint2_linear_885_9748" x1="27.2193" y1="19.0885" x2="3.34532" y2="-5.8381" gradientUnits="userSpaceOnUse">
<stop stop-color="#FF3A44"/>
<stop offset="1" stop-color="#C31162"/>
</linearGradient>
<linearGradient id="paint3_linear_885_9748" x1="8.00156" y1="42.3141" x2="18.6624" y2="31.1834" gradientUnits="userSpaceOnUse">
<stop stop-color="#32A071"/>
<stop offset="0.0685" stop-color="#2DA771"/>
<stop offset="0.4762" stop-color="#15CF74"/>
<stop offset="0.8009" stop-color="#06E775"/>
<stop offset="1" stop-color="#00F076"/>
</linearGradient>
</defs>
</svg>
